ISO-10303-21;
HEADER;
FILE_DESCRIPTION (( 'STEP AP203' ),
    '1' );
FILE_NAME ('Table.STEP',
    '2026-08-09T19:20:03',
    ( '' ),
    ( '' ),
    'SwSTEP 2.0',
    'SolidWorks 2025',
    '' );
FILE_SCHEMA (( 'CONFIG_CONTROL_DESIGN' ));
ENDSEC;

DATA;
#1 = CARTESIAN_POINT ( 'NONE',  ( -23.37499999999999289, 8.750000000000003553, -24.50000000000000000 ) ) ;
#2 = ORIENTED_EDGE ( 'NONE', *, *, #266, .T. ) ;
#3 = AXIS2_PLACEMENT_3D ( 'NONE', #313, #171, #289 ) ;
#4 = ORIENTED_EDGE ( 'NONE', *, *, #48, .F. ) ;
#5 = ORIENTED_EDGE ( 'NONE', *, *, #53, .F. ) ;
#6 = DIRECTION ( 'NONE',  ( 0.000000000000000000, 0.000000000000000000, 1.000000000000000000 ) ) ;
#7 = CARTESIAN_POINT ( 'NONE',  ( 27.37500000000000355, -14.74999999999999467, -24.50000000000000000 ) ) ;
#8 = CC_DESIGN_APPROVAL ( #136, ( #22 ) ) ;
#9 = VECTOR ( 'NONE', #332, 39.37007874015748143 ) ;
#10 = DIRECTION ( 'NONE',  ( -0.000000000000000000, -0.000000000000000000, 1.000000000000000000 ) ) ;
#11 = APPROVAL_DATE_TIME ( #75, #136 ) ;
#12 = DIRECTION ( 'NONE',  ( 0.000000000000000000, -0.000000000000000000, 1.000000000000000000 ) ) ;
#13 = EDGE_CURVE ( 'NONE', #362, #172, #196, .T. ) ;
#14 = DATE_AND_TIME ( #271, #327 ) ;
#15 = VECTOR ( 'NONE', #78, 39.37007874015748143 ) ;
#16 = LINE ( 'NONE', #77, #188 ) ;
#17 = LINE ( 'NONE', #47, #173 ) ;
#18 = AXIS2_PLACEMENT_3D ( 'NONE', #318, #287, #37 ) ;
#19 = EDGE_CURVE ( 'NONE', #310, #339, #230, .T. ) ;
#20 = CARTESIAN_POINT ( 'NONE',  ( 27.37500000000000355, -14.74999999999999467, 0.000000000000000000 ) ) ;
#21 = CC_DESIGN_PERSON_AND_ORGANIZATION_ASSIGNMENT ( #269, #297, ( #22 ) ) ;
#22 = PRODUCT_DEFINITION_FORMATION_WITH_SPECIFIED_SOURCE ( 'ANY', '', #133, .NOT_KNOWN. ) ;
#23 = DIRECTION ( 'NONE',  ( 0.000000000000000000, 0.000000000000000000, 1.000000000000000000 ) ) ;
#24 = ORIENTED_EDGE ( 'NONE', *, *, #222, .F. ) ;
#25 = ADVANCED_FACE ( 'NONE', ( #26 ), #315, .T. ) ;
#26 = FACE_OUTER_BOUND ( 'NONE', #35, .T. ) ;
#27 = DATE_AND_TIME ( #292, #108 ) ;
#28 = ORIENTED_EDGE ( 'NONE', *, *, #163, .T. ) ;
#29 = VERTEX_POINT ( 'NONE', #307 ) ;
#30 =( CONVERSION_BASED_UNIT ( 'INCH', #290 ) LENGTH_UNIT ( ) NAMED_UNIT ( #236 ) );
#31 = ORIENTED_EDGE ( 'NONE', *, *, #48, .T. ) ;
#32 = VECTOR ( 'NONE', #302, 39.37007874015748143 ) ;
#33 = DIRECTION ( 'NONE',  ( 1.000000000000000000, 0.000000000000000000, 0.000000000000000000 ) ) ;
#34 = DIRECTION ( 'NONE',  ( 1.596696544242126461E-16, -1.000000000000000000, 0.000000000000000000 ) ) ;
#35 = EDGE_LOOP ( 'NONE', ( #58, #117, #112, #38 ) ) ;
#36 = ORGANIZATION ( 'UNSPECIFIED', 'UNSPECIFIED', '' ) ;
#37 = DIRECTION ( 'NONE',  ( 1.000000000000000000, 0.000000000000000000, -0.000000000000000000 ) ) ;
#38 = ORIENTED_EDGE ( 'NONE', *, *, #124, .T. ) ;
#39 = CALENDAR_DATE ( 2026, 9, 8 ) ;
#40 = APPROVAL_PERSON_ORGANIZATION ( #151, #136, #154 ) ;
#41 = DIRECTION ( 'NONE',  ( 0.000000000000000000, 0.000000000000000000, 1.000000000000000000 ) ) ;
#42 = DIRECTION ( 'NONE',  ( -1.596696544242126461E-16, 1.000000000000000000, 0.000000000000000000 ) ) ;
#43 = DATE_AND_TIME ( #323, #106 ) ;
#44 = LINE ( 'NONE', #243, #320 ) ;
#45 = DIRECTION ( 'NONE',  ( 0.000000000000000000, 1.000000000000000000, 0.000000000000000000 ) ) ;
#46 = CARTESIAN_POINT ( 'NONE',  ( -23.37499999999998934, -14.75000000000000355, -24.50000000000000000 ) ) ;
#47 = CARTESIAN_POINT ( 'NONE',  ( 23.37500000000000355, 8.750000000000003553, 0.000000000000000000 ) ) ;
#48 = EDGE_CURVE ( 'NONE', #366, #137, #140, .T. ) ;
#49 = CARTESIAN_POINT ( 'NONE',  ( 23.37500000000000000, -14.75000000000000355, -24.50000000000000000 ) ) ;
#50 = ORIENTED_EDGE ( 'NONE', *, *, #98, .T. ) ;
#51 = AXIS2_PLACEMENT_3D ( 'NONE', #57, #23, #168 ) ;
#52 = MECHANICAL_CONTEXT ( 'NONE', #195, 'mechanical' ) ;
#53 = EDGE_CURVE ( 'NONE', #295, #91, #340, .T. ) ;
#54 = DIRECTION ( 'NONE',  ( 0.000000000000000000, 0.000000000000000000, -1.000000000000000000 ) ) ;
#55 = ORIENTED_EDGE ( 'NONE', *, *, #19, .T. ) ;
#56 = PLANE ( 'NONE',  #18 ) ;
#57 = CARTESIAN_POINT ( 'NONE',  ( 0.000000000000000000, 0.000000000000000000, 0.000000000000000000 ) ) ;
#58 = ORIENTED_EDGE ( 'NONE', *, *, #274, .F. ) ;
#59 = LINE ( 'NONE', #337, #296 ) ;
#60 = DIRECTION ( 'NONE',  ( -0.000000000000000000, 1.000000000000000000, 0.000000000000000000 ) ) ;
#61 = ORIENTED_EDGE ( 'NONE', *, *, #19, .F. ) ;
#62 = ORIENTED_EDGE ( 'NONE', *, *, #360, .F. ) ;
#63 = ORIENTED_EDGE ( 'NONE', *, *, #274, .T. ) ;
#64 = DIRECTION ( 'NONE',  ( 1.000000000000000000, 1.596696544242126461E-16, -0.000000000000000000 ) ) ;
#65 = ADVANCED_FACE ( 'NONE', ( #234 ), #56, .T. ) ;
#66 = ORIENTED_EDGE ( 'NONE', *, *, #216, .T. ) ;
#67 = APPROVAL ( #158, 'UNSPECIFIED' ) ;
#68 = VECTOR ( 'NONE', #324, 39.37007874015748143 ) ;
#69 = COORDINATED_UNIVERSAL_TIME_OFFSET ( 5, 0, .BEHIND. ) ;
#70 = EDGE_CURVE ( 'NONE', #366, #319, #167, .T. ) ;
#71 = MANIFOLD_SOLID_BREP ( 'Cut-Extrude1', #132 ) ;
#72 = DIRECTION ( 'NONE',  ( 1.859981612707582838E-16, 1.000000000000000000, 0.000000000000000000 ) ) ;
#73 = PERSON_AND_ORGANIZATION_ROLE ( 'creator' ) ;
#74 = LINE ( 'NONE', #294, #129 ) ;
#75 = DATE_AND_TIME ( #39, #299 ) ;
#76 = VECTOR ( 'NONE', #141, 39.37007874015748143 ) ;
#77 = CARTESIAN_POINT ( 'NONE',  ( -23.37499999999998934, -14.75000000000000355, -24.50000000000000000 ) ) ;
#78 = DIRECTION ( 'NONE',  ( 0.000000000000000000, 1.000000000000000000, 0.000000000000000000 ) ) ;
#79 = PLANE ( 'NONE',  #241 ) ;
#80 = CARTESIAN_POINT ( 'NONE',  ( -27.37499999999999645, 14.74999999999999467, -24.50000000000000000 ) ) ;
#81 = ADVANCED_FACE ( 'NONE', ( #227 ), #199, .T. ) ;
#82 = EDGE_CURVE ( 'NONE', #91, #366, #147, .T. ) ;
#83 = VECTOR ( 'NONE', #126, 39.37007874015748143 ) ;
#84 = PRODUCT_DEFINITION_SHAPE ( 'NONE', 'NONE',  #122 ) ;
#85 = VERTEX_POINT ( 'NONE', #7 ) ;
#86 = VERTEX_POINT ( 'NONE', #259 ) ;
#87 = CARTESIAN_POINT ( 'NONE',  ( -23.37499999999999289, 8.750000000000003553, -24.50000000000000000 ) ) ;
#88 = PERSON_AND_ORGANIZATION ( #101, #36 ) ;
#89 = VERTEX_POINT ( 'NONE', #369 ) ;
#90 = ORIENTED_EDGE ( 'NONE', *, *, #282, .T. ) ;
#91 = VERTEX_POINT ( 'NONE', #372 ) ;
#92 = ORIENTED_EDGE ( 'NONE', *, *, #222, .T. ) ;
#93 = EDGE_CURVE ( 'NONE', #89, #29, #114, .T. ) ;
#94 = EDGE_CURVE ( 'NONE', #172, #203, #123, .T. ) ;
#95 = ORIENTED_EDGE ( 'NONE', *, *, #328, .F. ) ;
#96 = PLANE ( 'NONE',  #144 ) ;
#97 = PERSON_AND_ORGANIZATION ( #101, #36 ) ;
#98 = EDGE_CURVE ( 'NONE', #284, #137, #59, .T. ) ;
#99 = COORDINATED_UNIVERSAL_TIME_OFFSET ( 5, 0, .BEHIND. ) ;
#100 = PERSON_AND_ORGANIZATION_ROLE ( 'creator' ) ;
#101 = PERSON ( 'UNSPECIFIED', 'UNSPECIFIED', 'UNSPECIFIED', ('UNSPECIFIED'), ('UNSPECIFIED'), ('UNSPECIFIED') ) ;
#102 = CARTESIAN_POINT ( 'NONE',  ( 27.37500000000000355, -14.74999999999999467, -24.50000000000000000 ) ) ;
#103 = ADVANCED_FACE ( 'NONE', ( #192 ), #252, .F. ) ;
#104 = DIRECTION ( 'NONE',  ( -0.000000000000000000, -0.000000000000000000, 1.000000000000000000 ) ) ;
#105 = PRODUCT_RELATED_PRODUCT_CATEGORY ( 'detail', '', ( #133 ) ) ;
#106 = LOCAL_TIME ( 15, 20, 3.000000000000000000, #300 ) ;
#107 = CARTESIAN_POINT ( 'NONE',  ( 27.37500000000000355, -14.74999999999999467, -24.50000000000000000 ) ) ;
#108 = LOCAL_TIME ( 15, 20, 3.000000000000000000, #365 ) ;
#109 = APPROVAL_DATE_TIME ( #27, #191 ) ;
#110 = APPROVAL_PERSON_ORGANIZATION ( #225, #191, #175 ) ;
#111 = ORIENTED_EDGE ( 'NONE', *, *, #237, .F. ) ;
#112 = ORIENTED_EDGE ( 'NONE', *, *, #217, .T. ) ;
#113 = APPLICATION_PROTOCOL_DEFINITION ( 'international standard', 'config_control_design', 1994, #195 ) ;
#114 = LINE ( 'NONE', #349, #280 ) ;
#115 = CARTESIAN_POINT ( 'NONE',  ( -23.37499999999999289, 8.750000000000003553, -24.50000000000000000 ) ) ;
#116 = ADVANCED_FACE ( 'NONE', ( #177 ), #363, .F. ) ;
#117 = ORIENTED_EDGE ( 'NONE', *, *, #345, .F. ) ;
#118 = VECTOR ( 'NONE', #187, 39.37007874015748143 ) ;
#119 = DIRECTION ( 'NONE',  ( -1.000000000000000000, -1.596696544242126461E-16, 0.000000000000000000 ) ) ;
#120 = APPROVAL_STATUS ( 'not_yet_approved' ) ;
#121 = ORIENTED_EDGE ( 'NONE', *, *, #82, .T. ) ;
#122 = PRODUCT_DEFINITION ( 'UNKNOWN', '', #22, #351 ) ;
#123 = LINE ( 'NONE', #343, #211 ) ;
#124 = EDGE_CURVE ( 'NONE', #310, #362, #272, .T. ) ;
#125 = PERSON_AND_ORGANIZATION ( #101, #36 ) ;
#126 = DIRECTION ( 'NONE',  ( 0.000000000000000000, 0.000000000000000000, 1.000000000000000000 ) ) ;
#127 = ADVANCED_FACE ( 'NONE', ( #353 ), #96, .T. ) ;
#128 = APPROVAL_DATE_TIME ( #14, #67 ) ;
#129 = VECTOR ( 'NONE', #10, 39.37007874015748143 ) ;
#130 = CC_DESIGN_PERSON_AND_ORGANIZATION_ASSIGNMENT ( #88, #100, ( #122 ) ) ;
#131 = LINE ( 'NONE', #20, #15 ) ;
#132 = CLOSED_SHELL ( 'NONE', ( #81, #127, #212, #25, #308, #146, #65, #103, #336, #116 ) ) ;
#133 = PRODUCT ( 'Table', 'Table', '', ( #52 ) ) ;
#134 = LINE ( 'NONE', #164, #268 ) ;
#135 = CARTESIAN_POINT ( 'NONE',  ( 27.37500000000000355, -14.74999999999999467, -24.50000000000000000 ) ) ;
#136 = APPROVAL ( #120, 'UNSPECIFIED' ) ;
#137 = VERTEX_POINT ( 'NONE', #204 ) ;
#138 = ORIENTED_EDGE ( 'NONE', *, *, #249, .T. ) ;
#139 = ORIENTED_EDGE ( 'NONE', *, *, #249, .F. ) ;
#140 = LINE ( 'NONE', #291, #358 ) ;
#141 = DIRECTION ( 'NONE',  ( -1.000000000000000000, -0.000000000000000000, -0.000000000000000000 ) ) ;
#142 = COORDINATED_UNIVERSAL_TIME_OFFSET ( 5, 0, .BEHIND. ) ;
#143 = EDGE_LOOP ( 'NONE', ( #223, #138, #224, #235 ) ) ;
#144 = AXIS2_PLACEMENT_3D ( 'NONE', #262, #206, #6 ) ;
#145 = LINE ( 'NONE', #181, #83 ) ;
#146 = ADVANCED_FACE ( 'NONE', ( #153 ), #270, .F. ) ;
#147 = LINE ( 'NONE', #87, #76 ) ;
#148 = VECTOR ( 'NONE', #285, 39.37007874015748143 ) ;
#149 = SECURITY_CLASSIFICATION_LEVEL ( 'unclassified' ) ;
#150 = ORIENTED_EDGE ( 'NONE', *, *, #82, .F. ) ;
#151 = PERSON_AND_ORGANIZATION ( #101, #36 ) ;
#152 = APPROVAL_PERSON_ORGANIZATION ( #97, #67, #179 ) ;
#153 = FACE_OUTER_BOUND ( 'NONE', #298, .T. ) ;
#154 = APPROVAL_ROLE ( '' ) ;
#155 = DIRECTION ( 'NONE',  ( -1.000000000000000000, -1.596696544242126461E-16, 0.000000000000000000 ) ) ;
#156 = CARTESIAN_POINT ( 'NONE',  ( 27.37500000000000355, 14.75000000000000355, -24.50000000000000000 ) ) ;
#157 = APPLICATION_CONTEXT ( 'configuration controlled 3d designs of mechanical parts and assemblies' ) ;
#158 = APPROVAL_STATUS ( 'not_yet_approved' ) ;
#159 = LINE ( 'NONE', #80, #215 ) ;
#160 = EDGE_CURVE ( 'NONE', #91, #284, #74, .T. ) ;
#161 = CARTESIAN_POINT ( 'NONE',  ( 23.37500000000000355, 8.750000000000003553, 0.000000000000000000 ) ) ;
#162 = VECTOR ( 'NONE', #273, 39.37007874015748143 ) ;
#163 = EDGE_CURVE ( 'NONE', #333, #203, #145, .T. ) ;
#164 = CARTESIAN_POINT ( 'NONE',  ( -23.37499999999999289, 8.750000000000003553, 0.000000000000000000 ) ) ;
#165 = ORIENTED_EDGE ( 'NONE', *, *, #216, .F. ) ;
#166 = CC_DESIGN_DATE_AND_TIME_ASSIGNMENT ( #355, #183, ( #122 ) ) ;
#167 = LINE ( 'NONE', #115, #148 ) ;
#168 = DIRECTION ( 'NONE',  ( 1.000000000000000000, 0.000000000000000000, 0.000000000000000000 ) ) ;
#169 = ORIENTED_EDGE ( 'NONE', *, *, #13, .T. ) ;
#170 = DIRECTION ( 'NONE',  ( 1.000000000000000000, 1.596696544242126461E-16, 0.000000000000000000 ) ) ;
#171 = DIRECTION ( 'NONE',  ( -1.000000000000000000, -1.859981612707582838E-16, 0.000000000000000000 ) ) ;
#172 = VERTEX_POINT ( 'NONE', #239 ) ;
#173 = VECTOR ( 'NONE', #279, 39.37007874015748143 ) ;
#174 = CARTESIAN_POINT ( 'NONE',  ( 27.37500000000000355, 14.75000000000000355, 0.000000000000000000 ) ) ;
#175 = APPROVAL_ROLE ( '' ) ;
#176 = ORIENTED_EDGE ( 'NONE', *, *, #13, .F. ) ;
#177 = FACE_OUTER_BOUND ( 'NONE', #258, .T. ) ;
#178 = CARTESIAN_POINT ( 'NONE',  ( 27.37500000000000355, 14.75000000000000355, -24.50000000000000000 ) ) ;
#179 = APPROVAL_ROLE ( '' ) ;
#180 = ORIENTED_EDGE ( 'NONE', *, *, #94, .T. ) ;
#181 = CARTESIAN_POINT ( 'NONE',  ( -27.37499999999999645, -14.75000000000000355, -24.50000000000000000 ) ) ;
#182 = LOCAL_TIME ( 15, 20, 3.000000000000000000, #99 ) ;
#183 = DATE_TIME_ROLE ( 'creation_date' ) ;
#184 = VECTOR ( 'NONE', #367, 39.37007874015748143 ) ;
#185 = PLANE ( 'NONE',  #357 ) ;
#186 = DIRECTION ( 'NONE',  ( 1.000000000000000000, 1.596696544242126461E-16, -0.000000000000000000 ) ) ;
#187 = DIRECTION ( 'NONE',  ( -0.000000000000000000, -1.000000000000000000, -0.000000000000000000 ) ) ;
#188 = VECTOR ( 'NONE', #104, 39.37007874015748143 ) ;
#189 =( LENGTH_UNIT ( ) NAMED_UNIT ( * ) SI_UNIT ( $, .METRE. ) );
#190 = EDGE_LOOP ( 'NONE', ( #176, #264, #55, #263 ) ) ;
#191 = APPROVAL ( #341, 'UNSPECIFIED' ) ;
#192 = FACE_OUTER_BOUND ( 'NONE', #348, .T. ) ;
#193 = LINE ( 'NONE', #197, #9 ) ;
#194 = EDGE_LOOP ( 'NONE', ( #50, #4, #150, #371 ) ) ;
#195 = APPLICATION_CONTEXT ( 'configuration controlled 3d designs of mechanical parts and assemblies' ) ;
#196 = LINE ( 'NONE', #174, #301 ) ;
#197 = CARTESIAN_POINT ( 'NONE',  ( 27.37500000000000355, -14.74999999999999467, -24.50000000000000000 ) ) ;
#198 = DIRECTION ( 'NONE',  ( -1.000000000000000000, -0.000000000000000000, -0.000000000000000000 ) ) ;
#199 = PLANE ( 'NONE',  #233 ) ;
#200 = CARTESIAN_POINT ( 'NONE',  ( 27.37500000000000355, 14.75000000000000355, 0.000000000000000000 ) ) ;
#201 = ORIENTED_EDGE ( 'NONE', *, *, #282, .F. ) ;
#202 = CARTESIAN_POINT ( 'NONE',  ( 23.37500000000000355, 8.750000000000003553, -24.50000000000000000 ) ) ;
#203 = VERTEX_POINT ( 'NONE', #205 ) ;
#204 = CARTESIAN_POINT ( 'NONE',  ( -23.37499999999999289, 8.750000000000003553, 0.000000000000000000 ) ) ;
#205 = CARTESIAN_POINT ( 'NONE',  ( -27.37499999999999645, -14.75000000000000355, 0.000000000000000000 ) ) ;
#206 = DIRECTION ( 'NONE',  ( -1.000000000000000000, 0.000000000000000000, 0.000000000000000000 ) ) ;
#207 = PERSON_AND_ORGANIZATION_ROLE ( 'classification_officer' ) ;
#208 = CARTESIAN_POINT ( 'NONE',  ( 27.37500000000000355, 14.75000000000000355, -24.50000000000000000 ) ) ;
#209 = CALENDAR_DATE ( 2026, 9, 8 ) ;
#210 = LINE ( 'NONE', #356, #68 ) ;
#211 = VECTOR ( 'NONE', #347, 39.37007874015748143 ) ;
#212 = ADVANCED_FACE ( 'NONE', ( #354 ), #185, .T. ) ;
#213 = DIRECTION ( 'NONE',  ( 1.596696544242126461E-16, -1.000000000000000000, 0.000000000000000000 ) ) ;
#214 = DIRECTION ( 'NONE',  ( 1.000000000000000000, 1.596696544242126461E-16, 0.000000000000000000 ) ) ;
#215 = VECTOR ( 'NONE', #277, 39.37007874015748143 ) ;
#216 = EDGE_CURVE ( 'NONE', #203, #86, #210, .T. ) ;
#217 = EDGE_CURVE ( 'NONE', #85, #310, #44, .T. ) ;
#218 = EDGE_LOOP ( 'NONE', ( #62, #256, #312, #281, #63, #169, #180, #66 ) ) ;
#219 = DIRECTION ( 'NONE',  ( 1.000000000000000000, -1.859981612707582838E-16, 0.000000000000000000 ) ) ;
#220 = VECTOR ( 'NONE', #41, 39.37007874015748143 ) ;
#221 = FACE_OUTER_BOUND ( 'NONE', #194, .T. ) ;
#222 = EDGE_CURVE ( 'NONE', #339, #333, #304, .T. ) ;
#223 = ORIENTED_EDGE ( 'NONE', *, *, #229, .F. ) ;
#224 = ORIENTED_EDGE ( 'NONE', *, *, #345, .T. ) ;
#225 = PERSON_AND_ORGANIZATION ( #101, #36 ) ;
#226 = ORIENTED_EDGE ( 'NONE', *, *, #237, .T. ) ;
#227 = FACE_OUTER_BOUND ( 'NONE', #346, .T. ) ;
#228 = CARTESIAN_POINT ( 'NONE',  ( -27.37499999999999645, 14.74999999999999467, -24.50000000000000000 ) ) ;
#229 = EDGE_CURVE ( 'NONE', #295, #89, #278, .T. ) ;
#230 = LINE ( 'NONE', #178, #305 ) ;
#231 = DIRECTION ( 'NONE',  ( 1.859981612707582838E-16, -1.000000000000000000, 0.000000000000000000 ) ) ;
#232 = ORIENTED_EDGE ( 'NONE', *, *, #229, .T. ) ;
#233 = AXIS2_PLACEMENT_3D ( 'NONE', #255, #34, #170 ) ;
#234 = FACE_OUTER_BOUND ( 'NONE', #218, .T. ) ;
#235 = ORIENTED_EDGE ( 'NONE', *, *, #93, .F. ) ;
#236 = DIMENSIONAL_EXPONENTS ( 1.000000000000000000, 0.000000000000000000, 0.000000000000000000, 0.000000000000000000, 0.000000000000000000, 0.000000000000000000, 0.000000000000000000 ) ;
#237 = EDGE_CURVE ( 'NONE', #319, #86, #16, .T. ) ;
#238 = CC_DESIGN_APPROVAL ( #67, ( #342 ) ) ;
#239 = CARTESIAN_POINT ( 'NONE',  ( -27.37499999999999645, 14.74999999999999467, 0.000000000000000000 ) ) ;
#240 = DATE_TIME_ROLE ( 'classification_date' ) ;
#241 = AXIS2_PLACEMENT_3D ( 'NONE', #107, #213, #214 ) ;
#242 = SHAPE_DEFINITION_REPRESENTATION ( #84, #314 ) ;
#243 = CARTESIAN_POINT ( 'NONE',  ( 27.37500000000000355, -14.74999999999999467, -24.50000000000000000 ) ) ;
#244 = LINE ( 'NONE', #102, #32 ) ;
#245 = CARTESIAN_POINT ( 'NONE',  ( 23.37500000000000000, -14.75000000000000355, -24.50000000000000000 ) ) ;
#246 = CC_DESIGN_SECURITY_CLASSIFICATION ( #342, ( #22 ) ) ;
#247 = CARTESIAN_POINT ( 'NONE',  ( 27.37500000000000355, -14.74999999999999467, -24.50000000000000000 ) ) ;
#248 = ORIENTED_EDGE ( 'NONE', *, *, #360, .T. ) ;
#249 = EDGE_CURVE ( 'NONE', #295, #85, #330, .T. ) ;
#250 = APPLICATION_PROTOCOL_DEFINITION ( 'international standard', 'config_control_design', 1994, #157 ) ;
#251 = ORIENTED_EDGE ( 'NONE', *, *, #217, .F. ) ;
#252 = PLANE ( 'NONE',  #3 ) ;
#253 = DIRECTION ( 'NONE',  ( 0.000000000000000000, -0.000000000000000000, 1.000000000000000000 ) ) ;
#254 = ORIENTED_EDGE ( 'NONE', *, *, #163, .F. ) ;
#255 = CARTESIAN_POINT ( 'NONE',  ( 27.37500000000000355, -14.74999999999999467, -24.50000000000000000 ) ) ;
#256 = ORIENTED_EDGE ( 'NONE', *, *, #98, .F. ) ;
#257 = DIRECTION ( 'NONE',  ( -0.000000000000000000, -0.000000000000000000, 1.000000000000000000 ) ) ;
#258 = EDGE_LOOP ( 'NONE', ( #2, #306, #5, #232 ) ) ;
#259 = CARTESIAN_POINT ( 'NONE',  ( -23.37499999999998934, -14.75000000000000355, 0.000000000000000000 ) ) ;
#260 = AXIS2_PLACEMENT_3D ( 'NONE', #321, #12, #267 ) ;
#261 = ORIENTED_EDGE ( 'NONE', *, *, #94, .F. ) ;
#262 = CARTESIAN_POINT ( 'NONE',  ( -27.37499999999999645, -14.75000000000000355, -24.50000000000000000 ) ) ;
#263 = ORIENTED_EDGE ( 'NONE', *, *, #328, .T. ) ;
#264 = ORIENTED_EDGE ( 'NONE', *, *, #124, .F. ) ;
#265 = CC_DESIGN_PERSON_AND_ORGANIZATION_ASSIGNMENT ( #286, #316, ( #133 ) ) ;
#266 = EDGE_CURVE ( 'NONE', #89, #284, #17, .T. ) ;
#267 = DIRECTION ( 'NONE',  ( 1.000000000000000000, 0.000000000000000000, -0.000000000000000000 ) ) ;
#268 = VECTOR ( 'NONE', #231, 39.37007874015748143 ) ;
#269 = PERSON_AND_ORGANIZATION ( #101, #36 ) ;
#270 = PLANE ( 'NONE',  #260 ) ;
#271 = CALENDAR_DATE ( 2026, 9, 8 ) ;
#272 = LINE ( 'NONE', #156, #220 ) ;
#273 = DIRECTION ( 'NONE',  ( -0.000000000000000000, -0.000000000000000000, 1.000000000000000000 ) ) ;
#274 = EDGE_CURVE ( 'NONE', #29, #362, #131, .T. ) ;
#275 = CC_DESIGN_PERSON_AND_ORGANIZATION_ASSIGNMENT ( #125, #73, ( #22 ) ) ;
#276 = CARTESIAN_POINT ( 'NONE',  ( -27.37499999999999645, -14.75000000000000355, -24.50000000000000000 ) ) ;
#277 = DIRECTION ( 'NONE',  ( 0.000000000000000000, 0.000000000000000000, 1.000000000000000000 ) ) ;
#278 = LINE ( 'NONE', #49, #162 ) ;
#279 = DIRECTION ( 'NONE',  ( 1.859981612707582838E-16, 1.000000000000000000, -0.000000000000000000 ) ) ;
#280 = VECTOR ( 'NONE', #64, 39.37007874015748143 ) ;
#281 = ORIENTED_EDGE ( 'NONE', *, *, #93, .T. ) ;
#282 = EDGE_CURVE ( 'NONE', #333, #319, #244, .T. ) ;
#283 = CC_DESIGN_APPROVAL ( #191, ( #122 ) ) ;
#284 = VERTEX_POINT ( 'NONE', #161 ) ;
#285 = DIRECTION ( 'NONE',  ( 1.859981612707582838E-16, -1.000000000000000000, 0.000000000000000000 ) ) ;
#286 = PERSON_AND_ORGANIZATION ( #101, #36 ) ;
#287 = DIRECTION ( 'NONE',  ( 0.000000000000000000, -0.000000000000000000, 1.000000000000000000 ) ) ;
#288 = EDGE_LOOP ( 'NONE', ( #261, #95, #92, #28 ) ) ;
#289 = DIRECTION ( 'NONE',  ( 1.859981612707582838E-16, -1.000000000000000000, 0.000000000000000000 ) ) ;
#290 = LENGTH_MEASURE_WITH_UNIT ( LENGTH_MEASURE( 0.02539999999999999897 ), #189 );
#291 = CARTESIAN_POINT ( 'NONE',  ( -23.37499999999999289, 8.750000000000003553, -24.50000000000000000 ) ) ;
#292 = CALENDAR_DATE ( 2026, 9, 8 ) ;
#293 = ORIENTED_EDGE ( 'NONE', *, *, #70, .F. ) ;
#294 = CARTESIAN_POINT ( 'NONE',  ( 23.37500000000000355, 8.750000000000003553, -24.50000000000000000 ) ) ;
#295 = VERTEX_POINT ( 'NONE', #245 ) ;
#296 = VECTOR ( 'NONE', #198, 39.37007874015748143 ) ;
#297 = PERSON_AND_ORGANIZATION_ROLE ( 'design_supplier' ) ;
#298 = EDGE_LOOP ( 'NONE', ( #121, #317, #201, #24, #61, #251, #139, #350 ) ) ;
#299 = LOCAL_TIME ( 15, 20, 3.000000000000000000, #69 ) ;
#300 = COORDINATED_UNIVERSAL_TIME_OFFSET ( 5, 0, .BEHIND. ) ;
#301 = VECTOR ( 'NONE', #119, 39.37007874015748143 ) ;
#302 = DIRECTION ( 'NONE',  ( 1.000000000000000000, 1.596696544242126461E-16, -0.000000000000000000 ) ) ;
#303 = CARTESIAN_POINT ( 'NONE',  ( 27.37500000000000355, 14.75000000000000355, -24.50000000000000000 ) ) ;
#304 = LINE ( 'NONE', #276, #118 ) ;
#305 = VECTOR ( 'NONE', #311, 39.37007874015748143 ) ;
#306 = ORIENTED_EDGE ( 'NONE', *, *, #160, .F. ) ;
#307 = CARTESIAN_POINT ( 'NONE',  ( 27.37500000000000355, -14.74999999999999467, 0.000000000000000000 ) ) ;
#308 = ADVANCED_FACE ( 'NONE', ( #361 ), #79, .T. ) ;
#309 =( NAMED_UNIT ( * ) PLANE_ANGLE_UNIT ( ) SI_UNIT ( $, .RADIAN. ) );
#310 = VERTEX_POINT ( 'NONE', #303 ) ;
#311 = DIRECTION ( 'NONE',  ( -1.000000000000000000, -1.596696544242126461E-16, 0.000000000000000000 ) ) ;
#312 = ORIENTED_EDGE ( 'NONE', *, *, #266, .F. ) ;
#313 = CARTESIAN_POINT ( 'NONE',  ( -23.37499999999999289, 8.750000000000003553, -24.50000000000000000 ) ) ;
#314 = ADVANCED_BREP_SHAPE_REPRESENTATION ( 'Table', ( #71, #51 ), #359 ) ;
#315 = PLANE ( 'NONE',  #325 ) ;
#316 = PERSON_AND_ORGANIZATION_ROLE ( 'design_owner' ) ;
#317 = ORIENTED_EDGE ( 'NONE', *, *, #70, .T. ) ;
#318 = CARTESIAN_POINT ( 'NONE',  ( 0.000000000000000000, 0.000000000000000000, 0.000000000000000000 ) ) ;
#319 = VERTEX_POINT ( 'NONE', #46 ) ;
#320 = VECTOR ( 'NONE', #45, 39.37007874015748143 ) ;
#321 = CARTESIAN_POINT ( 'NONE',  ( 0.000000000000000000, 0.000000000000000000, -24.50000000000000000 ) ) ;
#322 = UNCERTAINTY_MEASURE_WITH_UNIT (LENGTH_MEASURE( 1.000000000000000082E-05 ), #30, 'distance_accuracy_value', 'NONE');
#323 = CALENDAR_DATE ( 2026, 9, 8 ) ;
#324 = DIRECTION ( 'NONE',  ( 1.000000000000000000, 1.596696544242126461E-16, -0.000000000000000000 ) ) ;
#325 = AXIS2_PLACEMENT_3D ( 'NONE', #135, #33, #54 ) ;
#326 = CC_DESIGN_PERSON_AND_ORGANIZATION_ASSIGNMENT ( #352, #207, ( #342 ) ) ;
#327 = LOCAL_TIME ( 15, 20, 3.000000000000000000, #142 ) ;
#328 = EDGE_CURVE ( 'NONE', #339, #172, #159, .T. ) ;
#329 = AXIS2_PLACEMENT_3D ( 'NONE', #1, #60, #253 ) ;
#330 = LINE ( 'NONE', #247, #331 ) ;
#331 = VECTOR ( 'NONE', #186, 39.37007874015748143 ) ;
#332 = DIRECTION ( 'NONE',  ( 0.000000000000000000, 0.000000000000000000, 1.000000000000000000 ) ) ;
#333 = VERTEX_POINT ( 'NONE', #338 ) ;
#334 = AXIS2_PLACEMENT_3D ( 'NONE', #335, #219, #72 ) ;
#335 = CARTESIAN_POINT ( 'NONE',  ( 23.37500000000000355, 8.750000000000003553, -24.50000000000000000 ) ) ;
#336 = ADVANCED_FACE ( 'NONE', ( #221 ), #370, .F. ) ;
#337 = CARTESIAN_POINT ( 'NONE',  ( -23.37499999999999289, 8.750000000000003553, 0.000000000000000000 ) ) ;
#338 = CARTESIAN_POINT ( 'NONE',  ( -27.37499999999999645, -14.75000000000000355, -24.50000000000000000 ) ) ;
#339 = VERTEX_POINT ( 'NONE', #228 ) ;
#340 = LINE ( 'NONE', #202, #184 ) ;
#341 = APPROVAL_STATUS ( 'not_yet_approved' ) ;
#342 = SECURITY_CLASSIFICATION ( '', '', #149 ) ;
#343 = CARTESIAN_POINT ( 'NONE',  ( -27.37499999999999645, -14.75000000000000355, 0.000000000000000000 ) ) ;
#344 = CARTESIAN_POINT ( 'NONE',  ( -23.37499999999999289, 8.750000000000003553, -24.50000000000000000 ) ) ;
#345 = EDGE_CURVE ( 'NONE', #85, #29, #193, .T. ) ;
#346 = EDGE_LOOP ( 'NONE', ( #226, #165, #254, #90 ) ) ;
#347 = DIRECTION ( 'NONE',  ( -0.000000000000000000, -1.000000000000000000, -0.000000000000000000 ) ) ;
#348 = EDGE_LOOP ( 'NONE', ( #248, #111, #293, #31 ) ) ;
#349 = CARTESIAN_POINT ( 'NONE',  ( 27.37500000000000355, -14.74999999999999467, 0.000000000000000000 ) ) ;
#350 = ORIENTED_EDGE ( 'NONE', *, *, #53, .T. ) ;
#351 = DESIGN_CONTEXT ( 'detailed design', #157, 'design' ) ;
#352 = PERSON_AND_ORGANIZATION ( #101, #36 ) ;
#353 = FACE_OUTER_BOUND ( 'NONE', #288, .T. ) ;
#354 = FACE_OUTER_BOUND ( 'NONE', #190, .T. ) ;
#355 = DATE_AND_TIME ( #209, #182 ) ;
#356 = CARTESIAN_POINT ( 'NONE',  ( 27.37500000000000355, -14.74999999999999467, 0.000000000000000000 ) ) ;
#357 = AXIS2_PLACEMENT_3D ( 'NONE', #208, #42, #155 ) ;
#358 = VECTOR ( 'NONE', #257, 39.37007874015748143 ) ;
#359 =( GEOMETRIC_REPRESENTATION_CONTEXT ( 3 ) GLOBAL_UNCERTAINTY_ASSIGNED_CONTEXT ( ( #322 ) ) GLOBAL_UNIT_ASSIGNED_CONTEXT ( ( #30, #309, #368 ) ) REPRESENTATION_CONTEXT ( 'NONE', 'WORKASPACE' ) );
#360 = EDGE_CURVE ( 'NONE', #137, #86, #134, .T. ) ;
#361 = FACE_OUTER_BOUND ( 'NONE', #143, .T. ) ;
#362 = VERTEX_POINT ( 'NONE', #200 ) ;
#363 = PLANE ( 'NONE',  #334 ) ;
#364 = CC_DESIGN_DATE_AND_TIME_ASSIGNMENT ( #43, #240, ( #342 ) ) ;
#365 = COORDINATED_UNIVERSAL_TIME_OFFSET ( 5, 0, .BEHIND. ) ;
#366 = VERTEX_POINT ( 'NONE', #344 ) ;
#367 = DIRECTION ( 'NONE',  ( 1.859981612707582838E-16, 1.000000000000000000, -0.000000000000000000 ) ) ;
#368 =( NAMED_UNIT ( * ) SI_UNIT ( $, .STERADIAN. ) SOLID_ANGLE_UNIT ( ) );
#369 = CARTESIAN_POINT ( 'NONE',  ( 23.37500000000000000, -14.74999999999999467, 0.000000000000000000 ) ) ;
#370 = PLANE ( 'NONE',  #329 ) ;
#371 = ORIENTED_EDGE ( 'NONE', *, *, #160, .T. ) ;
#372 = CARTESIAN_POINT ( 'NONE',  ( 23.37500000000000355, 8.750000000000003553, -24.50000000000000000 ) ) ;
ENDSEC;
END-ISO-10303-21;
