<COLLADA xmlns="http://www.collada.org/2005/11/COLLADASchema" version="1.4.1">
  <asset>
    <created>2026-09-21T21:22:56.625983</created>
    <modified>2026-09-21T21:22:56.625983</modified>
    <up_axis>Y_UP</up_axis>
  </asset>
  <library_effects>
    <effect id="0407a5d94cb64d16adac88ef53183eab" name="0407a5d94cb64d16adac88ef53183eab">
      <profile_COMMON>
        <technique sid="common">
          <phong>
            <emission>
              <color>0.0 0.0 0.0 1.0</color>
            </emission>
            <ambient>
              <color>0.0 0.0 0.0 1.0</color>
            </ambient>
            <diffuse>
              <color>0.9607843137254902 0.9607843137254902 0.9647058823529412 1.0</color>
            </diffuse>
            <specular>
              <color>0.0 0.0 0.0 1.0</color>
            </specular>
            <shininess>
              <float>0.0</float>
            </shininess>
            <reflective>
              <color>0.0 0.0 0.0 1.0</color>
            </reflective>
            <reflectivity>
              <float>0.0</float>
            </reflectivity>
            <transparent>
              <color>0.0 0.0 0.0 1.0</color>
            </transparent>
            <transparency>
              <float>1.0</float>
            </transparency>
          </phong>
        </technique>
        <extra>
          <technique profile="GOOGLEEARTH">
            <double_sided>0</double_sided>
          </technique>
        </extra>
      </profile_COMMON>
    </effect>
  </library_effects>
  <library_geometries>
    <geometry id="82bc88642d854d56a6f738bb2b9877a6" name="fc7c9d54cf744ce9a4bd483161653157">
      <mesh>
        <source id="verts-array">
          <float_array count="1596" id="verts-array-array">0.02116792 -0.02047951 -0.03418346 0.03602375 -0.01684288 -0.02586626 0.03377291 -0.01728281 -0.02550164 0.03114635 -0.01658378 -0.007339716 0.03320633 -0.01609322 -0.006387002 0.02010337 -0.01824437 0.001731311 0.03543334 -0.01560325 -0.005947529 0.05143071 -0.01173871 0.002255007 0.03770563 -0.01514058 -0.00604429 0.03990355 -0.01472958 -0.0066723 0.03828805 -0.01636345 -0.02569366 0.05249526 -0.01397384 -0.03365977 0.04044659 -0.01586975 -0.02499282 0.03165855 -0.01765919 -0.02461971 0.02979467 -0.01795163 -0.02326647 0.02828045 -0.0181447 -0.02151611 0.02719902 -0.01822778 -0.01946407 0.02660844 -0.01819623 -0.01721818 0.02653978 -0.01805206 -0.01490168 0.02699673 -0.01780304 -0.01263927 0.04190661 -0.01439283 -0.007797641 0.04360623 -0.01414856 -0.009359244 0.04491278 -0.01400959 -0.01127377 0.0451782 -0.01456689 -0.02022852 0.04398639 -0.01494675 -0.02218481 0.04238101 -0.01538889 -0.02380266 0.02795547 -0.01746237 -0.01055213 0.02936451 -0.01704845 -0.008753905 0.04575461 -0.01398365 -0.01343761 0.04608712 -0.01407193 -0.01573373 0.04589099 -0.01426999 -0.01803869 0.01122397 0.02475003 -0.001207614 0.02655394 0.02739116 -0.008886454 0.02432693 0.02690118 -0.009325928 0.02882622 0.02785382 -0.008983215 0.04255131 0.0312557 -0.0006839184 0.03102415 0.02826482 -0.009611225 0.02226695 0.02641062 -0.01027864 0.02048511 0.02594596 -0.01169283 0.01907607 0.02553204 -0.01349105 0.01811733 0.02519137 -0.01557819 0.01766038 0.02494235 -0.0178406 0.01228852 0.0225149 -0.03712239 0.01772904 0.02479818 -0.02015711 0.01831962 0.02476663 -0.022403 0.02277915 0.02533521 -0.02755863 0.0248935 0.02571159 -0.02844057 0.02714435 0.02615153 -0.02880519 0.04361585 0.02902056 -0.03659869 0.02940865 0.02663096 -0.02863259 0.03156719 0.02712465 -0.02793175 0.01940105 0.0248497 -0.02445504 0.02091527 0.02504278 -0.02620539 0.03350161 0.02760552 -0.02674159 0.03510699 0.02804766 -0.02512373 0.0362988 0.02842752 -0.02316744 0.03701159 0.02872441 -0.02097762 0.03720772 0.02892248 -0.01867266 0.03687521 0.02901076 -0.01637653 0.03603337 0.02898481 -0.01421269 0.03472683 0.02884585 -0.01229817 0.03302721 0.02860158 -0.01073657 0.01228852 0.0225149 -0.03712239 0.04361585 0.02902056 -0.03659869 0.02116792 -0.02047951 -0.03418346 0.05249526 -0.01397384 -0.03365977 0.06138842 0.003947972 0.006072562 0.0616132 0.003036528 0.00394877 0.05971774 0.01240142 0.0009982957 0.06173578 0.002629965 0.001666233 0.06174958 0.002750182 -0.0006523117 0.06024553 0.009101226 0.01042311 0.06068564 0.007064309 0.009399172 0.06107357 0.005315152 0.007922748 0.05885567 0.0157987 0.01036405 0.05930519 0.0135894 0.01091882 0.05977695 0.01131606 0.01093897 0.05786919 0.02090652 0.005922233 0.05811777 0.01955863 0.007796708 0.05845263 0.01782482 0.009303825 0.05774767 0.02203472 -0.0008233766 0.05767901 0.02217889 0.001493126 0.05772026 0.02179593 0.003782543 0.05854797 0.01865538 -0.00671685 0.05819418 0.02022419 -0.005041749 0.05792253 0.02137125 -0.003041264 0.0598956 0.01234977 -0.008999907 0.05942224 0.01460911 -0.008750591 0.0589648 0.01674947 -0.007975171 0.06116002 0.006068308 -0.00660485 0.06078856 0.007961059 -0.00789741 0.06035938 0.01009319 -0.008710404 0.06165384 0.003390679 -0.002882188 0.06145373 0.00451696 -0.004902817 0.004873044 -0.008400836 -0.003831387 0.004968778 -0.009041333 -0.001601511 0.002936938 0.000609906 4.909654e-05 0.004954984 -0.00916155 0.0007170341 0.004832397 -0.008754988 0.002999571 0.004007764 -0.003830456 -0.008846609 0.004379219 -0.005723207 -0.007554049 0.004672931 -0.007274555 -0.005852016 0.002641444 0.002817595 -0.00969979 0.003114804 0.0005582501 -0.009949107 0.003578581 -0.001698321 -0.009659603 0.001413376 0.008432672 -0.005990948 0.001767168 0.006863868 -0.00766605 0.002183998 0.00495796 -0.00892437 0.0008982063 0.01038737 0.000543927 0.0009668696 0.0102432 -0.001772576 0.001141726 0.009579737 -0.003990463 0.001336972 0.007767111 0.006847509 0.001088393 0.009115009 0.004973034 0.0009394621 0.01000441 0.002833344 0.002524394 0.00179788 0.009969625 0.002074868 0.004007183 0.00941485 0.001671832 0.006033308 0.008354626 0.003904845 -0.004727206 0.008449972 0.003464727 -0.002690289 0.009473916 0.002996154 -0.0004754544 0.009989768 0.004607617 -0.007843543 0.005123363 0.004292769 -0.006476364 0.006973548 0.04582124 0.01601246 -0.006929602 0.04623807 0.01410655 -0.008187923 0.04361585 0.02902056 -0.03659869 0.04669551 0.01196618 -0.008963342 0.04716887 0.009706839 -0.009212659 0.05249526 -0.01397384 -0.03365977 0.04705022 0.008673135 0.01072622 0.04774424 0.004414546 0.0221131 0.0475188 0.0064583 0.01021036 0.04842694 0.001216001 0.02100826 0.04795891 0.004421383 0.00918642 0.04763265 0.007450268 -0.008923155 0.04806183 0.005318134 -0.008110161 0.04843329 0.003425382 -0.006817602 0.04612894 0.01315577 0.0101513 0.04565394 0.01447049 0.02223323 0.04657846 0.01094647 0.01070607 0.04634045 0.01112441 0.02273346 0.04704299 0.00774468 0.02269298 0.04499353 0.019153 0.003569791 0.04495227 0.01953596 0.001280375 0.04250419 0.03120469 0.002768027 0.04255131 0.0312557 -0.0006839184 0.048727 0.001874034 -0.005115568 0.04892711 0.0007477531 -0.00309494 0.05143071 -0.01173871 0.002255007 0.04902285 0.0001072562 -0.0008650633 0.04900905 -1.296061e-05 0.001453482 0.05127426 -0.0112603 0.005670764 0.04888647 0.0003936018 0.003736018 0.05101238 -0.01026445 0.00896499 0.04866169 0.001305047 0.00585981 0.04539104 0.0169157 0.007583957 0.04385511 0.02349928 0.01767768 0.0457259 0.0151819 0.009091074 0.04439578 0.02073505 0.01967402 0.04500035 0.01770054 0.02120492 0.0490743 -0.001772242 0.01940514 0.04967034 -0.004476448 0.01734378 0.04834684 0.002672226 0.007709996 0.05020043 -0.006830285 0.01487475 0.05065145 -0.008775485 0.0120592 0.04256759 0.03062558 0.006169911 0.04273986 0.02953273 0.009440601 0.04514246 0.0182636 0.005709481 0.04301683 0.02795297 0.01249711 0.04339167 0.02592509 0.01526565 0.04502094 0.01939179 -0.001036128 0.04519579 0.01872833 -0.003254015 0.04546744 0.01758126 -0.005254501 0.06173578 0.002629965 0.001666233 0.04902285 0.0001072562 -0.0008650633 0.06174958 0.002750182 -0.0006523117 0.04892711 0.0007477531 -0.00309494 0.06165384 0.003390679 -0.002882188 0.048727 0.001874034 -0.005115568 0.06145373 0.00451696 -0.004902817 0.04843329 0.003425382 -0.006817602 0.06116002 0.006068308 -0.00660485 0.04806183 0.005318134 -0.008110161 0.06078856 0.007961059 -0.00789741 0.04763265 0.007450268 -0.008923155 0.06035938 0.01009319 -0.008710404 0.04716887 0.009706839 -0.009212659 0.0598956 0.01234977 -0.008999907 0.04669551 0.01196618 -0.008963342 0.05942224 0.01460911 -0.008750591 0.04623807 0.01410655 -0.008187923 0.0589648 0.01674947 -0.007975171 0.04582124 0.01601246 -0.006929602 0.05854797 0.01865538 -0.00671685 0.04546744 0.01758126 -0.005254501 0.05819418 0.02022419 -0.005041749 0.04519579 0.01872833 -0.003254015 0.05792253 0.02137125 -0.003041264 0.04502094 0.01939179 -0.001036128 0.05774767 0.02203472 -0.0008233766 0.04495227 0.01953596 0.001280375 0.05767901 0.02217889 0.001493126 0.04499353 0.019153 0.003569791 0.05772026 0.02179593 0.003782543 0.04514246 0.0182636 0.005709481 0.05786919 0.02090652 0.005922233 0.04539104 0.0169157 0.007583957 0.05811777 0.01955863 0.007796708 0.0457259 0.0151819 0.009091074 0.05845263 0.01782482 0.009303825 0.04612894 0.01315577 0.0101513 0.05885567 0.0157987 0.01036405 0.04657846 0.01094647 0.01070607 0.05930519 0.0135894 0.01091882 0.04705022 0.008673135 0.01072622 0.05977695 0.01131606 0.01093897 0.0475188 0.0064583 0.01021036 0.06024553 0.009101226 0.01042311 0.04795891 0.004421383 0.00918642 0.06068564 0.007064309 0.009399172 0.04834684 0.002672226 0.007709996 0.06107357 0.005315152 0.007922748 0.04866169 0.001305047 0.00585981 0.06138842 0.003947972 0.006072562 0.04888647 0.0003936018 0.003736018 0.0616132 0.003036528 0.00394877 0.04900905 -1.296061e-05 0.001453482 0.01117685 0.02469903 0.002244331 0.04250419 0.03120469 0.002768027 0.01124025 0.02411991 0.005646215 0.04256759 0.03062558 0.006169911 0.01141252 0.02302706 0.008916904 0.04273986 0.02953273 0.009440601 0.01168949 0.02144731 0.01197341 0.04301683 0.02795297 0.01249711 0.01206433 0.01941943 0.01474196 0.04339167 0.02592509 0.01526565 0.01252777 0.01699362 0.01715398 0.04385511 0.02349928 0.01767768 0.01306844 0.01422939 0.01915032 0.04439578 0.02073505 0.01967402 0.01367302 0.01119488 0.02068123 0.04500035 0.01770054 0.02120492 0.0143266 0.007964827 0.02170953 0.04565394 0.01447049 0.02223323 0.01501311 0.004618747 0.02220976 0.04634045 0.01112441 0.02273346 0.01571565 0.001239016 0.02216928 0.04704299 0.00774468 0.02269298 0.0164169 -0.002091118 0.0215894 0.04774424 0.004414546 0.0221131 0.0170996 -0.005289662 0.02048456 0.04842694 0.001216001 0.02100826 0.01774696 -0.008277905 0.01888144 0.0490743 -0.001772242 0.01940514 0.018343 -0.01098211 0.01682008 0.04967034 -0.004476448 0.01734378 0.01887309 -0.01333595 0.01435106 0.05020043 -0.006830285 0.01487475 0.01932411 -0.01528115 0.0115355 0.05065145 -0.008775485 0.0120592 0.01968504 -0.01677011 0.008441293 0.05101238 -0.01026445 0.00896499 0.01994692 -0.01776596 0.005147068 0.05127426 -0.0112603 0.005670764 0.04840708 -0.03020122 -0.01915982 0.04911986 -0.02990432 -0.01696999 0.03952621 -0.03173928 -0.01482869 0.049316 -0.02970626 -0.01466503 0.04898348 -0.02961798 -0.01236891 0.04367546 -0.03150408 -0.02392412 0.04560989 -0.03102322 -0.02273396 0.04721527 -0.03058108 -0.02111611 0.03700178 -0.03291714 -0.02443294 0.03925262 -0.03247721 -0.02479756 0.04151693 -0.03199778 -0.02462496 0.03150932 -0.03377903 -0.02044741 0.03302355 -0.03358596 -0.02219777 0.03488742 -0.03329352 -0.02355101 0.02976865 -0.03368639 -0.01383298 0.02983731 -0.03383055 -0.01614948 0.0304279 -0.0338621 -0.01839537 0.03259338 -0.03268278 -0.007685205 0.03118434 -0.0330967 -0.009483429 0.0302256 -0.03343737 -0.01157057 0.03866221 -0.03123758 -0.004878829 0.0364352 -0.03172755 -0.005318302 0.03437523 -0.03221811 -0.006271016 0.04513548 -0.03002716 -0.006728941 0.04313242 -0.03036391 -0.0056036 0.0409345 -0.03077491 -0.00497559 0.04814165 -0.02964392 -0.01020507 0.04683511 -0.02978289 -0.008290544 0.04608712 -0.01407193 -0.01573373 0.04911986 -0.02990432 -0.01696999 0.04589099 -0.01426999 -0.01803869 0.04840708 -0.03020122 -0.01915982 0.0451782 -0.01456689 -0.02022852 0.04721527 -0.03058108 -0.02111611 0.04398639 -0.01494675 -0.02218481 0.04560989 -0.03102322 -0.02273396 0.04238101 -0.01538889 -0.02380266 0.04367546 -0.03150408 -0.02392412 0.04044659 -0.01586975 -0.02499282 0.04151693 -0.03199778 -0.02462496 0.03828805 -0.01636345 -0.02569366 0.03925262 -0.03247721 -0.02479756 0.03602375 -0.01684288 -0.02586626 0.03700178 -0.03291714 -0.02443294 0.03377291 -0.01728281 -0.02550164 0.03488742 -0.03329352 -0.02355101 0.03165855 -0.01765919 -0.02461971 0.03302355 -0.03358596 -0.02219777 0.02979467 -0.01795163 -0.02326647 0.03150932 -0.03377903 -0.02044741 0.02828045 -0.0181447 -0.02151611 0.0304279 -0.0338621 -0.01839537 0.02719902 -0.01822778 -0.01946407 0.02983731 -0.03383055 -0.01614948 0.02660844 -0.01819623 -0.01721818 0.02976865 -0.03368639 -0.01383298 0.02653978 -0.01805206 -0.01490168 0.0302256 -0.03343737 -0.01157057 0.02699673 -0.01780304 -0.01263927 0.03118434 -0.0330967 -0.009483429 0.02795547 -0.01746237 -0.01055213 0.03259338 -0.03268278 -0.007685205 0.02936451 -0.01704845 -0.008753905 0.03437523 -0.03221811 -0.006271016 0.03114635 -0.01658378 -0.007339716 0.0364352 -0.03172755 -0.005318302 0.03320633 -0.01609322 -0.006387002 0.03866221 -0.03123758 -0.004878829 0.03543334 -0.01560325 -0.005947529 0.0409345 -0.03077491 -0.00497559 0.03770563 -0.01514058 -0.00604429 0.04313242 -0.03036391 -0.0056036 0.03990355 -0.01472958 -0.0066723 0.04513548 -0.03002716 -0.006728941 0.04190661 -0.01439283 -0.007797641 0.04683511 -0.02978289 -0.008290544 0.04360623 -0.01414856 -0.009359244 0.04814165 -0.02964392 -0.01020507 0.04491278 -0.01400959 -0.01127377 0.04898348 -0.02961798 -0.01236891 0.04575461 -0.01398365 -0.01343761 0.049316 -0.02970626 -0.01466503 0.02997924 0.05829918 -0.01621651 0.03082107 0.05832513 -0.01838035 0.02136379 0.05620383 -0.02084012 0.03115358 0.05823685 -0.02067647 0.03095745 0.05803878 -0.02298143 0.02497001 0.05757919 -0.01161504 0.02697307 0.05791595 -0.01274038 0.02867269 0.05816022 -0.01430198 0.01827279 0.05621555 -0.01132974 0.0204998 0.05670552 -0.01089027 0.02277209 0.05716819 -0.01098703 0.01302193 0.05484641 -0.01549487 0.01443097 0.05526033 -0.01369664 0.01621281 0.05572499 -0.01228245 0.0116749 0.05411255 -0.02216092 0.01160624 0.05425671 -0.01984441 0.01206319 0.05450574 -0.01758201 0.01486113 0.05435715 -0.0282092 0.01334691 0.05416407 -0.02645885 0.01226548 0.054081 -0.02440681 0.02109021 0.05546589 -0.030809 0.01883937 0.05502596 -0.03044438 0.01672501 0.05464958 -0.02956245 0.02744747 0.05691988 -0.0287454 0.02551305 0.05643902 -0.02993556 0.02335451 0.05594533 -0.0306364 0.03024466 0.05774189 -0.02517126 0.02905285 0.05736202 -0.02712755 0.01768171 -0.006518624 0.0009297856 0.004968778 -0.009041333 -0.001601511 0.01769551 -0.006398407 -0.001388759 0.004873044 -0.008400836 -0.003831387 0.01759977 -0.00575791 -0.003618636 0.004672931 -0.007274555 -0.005852016 0.01739966 -0.004631629 -0.005639265 0.004379219 -0.005723207 -0.007554049 0.01710595 -0.003080281 -0.007341298 0.004007764 -0.003830456 -0.008846609 0.0167345 -0.00118753 -0.008633858 0.003578581 -0.001698321 -0.009659603 0.01630531 0.0009446045 -0.009446852 0.003114804 0.0005582501 -0.009949107 0.01584154 0.003201176 -0.009736355 0.002641444 0.002817595 -0.00969979 0.01536818 0.005460521 -0.009487039 0.002183998 0.00495796 -0.00892437 0.01491073 0.007600886 -0.008711619 0.001767168 0.006863868 -0.00766605 0.0144939 0.009506794 -0.007453298 0.001413376 0.008432672 -0.005990948 0.01414011 0.0110756 -0.005778197 0.001141726 0.009579737 -0.003990463 0.01386846 0.01222266 -0.003777712 0.0009668696 0.0102432 -0.001772576 0.0136936 0.01288613 -0.001559824 0.0008982063 0.01038737 0.000543927 0.01362494 0.0130303 0.0007566786 0.0009394621 0.01000441 0.002833344 0.01366619 0.01264734 0.003046095 0.001088393 0.009115009 0.004973034 0.01381512 0.01175793 0.005185785 0.001336972 0.007767111 0.006847509 0.0140637 0.01041004 0.007060261 0.001671832 0.006033308 0.008354626 0.01439856 0.008676234 0.008567377 0.002074868 0.004007183 0.00941485 0.0148016 0.006650109 0.009627602 0.002524394 0.00179788 0.009969625 0.01525112 0.004440806 0.01018238 0.002996154 -0.0004754544 0.009989768 0.01572289 0.002167471 0.01020252 0.003464727 -0.002690289 0.009473916 0.01619146 -4.736303e-05 0.009686667 0.003904845 -0.004727206 0.008449972 0.01663158 -0.002084281 0.008662724 0.004292769 -0.006476364 0.006973548 0.0170195 -0.003833438 0.0071863 0.004607617 -0.007843543 0.005123363 0.01733435 -0.005200617 0.005336114 0.004832397 -0.008754988 0.002999571 0.01755913 -0.006112062 0.003212322 0.004954984 -0.00916155 0.0007170341 0.01228852 0.0225149 -0.03712239 0.01536818 0.005460521 -0.009487039 0.01491073 0.007600886 -0.008711619 0.01525112 0.004440806 0.01018238 0.0143266 0.007964827 0.02170953 0.0148016 0.006650109 0.009627602 0.01367302 0.01119488 0.02068123 0.01439856 0.008676234 0.008567377 0.01619146 -4.736303e-05 0.009686667 0.0164169 -0.002091118 0.0215894 0.01572289 0.002167471 0.01020252 0.01571565 0.001239016 0.02216928 0.01501311 0.004618747 0.02220976 0.01739966 -0.004631629 -0.005639265 0.01710595 -0.003080281 -0.007341298 0.02116792 -0.02047951 -0.03418346 0.0167345 -0.00118753 -0.008633858 0.01630531 0.0009446045 -0.009446852 0.01584154 0.003201176 -0.009736355 0.01755913 -0.006112062 0.003212322 0.01768171 -0.006518624 0.0009297856 0.02010337 -0.01824437 0.001731311 0.01769551 -0.006398407 -0.001388759 0.01759977 -0.00575791 -0.003618636 0.01994692 -0.01776596 0.005147068 0.01968504 -0.01677011 0.008441293 0.01733435 -0.005200617 0.005336114 0.01932411 -0.01528115 0.0115355 0.0170195 -0.003833438 0.0071863 0.0144939 0.009506794 -0.007453298 0.01414011 0.0110756 -0.005778197 0.01122397 0.02475003 -0.001207614 0.01887309 -0.01333595 0.01435106 0.018343 -0.01098211 0.01682008 0.01663158 -0.002084281 0.008662724 0.01774696 -0.008277905 0.01888144 0.0170996 -0.005289662 0.02048456 0.01306844 0.01422939 0.01915032 0.01252777 0.01699362 0.01715398 0.0140637 0.01041004 0.007060261 0.01206433 0.01941943 0.01474196 0.01381512 0.01175793 0.005185785 0.01386846 0.01222266 -0.003777712 0.0136936 0.01288613 -0.001559824 0.01117685 0.02469903 0.002244331 0.01362494 0.0130303 0.0007566786 0.01124025 0.02411991 0.005646215 0.01366619 0.01264734 0.003046095 0.01141252 0.02302706 0.008916904 0.01168949 0.02144731 0.01197341 0.03115358 0.05823685 -0.02067647 0.03701159 0.02872441 -0.02097762 0.03095745 0.05803878 -0.02298143 0.0362988 0.02842752 -0.02316744 0.03024466 0.05774189 -0.02517126 0.03510699 0.02804766 -0.02512373 0.02905285 0.05736202 -0.02712755 0.03350161 0.02760552 -0.02674159 0.02744747 0.05691988 -0.0287454 0.03156719 0.02712465 -0.02793175 0.02551305 0.05643902 -0.02993556 0.02940865 0.02663096 -0.02863259 0.02335451 0.05594533 -0.0306364 0.02714435 0.02615153 -0.02880519 0.02109021 0.05546589 -0.030809 0.0248935 0.02571159 -0.02844057 0.01883937 0.05502596 -0.03044438 0.02277915 0.02533521 -0.02755863 0.01672501 0.05464958 -0.02956245 0.02091527 0.02504278 -0.02620539 0.01486113 0.05435715 -0.0282092 0.01940105 0.0248497 -0.02445504 0.01334691 0.05416407 -0.02645885 0.01831962 0.02476663 -0.022403 0.01226548 0.054081 -0.02440681 0.01772904 0.02479818 -0.02015711 0.0116749 0.05411255 -0.02216092 0.01766038 0.02494235 -0.0178406 0.01160624 0.05425671 -0.01984441 0.01811733 0.02519137 -0.01557819 0.01206319 0.05450574 -0.01758201 0.01907607 0.02553204 -0.01349105 0.01302193 0.05484641 -0.01549487 0.02048511 0.02594596 -0.01169283 0.01443097 0.05526033 -0.01369664 0.02226695 0.02641062 -0.01027864 0.01621281 0.05572499 -0.01228245 0.02432693 0.02690118 -0.009325928 0.01827279 0.05621555 -0.01132974 0.02655394 0.02739116 -0.008886454 0.0204998 0.05670552 -0.01089027 0.02882622 0.02785382 -0.008983215 0.02277209 0.05716819 -0.01098703 0.03102415 0.02826482 -0.009611225 0.02497001 0.05757919 -0.01161504 0.03302721 0.02860158 -0.01073657 0.02697307 0.05791595 -0.01274038 0.03472683 0.02884585 -0.01229817 0.02867269 0.05816022 -0.01430198 0.03603337 0.02898481 -0.01421269 0.02997924 0.05829918 -0.01621651 0.03687521 0.02901076 -0.01637653 0.03082107 0.05832513 -0.01838035 0.03720772 0.02892248 -0.01867266</float_array>
          <technique_common>
            <accessor count="532" source="#verts-array-array" stride="3">
              <param type="float" name="X"/>
              <param type="float" name="Y"/>
              <param type="float" name="Z"/>
            </accessor>
          </technique_common>
        </source>
        <source id="normals-array">
          <float_array count="1596" id="normals-array-array">0.2018046 -0.9771456 0.06679375 0.2018046 -0.9771456 0.06679375 0.2018046 -0.9771456 0.06679375 0.2018046 -0.9771456 0.06679375 0.2018046 -0.9771456 0.06679375 0.200488 -0.9739546 0.1059104 0.2018046 -0.9771456 0.06679375 0.200488 -0.9739546 0.1059104 0.2018046 -0.9771456 0.06679375 0.2018046 -0.9771456 0.06679375 0.2018046 -0.9771456 0.06679375 0.2018046 -0.9771456 0.06679375 0.2018046 -0.9771456 0.06679375 0.2018046 -0.9771456 0.06679375 0.2018046 -0.9771456 0.06679375 0.2018046 -0.9771456 0.06679375 0.2018046 -0.9771456 0.06679375 0.2018046 -0.9771456 0.06679375 0.2018046 -0.9771456 0.06679375 0.2018046 -0.9771456 0.06679375 0.2018046 -0.9771456 0.06679375 0.2018046 -0.9771456 0.06679375 0.2018046 -0.9771456 0.06679375 0.2018046 -0.9771456 0.06679375 0.2018046 -0.9771456 0.06679375 0.2018046 -0.9771456 0.06679375 0.2018046 -0.9771456 0.06679375 0.2018046 -0.9771456 0.06679375 0.2018046 -0.9771456 0.06679375 0.2018046 -0.9771456 0.06679375 0.2018046 -0.9771456 0.06679375 -0.20281 0.9788298 -0.02757413 -0.2018046 0.9771456 -0.06679375 -0.2018046 0.9771456 -0.06679375 -0.2018046 0.9771456 -0.06679375 -0.20281 0.9788298 -0.02757413 -0.2018046 0.9771456 -0.06679375 -0.2018046 0.9771456 -0.06679375 -0.2018046 0.9771456 -0.06679375 -0.2018046 0.9771456 -0.06679375 -0.2018046 0.9771456 -0.06679375 -0.2018046 0.9771456 -0.06679375 -0.2018046 0.9771456 -0.06679375 -0.2018046 0.9771456 -0.06679375 -0.2018046 0.9771456 -0.06679375 -0.2018046 0.9771456 -0.06679375 -0.2018046 0.9771456 -0.06679375 -0.2018046 0.9771456 -0.06679375 -0.2018046 0.9771456 -0.06679375 -0.2018046 0.9771456 -0.06679375 -0.2018046 0.9771456 -0.06679375 -0.2018046 0.9771456 -0.06679375 -0.2018046 0.9771456 -0.06679375 -0.2018046 0.9771456 -0.06679375 -0.2018046 0.9771456 -0.06679375 -0.2018046 0.9771456 -0.06679375 -0.2018046 0.9771456 -0.06679375 -0.2018046 0.9771456 -0.06679375 -0.2018046 0.9771456 -0.06679375 -0.2018046 0.9771456 -0.06679375 -0.2018046 0.9771456 -0.06679375 -0.2018046 0.9771456 -0.06679375 0.02957078 -0.06208707 -0.9976326 0.02957078 -0.06208707 -0.9976326 0.02957078 -0.06208707 -0.9976326 0.02957078 -0.06208707 -0.9976326 0.9789793 0.203302 0.0163655 0.9789793 0.203302 0.0163655 0.9789793 0.203302 0.0163655 0.9789793 0.203302 0.0163655 0.9789793 0.203302 0.0163655 0.9789793 0.203302 0.0163655 0.9789793 0.203302 0.0163655 0.9789793 0.203302 0.0163655 0.9789793 0.203302 0.0163655 0.9789793 0.203302 0.0163655 0.9789793 0.203302 0.0163655 0.9789793 0.203302 0.0163655 0.9789793 0.203302 0.0163655 0.9789793 0.203302 0.0163655 0.9789793 0.203302 0.0163655 0.9789793 0.203302 0.0163655 0.9789793 0.203302 0.0163655 0.9789793 0.203302 0.0163655 0.9789793 0.203302 0.0163655 0.9789793 0.203302 0.0163655 0.9789793 0.203302 0.0163655 0.9789793 0.203302 0.0163655 0.9789793 0.203302 0.0163655 0.9789793 0.203302 0.0163655 0.9789793 0.203302 0.0163655 0.9789793 0.203302 0.0163655 0.9789793 0.203302 0.0163655 0.9789793 0.203302 0.0163655 -0.9789793 -0.203302 -0.0163655 -0.9789793 -0.203302 -0.0163655 -0.9789793 -0.203302 -0.0163655 -0.9789793 -0.203302 -0.0163655 -0.9789793 -0.203302 -0.0163655 -0.9789793 -0.203302 -0.0163655 -0.9789793 -0.203302 -0.0163655 -0.9789793 -0.203302 -0.0163655 -0.9789793 -0.203302 -0.0163655 -0.9789793 -0.203302 -0.0163655 -0.9789793 -0.203302 -0.0163655 -0.9789793 -0.203302 -0.0163655 -0.9789793 -0.203302 -0.0163655 -0.9789793 -0.203302 -0.0163655 -0.9789793 -0.203302 -0.0163655 -0.9789793 -0.203302 -0.0163655 -0.9789793 -0.203302 -0.0163655 -0.9789793 -0.203302 -0.0163655 -0.9789793 -0.203302 -0.0163655 -0.9789793 -0.203302 -0.0163655 -0.9789793 -0.203302 -0.0163655 -0.9789793 -0.203302 -0.0163655 -0.9789793 -0.203302 -0.0163655 -0.9789793 -0.203302 -0.0163655 -0.9789793 -0.203302 -0.0163655 -0.9789793 -0.203302 -0.0163655 -0.9789793 -0.203302 -0.0163655 -0.9789793 -0.203302 -0.0163655 0.9789793 0.203302 0.0163655 0.9789793 0.203302 0.0163655 0.9789793 0.203302 0.0163655 0.9789793 0.203302 0.0163655 0.9789793 0.203302 0.0163655 0.9789793 0.203302 0.0163655 0.9789793 0.203302 0.0163655 0.9789793 0.203302 0.0163655 0.9789793 0.203302 0.0163655 0.9789793 0.203302 0.0163655 0.9789793 0.203302 0.0163655 0.9789793 0.203302 0.0163655 0.9789793 0.203302 0.0163655 0.9789793 0.203302 0.0163655 0.9789793 0.203302 0.0163655 0.9789793 0.203302 0.0163655 0.9789793 0.203302 0.0163655 0.9789793 0.203302 0.0163655 0.9789793 0.203302 0.0163655 0.9789793 0.203302 0.0163655 0.9789793 0.203302 0.0163655 0.9789793 0.203302 0.0163655 0.9789793 0.203302 0.0163655 0.9789793 0.203302 0.0163655 0.9789793 0.203302 0.0163655 0.9789793 0.203302 0.0163655 0.9789793 0.203302 0.0163655 0.9789793 0.203302 0.0163655 0.9789793 0.203302 0.0163655 0.9789793 0.203302 0.0163655 0.9789793 0.203302 0.0163655 0.9789793 0.203302 0.0163655 0.9789793 0.203302 0.0163655 0.9789793 0.203302 0.0163655 0.9789793 0.203302 0.0163655 0.9789793 0.203302 0.0163655 0.9789793 0.203302 0.0163655 0.9789793 0.203302 0.0163655 0.9789793 0.203302 0.0163655 0.9789793 0.203302 0.0163655 0.9789793 0.203302 0.0163655 0.9789793 0.203302 0.0163655 0.9789793 0.203302 0.0163655 0.9789793 0.203302 0.0163655 0.9789793 0.203302 0.0163655 0.9789793 0.203302 0.0163655 0.9789793 0.203302 0.0163655 0.9789793 0.203302 0.0163655 0.9789793 0.203302 0.0163655 0.9789793 0.203302 0.0163655 0.2018046 -0.9771456 0.06679375 0.2031846 -0.9651263 -0.1650676 0.2031846 -0.9651263 -0.1650676 0.1936121 -0.9010834 -0.3880246 0.1936121 -0.9010834 -0.3880246 0.1735945 -0.7884212 -0.590133 0.1735945 -0.7884212 -0.590133 0.1442228 -0.6332814 -0.7603647 0.1442228 -0.6332814 -0.7603647 0.1070883 -0.4440631 -0.889573 0.1070883 -0.4440631 -0.889573 0.06416766 -0.2308387 -0.9708738 0.06416766 -0.2308387 -0.9708738 0.01779471 -0.005203878 -0.9998281 0.01779471 -0.005203878 -0.9998281 -0.02955603 0.2207996 -0.9748713 -0.02955603 0.2207996 -0.9748713 -0.07528963 0.434787 -0.8973805 -0.07528963 0.434787 -0.8973805 -0.1169709 0.6253668 -0.7715142 -0.1169709 0.6253668 -0.7715142 -0.152364 0.7823109 -0.6039659 -0.152364 0.7823109 -0.6039659 -0.1795203 0.8969809 -0.4039775 -0.1795203 0.8969809 -0.4039775 -0.1970065 0.9633285 -0.182172 -0.1970065 0.9633285 -0.182172 -0.2038731 0.9777457 0.04948792 -0.2038731 0.9777457 0.04948792 -0.199748 0.9394511 0.2784463 -0.199748 0.9394511 0.2784463 -0.1848598 0.8505395 0.4923508 -0.1848598 0.8505395 0.4923508 -0.1599906 0.7156913 0.6798448 -0.1599906 0.7156913 0.6798448 -0.1265083 0.5423262 0.8305889 -0.1265083 0.5423262 0.8305889 -0.0862125 0.339756 0.9365539 -0.0862125 0.339756 0.9365539 -0.04124693 0.1187605 0.9920658 -0.04124693 0.1187605 0.9920658 0.005924754 -0.1085514 0.9940732 0.005924754 -0.1085514 0.9940732 0.05278426 -0.3300459 0.9424879 0.05278426 -0.3300459 0.9424879 0.0967825 -0.5336754 0.8401332 0.0967825 -0.5336754 0.8401332 0.1355771 -0.7085996 0.6924633 0.1355771 -0.7085996 0.6924633 0.1670708 -0.8453569 0.5074042 0.1670708 -0.8453569 0.5074042 0.1895461 -0.9364908 0.2950546 0.1895461 -0.9364908 0.2950546 0.2018046 -0.9771456 0.06679375 -0.2039459 0.9748252 0.09012141 -0.2039459 0.9748252 0.09012141 -0.2010656 0.9485078 0.2447562 -0.2010656 0.9485078 0.2447562 -0.1932343 0.8988317 0.3933982 -0.1932343 0.8988317 0.3933982 -0.1806405 0.8269986 0.5323931 -0.1806405 0.8269986 0.5323931 -0.1636058 0.7348413 0.6582107 -0.1636058 0.7348413 0.6582107 -0.1425455 0.6246044 0.7678216 -0.1425455 0.6246044 0.7678216 -0.1179673 0.4989457 0.8585667 -0.1179673 0.4989457 0.8585667 -0.09048467 0.3610036 0.9281643 -0.09048467 0.3610036 0.9281643 -0.06078272 0.2142153 0.9748935 -0.06078272 0.2142153 0.9748935 -0.02957078 0.06208707 0.9976326 -0.02957078 0.06208707 0.9976326 0.002369606 -0.09157065 0.9957958 0.002369606 -0.09157065 0.9957958 0.03423771 -0.242907 0.9694452 0.03423771 -0.242907 0.9694452 0.06527212 -0.3883065 0.9192158 0.06527212 -0.3883065 0.9192158 0.09470005 -0.5241477 0.8463457 0.09470005 -0.5241477 0.8463457 0.1217859 -0.647036 0.7526703 0.1217859 -0.647036 0.7526703 0.1458759 -0.7540065 0.6404642 0.1458759 -0.7540065 0.6404642 0.1663849 -0.8424583 0.5124258 0.1663849 -0.8424583 0.5124258 0.1827901 -0.9101364 0.3718057 0.1827901 -0.9101364 0.3718057 0.1946924 -0.9553966 0.2220636 0.1946924 -0.9553966 0.2220636 0.2018046 -0.9771456 0.06679375 0.2018046 -0.9771456 0.06679375 0.2018046 -0.9771456 0.06679375 0.2018046 -0.9771456 0.06679375 0.2018046 -0.9771456 0.06679375 0.2018046 -0.9771456 0.06679375 0.2018046 -0.9771456 0.06679375 0.2018046 -0.9771456 0.06679375 0.2018046 -0.9771456 0.06679375 0.2018046 -0.9771456 0.06679375 0.2018046 -0.9771456 0.06679375 0.2018046 -0.9771456 0.06679375 0.2018046 -0.9771456 0.06679375 0.2018046 -0.9771456 0.06679375 0.2018046 -0.9771456 0.06679375 0.2018046 -0.9771456 0.06679375 0.2018046 -0.9771456 0.06679375 0.2018046 -0.9771456 0.06679375 0.2018046 -0.9771456 0.06679375 0.2018046 -0.9771456 0.06679375 0.2018046 -0.9771456 0.06679375 0.2018046 -0.9771456 0.06679375 0.2018046 -0.9771456 0.06679375 0.2018046 -0.9771456 0.06679375 0.2018046 -0.9771456 0.06679375 0.2018046 -0.9771456 0.06679375 0.2018046 -0.9771456 0.06679375 0.2018046 -0.9771456 0.06679375 0.9789793 0.203302 0.0163655 0.9593979 0.1834969 -0.2142068 0.9593979 0.1834969 -0.2142068 0.8881314 0.153817 -0.4330854 0.8881314 0.153817 -0.4330854 0.769083 0.1158688 -0.6285585 0.769083 0.1158688 -0.6285585 0.6083496 0.07160839 -0.7904321 0.6083496 0.07160839 -0.7904321 0.4147101 0.02346774 -0.9096509 0.4147101 0.02346774 -0.9096509 0.1991059 -0.02584381 -0.9796372 0.1991059 -0.02584381 -0.9796372 -0.02733734 -0.07378985 -0.9968991 -0.02733734 -0.07378985 -0.9968991 -0.2522712 -0.1177538 -0.9604651 -0.2522712 -0.1177538 -0.9604651 -0.4638869 -0.155421 -0.8721544 -0.4638869 -0.155421 -0.8721544 -0.6503784 -0.184685 -0.7368171 -0.6503784 -0.184685 -0.7368171 -0.8016103 -0.2039668 -0.5619773 -0.8016103 -0.2039668 -0.5619773 -0.9098459 -0.212277 -0.3565374 -0.9098459 -0.212277 -0.3565374 -0.9689457 -0.2091302 -0.1319424 -0.9689457 -0.2091302 -0.1319424 -0.9757997 -0.1947265 0.09948149 -0.9757997 -0.1947265 0.09948149 -0.9300849 -0.1698194 0.3257353 -0.9300849 -0.1698194 0.3257353 -0.8340934 -0.135713 0.5346682 -0.8340934 -0.135713 0.5346682 -0.6932967 -0.0943459 0.7144498 -0.6932967 -0.0943459 0.7144498 -0.5152695 -0.04792449 0.8556872 -0.5152695 -0.04792449 0.8556872 -0.3091151 0.001168305 0.9510239 -0.3091151 0.001168305 0.9510239 -0.08637908 0.05017467 0.9949981 -0.08637908 0.05017467 0.9949981 0.1408626 0.09644415 0.9853204 0.1408626 0.09644415 0.9853204 0.36057 0.1375275 0.9225375 0.36057 0.1375275 0.9225375 0.5609359 0.1712128 0.8099612 0.5609359 0.1712128 0.8099612 0.7309754 0.1956524 0.6537546 0.7309754 0.1956524 0.6537546 0.8615903 0.209543 0.4623354 0.8615903 0.209543 0.4623354 0.9457553 0.2121411 0.2460551 0.9457553 0.2121411 0.2460551 0.9789793 0.203302 0.0163655 -0.2018046 0.9771456 -0.06679375 -0.2018046 0.9771456 -0.06679375 -0.2018046 0.9771456 -0.06679375 -0.2018046 0.9771456 -0.06679375 -0.2018046 0.9771456 -0.06679375 -0.2018046 0.9771456 -0.06679375 -0.2018046 0.9771456 -0.06679375 -0.2018046 0.9771456 -0.06679375 -0.2018046 0.9771456 -0.06679375 -0.2018046 0.9771456 -0.06679375 -0.2018046 0.9771456 -0.06679375 -0.2018046 0.9771456 -0.06679375 -0.2018046 0.9771456 -0.06679375 -0.2018046 0.9771456 -0.06679375 -0.2018046 0.9771456 -0.06679375 -0.2018046 0.9771456 -0.06679375 -0.2018046 0.9771456 -0.06679375 -0.2018046 0.9771456 -0.06679375 -0.2018046 0.9771456 -0.06679375 -0.2018046 0.9771456 -0.06679375 -0.2018046 0.9771456 -0.06679375 -0.2018046 0.9771456 -0.06679375 -0.2018046 0.9771456 -0.06679375 -0.2018046 0.9771456 -0.06679375 -0.2018046 0.9771456 -0.06679375 -0.2018046 0.9771456 -0.06679375 -0.2018046 0.9771456 -0.06679375 -0.2018046 0.9771456 -0.06679375 0.2018046 -0.9771456 0.06679375 0.2031846 -0.9651263 -0.1650676 0.2031846 -0.9651263 -0.1650676 0.1936121 -0.9010834 -0.3880246 0.1936121 -0.9010834 -0.3880246 0.1735945 -0.7884212 -0.590133 0.1735945 -0.7884212 -0.590133 0.1442228 -0.6332814 -0.7603647 0.1442228 -0.6332814 -0.7603647 0.1070883 -0.4440631 -0.889573 0.1070883 -0.4440631 -0.889573 0.06416766 -0.2308387 -0.9708738 0.06416766 -0.2308387 -0.9708738 0.01779471 -0.005203878 -0.9998281 0.01779471 -0.005203878 -0.9998281 -0.02955603 0.2207996 -0.9748713 -0.02955603 0.2207996 -0.9748713 -0.07528963 0.434787 -0.8973805 -0.07528963 0.434787 -0.8973805 -0.1169709 0.6253668 -0.7715142 -0.1169709 0.6253668 -0.7715142 -0.152364 0.7823109 -0.6039659 -0.152364 0.7823109 -0.6039659 -0.1795203 0.8969809 -0.4039775 -0.1795203 0.8969809 -0.4039775 -0.1970065 0.9633285 -0.182172 -0.1970065 0.9633285 -0.182172 -0.2038731 0.9777457 0.04948792 -0.2038731 0.9777457 0.04948792 -0.199748 0.9394511 0.2784463 -0.199748 0.9394511 0.2784463 -0.1848598 0.8505395 0.4923508 -0.1848598 0.8505395 0.4923508 -0.1599906 0.7156913 0.6798448 -0.1599906 0.7156913 0.6798448 -0.1265083 0.5423262 0.8305889 -0.1265083 0.5423262 0.8305889 -0.0862125 0.339756 0.9365539 -0.0862125 0.339756 0.9365539 -0.04124693 0.1187605 0.9920658 -0.04124693 0.1187605 0.9920658 0.005924754 -0.1085514 0.9940732 0.005924754 -0.1085514 0.9940732 0.05278426 -0.3300459 0.9424879 0.05278426 -0.3300459 0.9424879 0.0967825 -0.5336754 0.8401332 0.0967825 -0.5336754 0.8401332 0.1355771 -0.7085996 0.6924633 0.1355771 -0.7085996 0.6924633 0.1670708 -0.8453569 0.5074042 0.1670708 -0.8453569 0.5074042 0.1895461 -0.9364908 0.2950546 0.1895461 -0.9364908 0.2950546 0.2018046 -0.9771456 0.06679375 -0.9789793 -0.203302 -0.0163655 -0.9789793 -0.203302 -0.0163655 -0.9789793 -0.203302 -0.0163655 -0.9789793 -0.203302 -0.0163655 -0.9789793 -0.203302 -0.0163655 -0.9789793 -0.203302 -0.0163655 -0.9789793 -0.203302 -0.0163655 -0.9789793 -0.203302 -0.0163655 -0.9789793 -0.203302 -0.0163655 -0.9789793 -0.203302 -0.0163655 -0.9789793 -0.203302 -0.0163655 -0.9789793 -0.203302 -0.0163655 -0.9789793 -0.203302 -0.0163655 -0.9789793 -0.203302 -0.0163655 -0.9789793 -0.203302 -0.0163655 -0.9789793 -0.203302 -0.0163655 -0.9789793 -0.203302 -0.0163655 -0.9789793 -0.203302 -0.0163655 -0.9789793 -0.203302 -0.0163655 -0.9789793 -0.203302 -0.0163655 -0.9789793 -0.203302 -0.0163655 -0.9789793 -0.203302 -0.0163655 -0.9789793 -0.203302 -0.0163655 -0.9789793 -0.203302 -0.0163655 -0.9789793 -0.203302 -0.0163655 -0.9789793 -0.203302 -0.0163655 -0.9789793 -0.203302 -0.0163655 -0.9789793 -0.203302 -0.0163655 -0.9789793 -0.203302 -0.0163655 -0.9789793 -0.203302 -0.0163655 -0.9789793 -0.203302 -0.0163655 -0.9789793 -0.203302 -0.0163655 -0.9789793 -0.203302 -0.0163655 -0.9789793 -0.203302 -0.0163655 -0.9789793 -0.203302 -0.0163655 -0.9789793 -0.203302 -0.0163655 -0.9789793 -0.203302 -0.0163655 -0.9789793 -0.203302 -0.0163655 -0.9789793 -0.203302 -0.0163655 -0.9789793 -0.203302 -0.0163655 -0.9789793 -0.203302 -0.0163655 -0.9789793 -0.203302 -0.0163655 -0.9789793 -0.203302 -0.0163655 -0.9789793 -0.203302 -0.0163655 -0.9789793 -0.203302 -0.0163655 -0.9789793 -0.203302 -0.0163655 -0.9789793 -0.203302 -0.0163655 -0.9789793 -0.203302 -0.0163655 -0.9789793 -0.203302 -0.0163655 -0.9789793 -0.203302 -0.0163655 0.9789793 0.203302 0.0163655 0.9593979 0.1834969 -0.2142068 0.9593979 0.1834969 -0.2142068 0.8881314 0.153817 -0.4330854 0.8881314 0.153817 -0.4330854 0.769083 0.1158688 -0.6285585 0.769083 0.1158688 -0.6285585 0.6083496 0.07160839 -0.7904321 0.6083496 0.07160839 -0.7904321 0.4147101 0.02346774 -0.9096509 0.4147101 0.02346774 -0.9096509 0.1991059 -0.02584381 -0.9796372 0.1991059 -0.02584381 -0.9796372 -0.02733734 -0.07378985 -0.9968991 -0.02733734 -0.07378985 -0.9968991 -0.2522712 -0.1177538 -0.9604651 -0.2522712 -0.1177538 -0.9604651 -0.4638869 -0.155421 -0.8721544 -0.4638869 -0.155421 -0.8721544 -0.6503784 -0.184685 -0.7368171 -0.6503784 -0.184685 -0.7368171 -0.8016103 -0.2039668 -0.5619773 -0.8016103 -0.2039668 -0.5619773 -0.9098459 -0.212277 -0.3565374 -0.9098459 -0.212277 -0.3565374 -0.9689457 -0.2091302 -0.1319424 -0.9689457 -0.2091302 -0.1319424 -0.9757997 -0.1947265 0.09948149 -0.9757997 -0.1947265 0.09948149 -0.9300849 -0.1698194 0.3257353 -0.9300849 -0.1698194 0.3257353 -0.8340934 -0.135713 0.5346682 -0.8340934 -0.135713 0.5346682 -0.6932967 -0.0943459 0.7144498 -0.6932967 -0.0943459 0.7144498 -0.5152695 -0.04792449 0.8556872 -0.5152695 -0.04792449 0.8556872 -0.3091151 0.001168305 0.9510239 -0.3091151 0.001168305 0.9510239 -0.08637908 0.05017467 0.9949981 -0.08637908 0.05017467 0.9949981 0.1408626 0.09644415 0.9853204 0.1408626 0.09644415 0.9853204 0.36057 0.1375275 0.9225375 0.36057 0.1375275 0.9225375 0.5609359 0.1712128 0.8099612 0.5609359 0.1712128 0.8099612 0.7309754 0.1956524 0.6537546 0.7309754 0.1956524 0.6537546 0.8615903 0.209543 0.4623354 0.8615903 0.209543 0.4623354 0.9457553 0.2121411 0.2460551 0.9457553 0.2121411 0.2460551 0.9789793 0.203302 0.0163655</float_array>
          <technique_common>
            <accessor count="532" source="#normals-array-array" stride="3">
              <param type="float" name="X"/>
              <param type="float" name="Y"/>
              <param type="float" name="Z"/>
            </accessor>
          </technique_common>
        </source>
        <vertices id="verts-array-vertices">
          <input semantic="POSITION" source="#verts-array"/>
        </vertices>
        <triangles count="528" material="material0">
          <input offset="0" semantic="VERTEX" source="#verts-array-vertices"/>
          <input offset="1" semantic="NORMAL" source="#normals-array"/>
          <p>0 0 1 1 2 2 3 3 4 4 5 5 6 6 5 5 4 4 5 5 6 6 7 7 8 8 7 7 6 6 7 7 8 8 9 9 1 1 0 0 10 10 11 11 10 10 0 0 10 10 11 11 12 12 2 2 13 13 0 0 14 14 0 0 13 13 0 0 14 14 15 15 15 15 16 16 0 0 17 17 0 0 16 16 0 0 17 17 5 5 18 18 5 5 17 17 5 5 18 18 19 19 9 9 20 20 7 7 21 21 7 7 20 20 7 7 21 21 22 22 23 23 24 24 11 11 25 25 11 11 24 24 11 11 25 25 12 12 19 19 26 26 5 5 27 27 5 5 26 26 5 5 27 27 3 3 22 22 28 28 7 7 29 29 7 7 28 28 7 7 29 29 11 11 30 30 11 11 29 29 11 11 30 30 23 23 31 31 32 32 33 33 32 32 31 31 34 34 35 35 34 34 31 31 34 34 35 35 36 36 33 33 37 37 31 31 38 38 31 31 37 37 31 31 38 38 39 39 39 39 40 40 31 31 41 41 31 31 40 40 31 31 41 41 42 42 43 43 42 42 41 41 42 42 43 43 44 44 45 45 46 46 42 42 47 47 42 42 46 46 42 42 47 47 48 48 49 49 48 48 47 47 48 48 49 49 50 50 44 44 51 51 42 42 52 52 42 42 51 51 42 42 52 52 45 45 50 50 53 53 48 48 54 54 48 48 53 53 48 48 54 54 55 55 55 55 56 56 48 48 57 57 48 48 56 56 48 48 57 57 35 35 58 58 35 35 57 57 35 35 58 58 59 59 59 59 60 60 35 35 61 61 35 35 60 60 35 35 61 61 36 36 62 62 63 63 64 64 65 65 64 64 63 63 66 66 67 67 68 68 69 69 68 68 67 67 68 68 69 69 70 70 71 71 72 72 68 68 73 73 68 68 72 72 68 68 73 73 66 66 74 74 75 75 68 68 76 76 68 68 75 75 68 68 76 76 71 71 77 77 78 78 68 68 79 79 68 68 78 78 68 68 79 79 74 74 80 80 81 81 68 68 82 82 68 68 81 81 68 68 82 82 77 77 83 83 84 84 68 68 85 85 68 68 84 84 68 68 85 85 80 80 86 86 87 87 68 68 88 88 68 68 87 87 68 68 88 88 83 83 89 89 90 90 68 68 91 91 68 68 90 90 68 68 91 91 86 86 70 70 92 92 68 68 93 93 68 68 92 92 68 68 93 93 89 89 94 94 95 95 96 96 97 97 96 96 95 95 96 96 97 97 98 98 99 99 100 100 96 96 101 101 96 96 100 100 96 96 101 101 94 94 102 102 103 103 96 96 104 104 96 96 103 103 96 96 104 104 99 99 105 105 106 106 96 96 107 107 96 96 106 106 96 96 107 107 102 102 108 108 109 109 96 96 110 110 96 96 109 109 96 96 110 110 105 105 111 111 112 112 96 96 113 113 96 96 112 112 96 96 113 113 108 108 114 114 115 115 96 96 116 116 96 96 115 115 96 96 116 116 111 111 117 117 118 118 96 96 119 119 96 96 118 118 96 96 119 119 114 114 98 98 120 120 96 96 121 121 96 96 120 120 96 96 121 121 117 117 122 122 123 123 124 124 123 123 125 125 124 124 126 126 124 124 125 125 124 124 126 126 127 127 128 128 129 129 130 130 131 131 130 130 129 129 130 130 131 131 132 132 126 126 133 133 127 127 134 134 127 127 133 133 127 127 134 134 135 135 136 136 137 137 138 138 139 139 138 138 137 137 138 138 139 139 128 128 140 140 128 128 139 139 128 128 140 140 129 129 141 141 142 142 143 143 143 143 142 142 144 144 135 135 145 145 127 127 146 146 127 127 145 145 127 127 146 146 147 147 146 146 148 148 147 147 149 149 147 147 148 148 147 147 149 149 150 150 151 151 150 150 149 149 150 150 151 151 152 152 153 153 152 152 151 151 154 154 155 155 156 156 157 157 156 156 155 155 156 156 157 157 136 136 158 158 136 136 157 157 136 136 158 158 137 137 131 131 159 159 132 132 160 160 132 132 159 159 132 132 160 160 161 161 162 162 161 161 160 160 161 161 162 162 153 153 163 163 153 153 162 162 153 153 163 163 152 152 143 143 164 164 141 141 165 165 141 141 164 164 141 141 165 165 166 166 167 167 166 166 165 165 166 166 167 167 154 154 168 168 154 154 167 167 154 154 168 168 155 155 142 142 169 169 144 144 170 170 144 144 169 169 144 144 170 170 124 124 171 171 124 124 170 170 124 124 171 171 122 122 172 172 173 173 174 174 175 175 174 174 173 173 174 174 175 175 176 176 177 177 176 176 175 175 176 176 177 177 178 178 179 179 178 178 177 177 178 178 179 179 180 180 181 181 180 180 179 179 180 180 181 181 182 182 183 183 182 182 181 181 182 182 183 183 184 184 185 185 184 184 183 183 184 184 185 185 186 186 187 187 186 186 185 185 186 186 187 187 188 188 189 189 188 188 187 187 188 188 189 189 190 190 191 191 190 190 189 189 190 190 191 191 192 192 193 193 192 192 191 191 192 192 193 193 194 194 195 195 194 194 193 193 194 194 195 195 196 196 197 197 196 196 195 195 196 196 197 197 198 198 199 199 198 198 197 197 198 198 199 199 200 200 201 201 200 200 199 199 200 200 201 201 202 202 203 203 202 202 201 201 202 202 203 203 204 204 205 205 204 204 203 203 204 204 205 205 206 206 207 207 206 206 205 205 206 206 207 207 208 208 209 209 208 208 207 207 208 208 209 209 210 210 211 211 210 210 209 209 210 210 211 211 212 212 213 213 212 212 211 211 212 212 213 213 214 214 215 215 214 214 213 213 214 214 215 215 216 216 217 217 216 216 215 215 216 216 217 217 218 218 219 219 218 218 217 217 218 218 219 219 220 220 221 221 220 220 219 219 220 220 221 221 222 222 223 223 222 222 221 221 222 222 223 223 224 224 225 225 224 224 223 223 224 224 225 225 172 172 173 173 172 172 225 225 35 35 31 31 226 226 35 35 226 226 227 227 228 228 227 227 226 226 227 227 228 228 229 229 230 230 229 229 228 228 229 229 230 230 231 231 232 232 231 231 230 230 231 231 232 232 233 233 234 234 233 233 232 232 233 233 234 234 235 235 236 236 235 235 234 234 235 235 236 236 237 237 238 238 237 237 236 236 237 237 238 238 239 239 240 240 239 239 238 238 239 239 240 240 241 241 242 242 241 241 240 240 241 241 242 242 243 243 244 244 243 243 242 242 243 243 244 244 245 245 246 246 245 245 244 244 245 245 246 246 247 247 248 248 247 247 246 246 247 247 248 248 249 249 250 250 249 249 248 248 249 249 250 250 251 251 252 252 251 251 250 250 251 251 252 252 253 253 254 254 253 253 252 252 253 253 254 254 255 255 256 256 255 255 254 254 255 255 256 256 257 257 258 258 257 257 256 256 257 257 258 258 259 259 260 260 259 259 258 258 259 259 260 260 261 261 262 262 261 261 260 260 261 261 262 262 263 263 5 5 263 263 262 262 263 263 5 5 7 7 264 264 265 265 266 266 267 267 266 266 265 265 266 266 267 267 268 268 269 269 270 270 266 266 271 271 266 266 270 270 266 266 271 271 264 264 272 272 273 273 266 266 274 274 266 266 273 273 266 266 274 274 269 269 275 275 276 276 266 266 277 277 266 266 276 276 266 266 277 277 272 272 278 278 279 279 266 266 280 280 266 266 279 279 266 266 280 280 275 275 281 281 282 282 266 266 283 283 266 266 282 282 266 266 283 283 278 278 284 284 285 285 266 266 286 286 266 266 285 285 266 266 286 286 281 281 287 287 288 288 266 266 289 289 266 266 288 288 266 266 289 289 284 284 268 268 290 290 266 266 291 291 266 266 290 290 266 266 291 291 287 287 292 292 293 293 294 294 295 295 294 294 293 293 294 294 295 295 296 296 297 297 296 296 295 295 296 296 297 297 298 298 299 299 298 298 297 297 298 298 299 299 300 300 301 301 300 300 299 299 300 300 301 301 302 302 303 303 302 302 301 301 302 302 303 303 304 304 305 305 304 304 303 303 304 304 305 305 306 306 307 307 306 306 305 305 306 306 307 307 308 308 309 309 308 308 307 307 308 308 309 309 310 310 311 311 310 310 309 309 310 310 311 311 312 312 313 313 312 312 311 311 312 312 313 313 314 314 315 315 314 314 313 313 314 314 315 315 316 316 317 317 316 316 315 315 316 316 317 317 318 318 319 319 318 318 317 317 318 318 319 319 320 320 321 321 320 320 319 319 320 320 321 321 322 322 323 323 322 322 321 321 322 322 323 323 324 324 325 325 324 324 323 323 324 324 325 325 326 326 327 327 326 326 325 325 326 326 327 327 328 328 329 329 328 328 327 327 328 328 329 329 330 330 331 331 330 330 329 329 330 330 331 331 332 332 333 333 332 332 331 331 332 332 333 333 334 334 335 335 334 334 333 333 334 334 335 335 336 336 337 337 336 336 335 335 336 336 337 337 338 338 339 339 338 338 337 337 338 338 339 339 340 340 341 341 340 340 339 339 340 340 341 341 342 342 343 343 342 342 341 341 342 342 343 343 344 344 345 345 344 344 343 343 344 344 345 345 292 292 293 293 292 292 345 345 346 346 347 347 348 348 349 349 348 348 347 347 348 348 349 349 350 350 351 351 352 352 348 348 353 353 348 348 352 352 348 348 353 353 346 346 354 354 355 355 348 348 356 356 348 348 355 355 348 348 356 356 351 351 357 357 358 358 348 348 359 359 348 348 358 358 348 348 359 359 354 354 360 360 361 361 348 348 362 362 348 348 361 361 348 348 362 362 357 357 363 363 364 364 348 348 365 365 348 348 364 364 348 348 365 365 360 360 366 366 367 367 348 348 368 368 348 348 367 367 348 348 368 368 363 363 369 369 370 370 348 348 371 371 348 348 370 370 348 348 371 371 366 366 350 350 372 372 348 348 373 373 348 348 372 372 348 348 373 373 369 369 374 374 375 375 376 376 377 377 376 376 375 375 376 376 377 377 378 378 379 379 378 378 377 377 378 378 379 379 380 380 381 381 380 380 379 379 380 380 381 381 382 382 383 383 382 382 381 381 382 382 383 383 384 384 385 385 384 384 383 383 384 384 385 385 386 386 387 387 386 386 385 385 386 386 387 387 388 388 389 389 388 388 387 387 388 388 389 389 390 390 391 391 390 390 389 389 390 390 391 391 392 392 393 393 392 392 391 391 392 392 393 393 394 394 395 395 394 394 393 393 394 394 395 395 396 396 397 397 396 396 395 395 396 396 397 397 398 398 399 399 398 398 397 397 398 398 399 399 400 400 401 401 400 400 399 399 400 400 401 401 402 402 403 403 402 402 401 401 402 402 403 403 404 404 405 405 404 404 403 403 404 404 405 405 406 406 407 407 406 406 405 405 406 406 407 407 408 408 409 409 408 408 407 407 408 408 409 409 410 410 411 411 410 410 409 409 410 410 411 411 412 412 413 413 412 412 411 411 412 412 413 413 414 414 415 415 414 414 413 413 414 414 415 415 416 416 417 417 416 416 415 415 416 416 417 417 418 418 419 419 418 418 417 417 418 418 419 419 420 420 421 421 420 420 419 419 420 420 421 421 422 422 423 423 422 422 421 421 422 422 423 423 424 424 425 425 424 424 423 423 424 424 425 425 426 426 427 427 426 426 425 425 426 426 427 427 374 374 375 375 374 374 427 427 428 428 429 429 430 430 431 431 432 432 433 433 434 434 433 433 432 432 433 433 434 434 435 435 436 436 437 437 438 438 439 439 438 438 437 437 438 438 439 439 431 431 440 440 431 431 439 439 431 431 440 440 432 432 441 441 442 442 443 443 442 442 444 444 443 443 445 445 443 443 444 444 443 443 445 445 428 428 446 446 428 428 445 445 428 428 446 446 429 429 447 447 448 448 449 449 450 450 449 449 448 448 449 449 450 450 443 443 451 451 443 443 450 450 443 443 451 451 441 441 449 449 452 452 447 447 453 453 447 447 452 452 447 447 453 453 454 454 455 455 454 454 453 453 454 454 455 455 456 456 430 430 457 457 428 428 458 458 428 428 457 457 428 428 458 458 459 459 455 455 460 460 456 456 461 461 456 456 460 460 456 456 461 461 462 462 463 463 462 462 461 461 462 462 463 463 436 436 464 464 436 436 463 463 436 436 464 464 437 437 434 434 465 465 435 435 466 466 435 435 465 465 435 435 466 466 467 467 468 468 467 467 466 466 467 467 468 468 469 469 458 458 470 470 459 459 471 471 459 459 470 470 459 459 471 471 472 472 473 473 472 472 471 471 472 472 473 473 474 474 475 475 474 474 473 473 474 474 475 475 476 476 469 469 476 476 475 475 476 476 469 469 477 477 468 468 477 477 469 469 478 478 479 479 480 480 481 481 480 480 479 479 480 480 481 481 482 482 483 483 482 482 481 481 482 482 483 483 484 484 485 485 484 484 483 483 484 484 485 485 486 486 487 487 486 486 485 485 486 486 487 487 488 488 489 489 488 488 487 487 488 488 489 489 490 490 491 491 490 490 489 489 490 490 491 491 492 492 493 493 492 492 491 491 492 492 493 493 494 494 495 495 494 494 493 493 494 494 495 495 496 496 497 497 496 496 495 495 496 496 497 497 498 498 499 499 498 498 497 497 498 498 499 499 500 500 501 501 500 500 499 499 500 500 501 501 502 502 503 503 502 502 501 501 502 502 503 503 504 504 505 505 504 504 503 503 504 504 505 505 506 506 507 507 506 506 505 505 506 506 507 507 508 508 509 509 508 508 507 507 508 508 509 509 510 510 511 511 510 510 509 509 510 510 511 511 512 512 513 513 512 512 511 511 512 512 513 513 514 514 515 515 514 514 513 513 514 514 515 515 516 516 517 517 516 516 515 515 516 516 517 517 518 518 519 519 518 518 517 517 518 518 519 519 520 520 521 521 520 520 519 519 520 520 521 521 522 522 523 523 522 522 521 521 522 522 523 523 524 524 525 525 524 524 523 523 524 524 525 525 526 526 527 527 526 526 525 525 526 526 527 527 528 528 529 529 528 528 527 527 528 528 529 529 530 530 531 531 530 530 529 529 530 530 531 531 478 478 479 479 478 478 531 531</p>
        </triangles>
      </mesh>
    </geometry>
  </library_geometries>
  <library_materials>
    <material id="aa436c3f14494b48b6451f5de81c2e16" name="defaultmaterial">
      <instance_effect url="#0407a5d94cb64d16adac88ef53183eab"/>
    </material>
  </library_materials>
  <library_visual_scenes>
    <visual_scene id="scene">
      <node id="node0" name="node0">
        <instance_geometry url="#82bc88642d854d56a6f738bb2b9877a6">
          <bind_material>
            <technique_common>
              <instance_material symbol="material0" target="#aa436c3f14494b48b6451f5de81c2e16"/>
            </technique_common>
          </bind_material>
        </instance_geometry>
      </node>
    </visual_scene>
  </library_visual_scenes>
  <scene>
    <instance_visual_scene url="#scene"/>
  </scene>
</COLLADA>
