<COLLADA xmlns="http://www.collada.org/2005/11/COLLADASchema" version="1.4.1">
  <asset>
    <created>2026-09-21T21:22:56.831600</created>
    <modified>2026-09-21T21:22:56.831600</modified>
    <up_axis>Y_UP</up_axis>
  </asset>
  <library_effects>
    <effect id="0b29957ccfbf4d27b20a5262c4fbb26f" name="0b29957ccfbf4d27b20a5262c4fbb26f">
      <profile_COMMON>
        <technique sid="common">
          <phong>
            <emission>
              <color>0.0 0.0 0.0 1.0</color>
            </emission>
            <ambient>
              <color>0.0 0.0 0.0 1.0</color>
            </ambient>
            <diffuse>
              <color>0.8941176470588236 0.8941176470588236 0.8941176470588236 1.0</color>
            </diffuse>
            <specular>
              <color>0.0 0.0 0.0 1.0</color>
            </specular>
            <shininess>
              <float>0.0</float>
            </shininess>
            <reflective>
              <color>0.0 0.0 0.0 1.0</color>
            </reflective>
            <reflectivity>
              <float>0.0</float>
            </reflectivity>
            <transparent>
              <color>0.0 0.0 0.0 1.0</color>
            </transparent>
            <transparency>
              <float>1.0</float>
            </transparency>
          </phong>
        </technique>
        <extra>
          <technique profile="GOOGLEEARTH">
            <double_sided>0</double_sided>
          </technique>
        </extra>
      </profile_COMMON>
    </effect>
  </library_effects>
  <library_geometries>
    <geometry id="fc52f6b6e12c4ec299eb23dcc0b17de8" name="6d434209ee1a4e8ea40c33cc7952b466">
      <mesh>
        <source id="verts-array">
          <float_array count="594" id="verts-array-array">0.04 0.04500004 2.235713e-08 -0.04 0.04463064 0.005754022 0.04 0.04463064 0.005754022 -0.04 0.04352834 0.01141402 0.04 0.04352834 0.01141402 -0.04 0.04171134 0.01688702 0.04 0.04171134 0.01688702 -0.04 0.03920934 0.02208202 0.04 0.03920934 0.02208202 -0.04 0.03606364 0.02691502 0.04 0.03606364 0.02691502 -0.04 0.03232574 0.03130602 0.04 0.03232574 0.03130602 -0.04 0.02805704 0.03518202 0.04 0.02805704 0.03518202 -0.04 0.02332774 0.03848102 0.04 0.02332774 0.03848102 -0.04 0.01821534 0.04114902 0.04 0.01821534 0.04114902 -0.04 0.01280374 0.04314002 0.04 0.01280374 0.04314002 -0.04 0.007182026 0.04442302 0.04 0.007182026 0.04442302 -0.04 0.001442356 0.04497702 0.04 0.001442356 0.04497702 -0.04 -0.004321004 0.04479202 0.04 -0.004321004 0.04479202 -0.04 -0.01001336 0.04387202 0.04 -0.01001336 0.04387202 -0.04 -0.01554136 0.04223102 0.04 -0.01554136 0.04223102 -0.04 -0.02081416 0.03989702 0.04 -0.02081416 0.03989702 -0.04 -0.02574526 0.03690802 0.04 -0.02574526 0.03690802 -0.04 -0.03025346 0.03331202 0.04 -0.03025346 0.03331202 -0.04 -0.03426506 0.02917002 0.04 -0.03426506 0.02917002 -0.04 -0.03771396 0.02454902 0.04 -0.03771396 0.02454902 -0.04 -0.04054356 0.01952502 0.04 -0.04054356 0.01952502 -0.04 -0.04270746 0.01418002 0.04 -0.04270746 0.01418002 -0.04 -0.04417016 0.008602022 0.04 -0.04417016 0.008602022 -0.04 -0.04490746 0.002883022 0.04 -0.04490746 0.002883022 -0.04 -0.04490746 -0.002882978 0.04 -0.04490746 -0.002882978 -0.04 -0.04417016 -0.008601978 0.04 -0.04417016 -0.008601978 -0.04 -0.04270746 -0.01417998 0.04 -0.04270746 -0.01417998 -0.04 -0.04054356 -0.01952498 0.04 -0.04054356 -0.01952498 -0.04 -0.03771396 -0.02454898 0.04 -0.03771396 -0.02454898 -0.04 -0.03426506 -0.02916998 0.04 -0.03426506 -0.02916998 -0.04 -0.03025346 -0.03331298 0.04 -0.03025346 -0.03331298 -0.04 -0.02574526 -0.03690798 0.04 -0.02574526 -0.03690798 -0.04 -0.02081416 -0.03989698 0.04 -0.02081416 -0.03989698 -0.04 -0.01554136 -0.04223098 0.04 -0.01554136 -0.04223098 -0.04 -0.01001336 -0.04387198 0.04 -0.01001336 -0.04387198 -0.04 -0.004321004 -0.04479198 0.04 -0.004321004 -0.04479198 -0.04 0.001442356 -0.04497698 0.04 0.001442356 -0.04497698 -0.04 0.007182026 -0.04442298 0.04 0.007182026 -0.04442298 -0.04 0.01280374 -0.04313998 0.04 0.01280374 -0.04313998 -0.04 0.01821534 -0.04114898 0.04 0.01821534 -0.04114898 -0.04 0.02332774 -0.03848098 0.04 0.02332774 -0.03848098 -0.04 0.02805704 -0.03518198 0.04 0.02805704 -0.03518198 -0.04 0.03232574 -0.03130598 0.04 0.03232574 -0.03130598 -0.04 0.03606364 -0.02691498 0.04 0.03606364 -0.02691498 -0.04 0.03920934 -0.02208198 0.04 0.03920934 -0.02208198 -0.04 0.04171134 -0.01688698 0.04 0.04171134 -0.01688698 -0.04 0.04352834 -0.01141398 0.04 0.04352834 -0.01141398 -0.04 0.04463064 -0.005753978 0.04 0.04463064 -0.005753978 -0.04 0.04500004 2.235713e-08 0.04 0.04500004 2.235713e-08 0.04 0.04463064 0.005754022 0.04 3.577987e-08 2.235713e-08 0.04 0.04171134 -0.01688698 0.04 0.04352834 -0.01141398 0.04 0.04463064 -0.005753978 0.04 0.03232574 -0.03130598 0.04 0.03606364 -0.02691498 0.04 0.03920934 -0.02208198 0.04 0.01821534 -0.04114898 0.04 0.02332774 -0.03848098 0.04 0.02805704 -0.03518198 0.04 0.001442356 -0.04497698 0.04 0.007182026 -0.04442298 0.04 0.01280374 -0.04313998 0.04 -0.01554136 -0.04223098 0.04 -0.01001336 -0.04387198 0.04 -0.004321004 -0.04479198 0.04 -0.03025346 -0.03331298 0.04 -0.02574526 -0.03690798 0.04 -0.02081416 -0.03989698 0.04 -0.04054356 -0.01952498 0.04 -0.03771396 -0.02454898 0.04 -0.03426506 -0.02916998 0.04 -0.04490746 -0.002882978 0.04 -0.04417016 -0.008601978 0.04 -0.04270746 -0.01417998 0.04 -0.04270746 0.01418002 0.04 -0.04417016 0.008602022 0.04 -0.04490746 0.002883022 0.04 -0.03426506 0.02917002 0.04 -0.03771396 0.02454902 0.04 -0.04054356 0.01952502 0.04 -0.02081416 0.03989702 0.04 -0.02574526 0.03690802 0.04 -0.03025346 0.03331202 0.04 -0.004321004 0.04479202 0.04 -0.01001336 0.04387202 0.04 -0.01554136 0.04223102 0.04 0.01280374 0.04314002 0.04 0.007182026 0.04442302 0.04 0.001442356 0.04497702 0.04 0.02805704 0.03518202 0.04 0.02332774 0.03848102 0.04 0.01821534 0.04114902 0.04 0.03920934 0.02208202 0.04 0.03606364 0.02691502 0.04 0.03232574 0.03130602 0.04 0.04352834 0.01141402 0.04 0.04171134 0.01688702 -0.04 0.04500004 2.235713e-08 -0.04 0.04463064 -0.005753978 -0.04 3.577987e-08 2.235713e-08 -0.04 0.04171134 0.01688702 -0.04 0.04352834 0.01141402 -0.04 0.04463064 0.005754022 -0.04 0.03232574 0.03130602 -0.04 0.03606364 0.02691502 -0.04 0.03920934 0.02208202 -0.04 0.01821534 0.04114902 -0.04 0.02332774 0.03848102 -0.04 0.02805704 0.03518202 -0.04 0.001442356 0.04497702 -0.04 0.007182026 0.04442302 -0.04 0.01280374 0.04314002 -0.04 -0.01554136 0.04223102 -0.04 -0.01001336 0.04387202 -0.04 -0.004321004 0.04479202 -0.04 -0.03025346 0.03331202 -0.04 -0.02574526 0.03690802 -0.04 -0.02081416 0.03989702 -0.04 -0.04054356 0.01952502 -0.04 -0.03771396 0.02454902 -0.04 -0.03426506 0.02917002 -0.04 -0.04490746 0.002883022 -0.04 -0.04417016 0.008602022 -0.04 -0.04270746 0.01418002 -0.04 -0.04270746 -0.01417998 -0.04 -0.04417016 -0.008601978 -0.04 -0.04490746 -0.002882978 -0.04 -0.03426506 -0.02916998 -0.04 -0.03771396 -0.02454898 -0.04 -0.04054356 -0.01952498 -0.04 -0.02081416 -0.03989698 -0.04 -0.02574526 -0.03690798 -0.04 -0.03025346 -0.03331298 -0.04 -0.004321004 -0.04479198 -0.04 -0.01001336 -0.04387198 -0.04 -0.01554136 -0.04223098 -0.04 0.01280374 -0.04313998 -0.04 0.007182026 -0.04442298 -0.04 0.001442356 -0.04497698 -0.04 0.02805704 -0.03518198 -0.04 0.02332774 -0.03848098 -0.04 0.01821534 -0.04114898 -0.04 0.03920934 -0.02208198 -0.04 0.03606364 -0.02691498 -0.04 0.03232574 -0.03130598 -0.04 0.04352834 -0.01141398 -0.04 0.04171134 -0.01688698</float_array>
          <technique_common>
            <accessor count="198" source="#verts-array-array" stride="3">
              <param type="float" name="X"/>
              <param type="float" name="Y"/>
              <param type="float" name="Z"/>
            </accessor>
          </technique_common>
        </source>
        <source id="normals-array">
          <float_array count="594" id="normals-array-array">0 1 7.248444e-17 0 0.9917901 0.1278768 0 0.9917901 0.1278768 0 0.9672979 0.253643 0 0.9672979 0.253643 0 0.9269153 0.3752706 0 0.9269153 0.3752706 0 0.8713186 0.4907177 0 0.8713186 0.4907177 0 0.8014322 0.5980856 0 0.8014322 0.5980856 0 0.718327 0.6957057 0 0.718327 0.6957057 0 0.6234561 0.7818583 0 0.6234561 0.7818583 0 0.5184521 0.8551067 0 0.5184521 0.8551067 0 0.4048055 0.9144028 0 0.4048055 0.9144028 0 0.2844775 0.9586827 0 0.2844775 0.9586827 0 0.1596156 0.9871792 0 0.1596156 0.9871792 0 0.03206192 0.9994859 0 0.03206192 0.9994859 0 -0.0960133 0.9953801 0 -0.0960133 0.9953801 0 -0.222522 0.9749277 0 -0.222522 0.9749277 0 -0.3453816 0.9384623 0 -0.3453816 0.9384623 0 -0.4625132 0.8866124 0 -0.4625132 0.8866124 0 -0.5721469 0.8201512 0 -0.5721469 0.8201512 0 -0.6723289 0.7402526 0 -0.6723289 0.7402526 0 -0.7614269 0.6482508 0 -0.7614269 0.6482508 0 -0.8380765 0.5455527 0 -0.8380765 0.5455527 0 -0.9009662 0.4338893 0 -0.9009662 0.4338893 0 -0.9490577 0.3151025 0 -0.9490577 0.3151025 0 -0.9815609 0.1911496 0 -0.9815609 0.1911496 0 -0.9979459 0.06406306 0 -0.9979459 0.06406306 0 -0.9979459 -0.06406306 0 -0.9979459 -0.06406306 0 -0.9815609 -0.1911496 0 -0.9815609 -0.1911496 0 -0.9490577 -0.3151025 0 -0.9490577 -0.3151025 0 -0.9009662 -0.4338893 0 -0.9009662 -0.4338893 0 -0.8380765 -0.5455527 0 -0.8380765 -0.5455527 0 -0.761466 -0.6482049 0 -0.761466 -0.6482049 0 -0.6723234 -0.7402576 0 -0.6723234 -0.7402576 0 -0.5720913 -0.8201899 0 -0.5720913 -0.8201899 0 -0.4625132 -0.8866124 0 -0.4625132 -0.8866124 0 -0.3453816 -0.9384623 0 -0.3453816 -0.9384623 0 -0.222522 -0.9749277 0 -0.222522 -0.9749277 0 -0.0960133 -0.9953801 0 -0.0960133 -0.9953801 0 0.03206192 -0.9994859 0 0.03206192 -0.9994859 0 0.1596156 -0.9871792 0 0.1596156 -0.9871792 0 0.2844775 -0.9586827 0 0.2844775 -0.9586827 0 0.4048055 -0.9144028 0 0.4048055 -0.9144028 0 0.5184521 -0.8551067 0 0.5184521 -0.8551067 0 0.6234561 -0.7818583 0 0.6234561 -0.7818583 0 0.718327 -0.6957057 0 0.718327 -0.6957057 0 0.8014322 -0.5980856 0 0.8014322 -0.5980856 0 0.8713186 -0.4907177 0 0.8713186 -0.4907177 0 0.9269153 -0.3752706 0 0.9269153 -0.3752706 0 0.9672979 -0.253643 0 0.9672979 -0.253643 0 0.9917901 -0.1278768 0 0.9917901 -0.1278768 0 1 -7.082449e-17 1 0 0 1 0 0 1 0 0 1 0 0 1 0 0 1 0 0 1 0 0 1 0 0 1 0 0 1 0 0 1 0 0 1 0 0 1 0 0 1 0 0 1 0 0 1 0 0 1 0 0 1 0 0 1 0 0 1 0 0 1 0 0 1 0 0 1 0 0 1 0 0 1 0 0 1 0 0 1 0 0 1 0 0 1 0 0 1 0 0 1 0 0 1 0 0 1 0 0 1 0 0 1 0 0 1 0 0 1 0 0 1 0 0 1 0 0 1 0 0 1 0 0 1 0 0 1 0 0 1 0 0 1 0 0 1 0 0 1 0 0 1 0 0 1 0 0 1 0 0 -1 0 0 -1 0 0 -1 0 0 -1 0 0 -1 0 0 -1 0 0 -1 0 0 -1 0 0 -1 0 0 -1 0 0 -1 0 0 -1 0 0 -1 0 0 -1 0 0 -1 0 0 -1 0 0 -1 0 0 -1 0 0 -1 0 0 -1 0 0 -1 0 0 -1 0 0 -1 0 0 -1 0 0 -1 0 0 -1 0 0 -1 0 0 -1 0 0 -1 0 0 -1 0 0 -1 0 0 -1 0 0 -1 0 0 -1 0 0 -1 0 0 -1 0 0 -1 0 0 -1 0 0 -1 0 0 -1 0 0 -1 0 0 -1 0 0 -1 0 0 -1 0 0 -1 0 0 -1 0 0 -1 0 0 -1 0 0 -1 0 0 -1 0 0</float_array>
          <technique_common>
            <accessor count="198" source="#normals-array-array" stride="3">
              <param type="float" name="X"/>
              <param type="float" name="Y"/>
              <param type="float" name="Z"/>
            </accessor>
          </technique_common>
        </source>
        <vertices id="verts-array-vertices">
          <input semantic="POSITION" source="#verts-array"/>
        </vertices>
        <triangles count="196" material="material0">
          <input offset="0" semantic="VERTEX" source="#verts-array-vertices"/>
          <input offset="1" semantic="NORMAL" source="#normals-array"/>
          <p>0 0 1 1 2 2 3 3 2 2 1 1 2 2 3 3 4 4 5 5 4 4 3 3 4 4 5 5 6 6 7 7 6 6 5 5 6 6 7 7 8 8 9 9 8 8 7 7 8 8 9 9 10 10 11 11 10 10 9 9 10 10 11 11 12 12 13 13 12 12 11 11 12 12 13 13 14 14 15 15 14 14 13 13 14 14 15 15 16 16 17 17 16 16 15 15 16 16 17 17 18 18 19 19 18 18 17 17 18 18 19 19 20 20 21 21 20 20 19 19 20 20 21 21 22 22 23 23 22 22 21 21 22 22 23 23 24 24 25 25 24 24 23 23 24 24 25 25 26 26 27 27 26 26 25 25 26 26 27 27 28 28 29 29 28 28 27 27 28 28 29 29 30 30 31 31 30 30 29 29 30 30 31 31 32 32 33 33 32 32 31 31 32 32 33 33 34 34 35 35 34 34 33 33 34 34 35 35 36 36 37 37 36 36 35 35 36 36 37 37 38 38 39 39 38 38 37 37 38 38 39 39 40 40 41 41 40 40 39 39 40 40 41 41 42 42 43 43 42 42 41 41 42 42 43 43 44 44 45 45 44 44 43 43 44 44 45 45 46 46 47 47 46 46 45 45 46 46 47 47 48 48 49 49 48 48 47 47 48 48 49 49 50 50 51 51 50 50 49 49 50 50 51 51 52 52 53 53 52 52 51 51 52 52 53 53 54 54 55 55 54 54 53 53 54 54 55 55 56 56 57 57 56 56 55 55 56 56 57 57 58 58 59 59 58 58 57 57 58 58 59 59 60 60 61 61 60 60 59 59 60 60 61 61 62 62 63 63 62 62 61 61 62 62 63 63 64 64 65 65 64 64 63 63 64 64 65 65 66 66 67 67 66 66 65 65 66 66 67 67 68 68 69 69 68 68 67 67 68 68 69 69 70 70 71 71 70 70 69 69 70 70 71 71 72 72 73 73 72 72 71 71 72 72 73 73 74 74 75 75 74 74 73 73 74 74 75 75 76 76 77 77 76 76 75 75 76 76 77 77 78 78 79 79 78 78 77 77 78 78 79 79 80 80 81 81 80 80 79 79 80 80 81 81 82 82 83 83 82 82 81 81 82 82 83 83 84 84 85 85 84 84 83 83 84 84 85 85 86 86 87 87 86 86 85 85 86 86 87 87 88 88 89 89 88 88 87 87 88 88 89 89 90 90 91 91 90 90 89 89 90 90 91 91 92 92 93 93 92 92 91 91 92 92 93 93 94 94 95 95 94 94 93 93 94 94 95 95 96 96 97 97 96 96 95 95 96 96 97 97 0 0 1 1 0 0 97 97 98 98 99 99 100 100 101 101 102 102 100 100 103 103 100 100 102 102 100 100 103 103 98 98 104 104 105 105 100 100 106 106 100 100 105 105 100 100 106 106 101 101 107 107 108 108 100 100 109 109 100 100 108 108 100 100 109 109 104 104 110 110 111 111 100 100 112 112 100 100 111 111 100 100 112 112 107 107 113 113 114 114 100 100 115 115 100 100 114 114 100 100 115 115 110 110 116 116 117 117 100 100 118 118 100 100 117 117 100 100 118 118 113 113 119 119 120 120 100 100 121 121 100 100 120 120 100 100 121 121 116 116 122 122 123 123 100 100 124 124 100 100 123 123 100 100 124 124 119 119 125 125 126 126 100 100 127 127 100 100 126 126 100 100 127 127 122 122 128 128 129 129 100 100 130 130 100 100 129 129 100 100 130 130 125 125 131 131 132 132 100 100 133 133 100 100 132 132 100 100 133 133 128 128 134 134 135 135 100 100 136 136 100 100 135 135 100 100 136 136 131 131 137 137 138 138 100 100 139 139 100 100 138 138 100 100 139 139 134 134 140 140 141 141 100 100 142 142 100 100 141 141 100 100 142 142 137 137 143 143 144 144 100 100 145 145 100 100 144 144 100 100 145 145 140 140 99 99 146 146 100 100 147 147 100 100 146 146 100 100 147 147 143 143 148 148 149 149 150 150 151 151 152 152 150 150 153 153 150 150 152 152 150 150 153 153 148 148 154 154 155 155 150 150 156 156 150 150 155 155 150 150 156 156 151 151 157 157 158 158 150 150 159 159 150 150 158 158 150 150 159 159 154 154 160 160 161 161 150 150 162 162 150 150 161 161 150 150 162 162 157 157 163 163 164 164 150 150 165 165 150 150 164 164 150 150 165 165 160 160 166 166 167 167 150 150 168 168 150 150 167 167 150 150 168 168 163 163 169 169 170 170 150 150 171 171 150 150 170 170 150 150 171 171 166 166 172 172 173 173 150 150 174 174 150 150 173 173 150 150 174 174 169 169 175 175 176 176 150 150 177 177 150 150 176 176 150 150 177 177 172 172 178 178 179 179 150 150 180 180 150 150 179 179 150 150 180 180 175 175 181 181 182 182 150 150 183 183 150 150 182 182 150 150 183 183 178 178 184 184 185 185 150 150 186 186 150 150 185 185 150 150 186 186 181 181 187 187 188 188 150 150 189 189 150 150 188 188 150 150 189 189 184 184 190 190 191 191 150 150 192 192 150 150 191 191 150 150 192 192 187 187 193 193 194 194 150 150 195 195 150 150 194 194 150 150 195 195 190 190 149 149 196 196 150 150 197 197 150 150 196 196 150 150 197 197 193 193</p>
        </triangles>
      </mesh>
    </geometry>
  </library_geometries>
  <library_materials>
    <material id="138484120be641c5b453eb48178eab14" name="defaultmaterial">
      <instance_effect url="#0b29957ccfbf4d27b20a5262c4fbb26f"/>
    </material>
  </library_materials>
  <library_visual_scenes>
    <visual_scene id="scene">
      <node id="node0" name="node0">
        <instance_geometry url="#fc52f6b6e12c4ec299eb23dcc0b17de8">
          <bind_material>
            <technique_common>
              <instance_material symbol="material0" target="#138484120be641c5b453eb48178eab14"/>
            </technique_common>
          </bind_material>
        </instance_geometry>
      </node>
    </visual_scene>
  </library_visual_scenes>
  <scene>
    <instance_visual_scene url="#scene"/>
  </scene>
</COLLADA>
