<COLLADA xmlns="http://www.collada.org/2005/11/COLLADASchema" version="1.4.1">
  <asset>
    <created>2026-09-21T21:22:56.714943</created>
    <modified>2026-09-21T21:22:56.714943</modified>
    <up_axis>Y_UP</up_axis>
  </asset>
  <library_effects>
    <effect id="29d957af7b0e4bce80e6c730bf8b2e71" name="29d957af7b0e4bce80e6c730bf8b2e71">
      <profile_COMMON>
        <technique sid="common">
          <phong>
            <emission>
              <color>0.0 0.0 0.0 1.0</color>
            </emission>
            <ambient>
              <color>0.0 0.0 0.0 1.0</color>
            </ambient>
            <diffuse>
              <color>0.8941176470588236 0.8941176470588236 0.8941176470588236 1.0</color>
            </diffuse>
            <specular>
              <color>0.0 0.0 0.0 1.0</color>
            </specular>
            <shininess>
              <float>0.0</float>
            </shininess>
            <reflective>
              <color>0.0 0.0 0.0 1.0</color>
            </reflective>
            <reflectivity>
              <float>0.0</float>
            </reflectivity>
            <transparent>
              <color>0.0 0.0 0.0 1.0</color>
            </transparent>
            <transparency>
              <float>1.0</float>
            </transparency>
          </phong>
        </technique>
        <extra>
          <technique profile="GOOGLEEARTH">
            <double_sided>0</double_sided>
          </technique>
        </extra>
      </profile_COMMON>
    </effect>
  </library_effects>
  <library_geometries>
    <geometry id="e035719b1c0247d5a5f9cdd67369422c" name="695938f14f2b45a4bc180603f5cc7452">
      <mesh>
        <source id="verts-array">
          <float_array count="594" id="verts-array-array">0.04 7.937282e-17 0.045 0.04 -0.00575447 0.0446306 0.04 7.241032e-17 2.183701e-09 0.04 0.016887 0.0417113 0.04 0.0114145 0.0435283 0.04 0.00575447 0.0446306 0.04 0.0313057 0.0323257 0.04 0.026915 0.0360636 0.04 0.0220823 0.0392093 0.04 0.0411486 0.0182153 0.04 0.0384814 0.0233277 0.04 0.0351824 0.028057 0.04 0.0449769 0.001442322 0.04 0.0444232 0.007181992 0.04 0.0431401 0.0128037 0.04 0.0422311 -0.0155414 0.04 0.0438718 -0.0100134 0.04 0.0447921 -0.004321038 0.04 0.0333125 -0.0302535 0.04 0.0369078 -0.0257453 0.04 0.039897 -0.0208142 0.04 0.0195248 -0.0405436 0.04 0.0245491 -0.037714 0.04 0.0291703 -0.0342651 0.04 0.00288316 -0.0449075 0.04 0.00860214 -0.0441702 0.04 0.0141799 -0.0427075 0.04 -0.0141799 -0.0427075 0.04 -0.00860214 -0.0441702 0.04 -0.00288316 -0.0449075 0.04 -0.0291703 -0.0342651 0.04 -0.0245491 -0.037714 0.04 -0.0195248 -0.0405436 0.04 -0.039897 -0.0208142 0.04 -0.0369078 -0.0257453 0.04 -0.0333125 -0.0302535 0.04 -0.0447921 -0.004321038 0.04 -0.0438718 -0.0100134 0.04 -0.0422311 -0.0155414 0.04 -0.0431401 0.0128037 0.04 -0.0444232 0.007181992 0.04 -0.0449769 0.001442322 0.04 -0.0351824 0.028057 0.04 -0.0384814 0.0233277 0.04 -0.0411486 0.0182153 0.04 -0.0220823 0.0392093 0.04 -0.026915 0.0360636 0.04 -0.0313057 0.0323257 0.04 -0.0114145 0.0435283 0.04 -0.016887 0.0417113 -0.04 -2.703233e-18 0.045 -0.04 0.00575447 0.0446306 -0.04 1.356017e-18 2.183701e-09 -0.04 -0.016887 0.0417113 -0.04 -0.0114145 0.0435283 -0.04 -0.00575447 0.0446306 -0.04 -0.0313057 0.0323257 -0.04 -0.026915 0.0360636 -0.04 -0.0220823 0.0392093 -0.04 -0.0411486 0.0182153 -0.04 -0.0384814 0.0233277 -0.04 -0.0351824 0.028057 -0.04 -0.0449769 0.001442322 -0.04 -0.0444232 0.007181992 -0.04 -0.0431401 0.0128037 -0.04 -0.0422311 -0.0155414 -0.04 -0.0438718 -0.0100134 -0.04 -0.0447921 -0.004321038 -0.04 -0.0333125 -0.0302535 -0.04 -0.0369078 -0.0257453 -0.04 -0.039897 -0.0208142 -0.04 -0.0195248 -0.0405436 -0.04 -0.0245491 -0.037714 -0.04 -0.0291703 -0.0342651 -0.04 -0.00288316 -0.0449075 -0.04 -0.00860214 -0.0441702 -0.04 -0.0141799 -0.0427075 -0.04 0.0141799 -0.0427075 -0.04 0.00860214 -0.0441702 -0.04 0.00288316 -0.0449075 -0.04 0.0291703 -0.0342651 -0.04 0.0245491 -0.037714 -0.04 0.0195248 -0.0405436 -0.04 0.039897 -0.0208142 -0.04 0.0369078 -0.0257453 -0.04 0.0333125 -0.0302535 -0.04 0.0447921 -0.004321038 -0.04 0.0438718 -0.0100134 -0.04 0.0422311 -0.0155414 -0.04 0.0431401 0.0128037 -0.04 0.0444232 0.007181992 -0.04 0.0449769 0.001442322 -0.04 0.0351824 0.028057 -0.04 0.0384814 0.0233277 -0.04 0.0411486 0.0182153 -0.04 0.0220823 0.0392093 -0.04 0.026915 0.0360636 -0.04 0.0313057 0.0323257 -0.04 0.0114145 0.0435283 -0.04 0.016887 0.0417113 0.04 6.835102e-17 0.045 -0.04 -0.00575447 0.0446306 0.04 -0.00575447 0.0446306 -0.04 -0.0114145 0.0435283 0.04 -0.0114145 0.0435283 -0.04 -0.016887 0.0417113 0.04 -0.016887 0.0417113 -0.04 -0.0220823 0.0392093 0.04 -0.0220823 0.0392093 -0.04 -0.026915 0.0360636 0.04 -0.026915 0.0360636 -0.04 -0.0313057 0.0323257 0.04 -0.0313057 0.0323257 -0.04 -0.0351824 0.028057 0.04 -0.0351824 0.028057 -0.04 -0.0384814 0.0233277 0.04 -0.0384814 0.0233277 -0.04 -0.0411486 0.0182153 0.04 -0.0411486 0.0182153 -0.04 -0.0431401 0.0128037 0.04 -0.0431401 0.0128037 -0.04 -0.0444232 0.007181992 0.04 -0.0444232 0.007181992 -0.04 -0.0449769 0.001442322 0.04 -0.0449769 0.001442322 -0.04 -0.0447921 -0.004321038 0.04 -0.0447921 -0.004321038 -0.04 -0.0438718 -0.0100134 0.04 -0.0438718 -0.0100134 -0.04 -0.0422311 -0.0155414 0.04 -0.0422311 -0.0155414 -0.04 -0.039897 -0.0208142 0.04 -0.039897 -0.0208142 -0.04 -0.0369078 -0.0257453 0.04 -0.0369078 -0.0257453 -0.04 -0.0333125 -0.0302535 0.04 -0.0333125 -0.0302535 -0.04 -0.0291703 -0.0342651 0.04 -0.0291703 -0.0342651 -0.04 -0.0245491 -0.037714 0.04 -0.0245491 -0.037714 -0.04 -0.0195248 -0.0405436 0.04 -0.0195248 -0.0405436 -0.04 -0.0141799 -0.0427075 0.04 -0.0141799 -0.0427075 -0.04 -0.00860214 -0.0441702 0.04 -0.00860214 -0.0441702 -0.04 -0.00288316 -0.0449075 0.04 -0.00288316 -0.0449075 -0.04 0.00288316 -0.0449075 0.04 0.00288316 -0.0449075 -0.04 0.00860214 -0.0441702 0.04 0.00860214 -0.0441702 -0.04 0.0141799 -0.0427075 0.04 0.0141799 -0.0427075 -0.04 0.0195248 -0.0405436 0.04 0.0195248 -0.0405436 -0.04 0.0245491 -0.037714 0.04 0.0245491 -0.037714 -0.04 0.0291703 -0.0342651 0.04 0.0291703 -0.0342651 -0.04 0.0333125 -0.0302535 0.04 0.0333125 -0.0302535 -0.04 0.0369078 -0.0257453 0.04 0.0369078 -0.0257453 -0.04 0.039897 -0.0208142 0.04 0.039897 -0.0208142 -0.04 0.0422311 -0.0155414 0.04 0.0422311 -0.0155414 -0.04 0.0438718 -0.0100134 0.04 0.0438718 -0.0100134 -0.04 0.0447921 -0.004321038 0.04 0.0447921 -0.004321038 -0.04 0.0449769 0.001442322 0.04 0.0449769 0.001442322 -0.04 0.0444232 0.007181992 0.04 0.0444232 0.007181992 -0.04 0.0431401 0.0128037 0.04 0.0431401 0.0128037 -0.04 0.0411486 0.0182153 0.04 0.0411486 0.0182153 -0.04 0.0384814 0.0233277 0.04 0.0384814 0.0233277 -0.04 0.0351824 0.028057 0.04 0.0351824 0.028057 -0.04 0.0313057 0.0323257 0.04 0.0313057 0.0323257 -0.04 0.026915 0.0360636 0.04 0.026915 0.0360636 -0.04 0.0220823 0.0392093 0.04 0.0220823 0.0392093 -0.04 0.016887 0.0417113 0.04 0.016887 0.0417113 -0.04 0.0114145 0.0435283 0.04 0.0114145 0.0435283 -0.04 0.00575447 0.0446306 0.04 0.00575447 0.0446306 -0.04 6.835102e-17 0.045</float_array>
          <technique_common>
            <accessor count="198" source="#verts-array-array" stride="3">
              <param type="float" name="X"/>
              <param type="float" name="Y"/>
              <param type="float" name="Z"/>
            </accessor>
          </technique_common>
        </source>
        <source id="normals-array">
          <float_array count="594" id="normals-array-array">1 0 0 1 0 0 1 0 0 1 0 0 1 0 0 1 0 0 1 0 0 1 0 0 1 0 0 1 0 0 1 0 0 1 0 0 1 0 0 1 0 0 1 0 0 1 0 0 1 0 0 1 0 0 1 0 0 1 0 0 1 0 0 1 0 0 1 0 0 1 0 0 1 0 0 1 0 0 1 0 0 1 0 0 1 0 0 1 0 0 1 0 0 1 0 0 1 0 0 1 0 0 1 0 0 1 0 0 1 0 0 1 0 0 1 0 0 1 0 0 1 0 0 1 0 0 1 0 0 1 0 0 1 0 0 1 0 0 1 0 0 1 0 0 1 0 0 1 0 0 -1 0 0 -1 0 0 -1 0 0 -1 0 0 -1 0 0 -1 0 0 -1 0 0 -1 0 0 -1 0 0 -1 0 0 -1 0 0 -1 0 0 -1 0 0 -1 0 0 -1 0 0 -1 0 0 -1 0 0 -1 0 0 -1 0 0 -1 0 0 -1 0 0 -1 0 0 -1 0 0 -1 0 0 -1 0 0 -1 0 0 -1 0 0 -1 0 0 -1 0 0 -1 0 0 -1 0 0 -1 0 0 -1 0 0 -1 0 0 -1 0 0 -1 0 0 -1 0 0 -1 0 0 -1 0 0 -1 0 0 -1 0 0 -1 0 0 -1 0 0 -1 0 0 -1 0 0 -1 0 0 -1 0 0 -1 0 0 -1 0 0 -1 0 0 0 7.588731e-16 1 0 -0.1278737 0.9917905 0 -0.1278737 0.9917905 0 -0.2536557 0.9672946 0 -0.2536557 0.9672946 0 -0.3752728 0.9269144 0 -0.3752728 0.9269144 0 -0.4907202 0.8713172 0 -0.4907202 0.8713172 0 -0.5981105 0.8014136 0 -0.5981105 0.8014136 0 -0.6956855 0.7183465 0 -0.6956855 0.7183465 0 -0.7818303 0.6234913 0 -0.7818303 0.6234913 0 -0.8551385 0.5183995 0 -0.8551385 0.5183995 0 -0.9144112 0.4047865 0 -0.9144112 0.4047865 0 -0.9586687 0.2845246 0 -0.9586687 0.2845246 0 -0.987182 0.1595984 0 -0.987182 0.1595984 0 -0.9994862 0.03205337 0 -0.9994862 0.03205337 0 -0.9953792 -0.09602161 0 -0.9953792 -0.09602161 0 -0.9749275 -0.2225227 0 -0.9749275 -0.2225227 0 -0.9384682 -0.3453656 0 -0.9384682 -0.3453656 0 -0.8866019 -0.4625334 0 -0.8866019 -0.4625334 0 -0.8201698 -0.5721202 0 -0.8201698 -0.5721202 0 -0.7402764 -0.6723027 0 -0.7402764 -0.6723027 0 -0.6482337 -0.7614414 0 -0.6482337 -0.7614414 0 -0.5455333 -0.8380891 0 -0.5455333 -0.8380891 0 -0.4338808 -0.9009703 0 -0.4338808 -0.9009703 0 -0.3151106 -0.949055 0 -0.3151106 -0.949055 0 -0.191155 -0.9815599 0 -0.191155 -0.9815599 0 -0.06406328 -0.9979458 0 -0.06406328 -0.9979458 0 0.06406328 -0.9979458 0 0.06406328 -0.9979458 0 0.191155 -0.9815599 0 0.191155 -0.9815599 0 0.3151106 -0.949055 0 0.3151106 -0.949055 0 0.4338808 -0.9009703 0 0.4338808 -0.9009703 0 0.5455333 -0.8380891 0 0.5455333 -0.8380891 0 0.6482337 -0.7614414 0 0.6482337 -0.7614414 0 0.7402764 -0.6723027 0 0.7402764 -0.6723027 0 0.8201698 -0.5721202 0 0.8201698 -0.5721202 0 0.8866019 -0.4625334 0 0.8866019 -0.4625334 0 0.9384682 -0.3453656 0 0.9384682 -0.3453656 0 0.9749275 -0.2225227 0 0.9749275 -0.2225227 0 0.9953792 -0.09602161 0 0.9953792 -0.09602161 0 0.9994862 0.03205337 0 0.9994862 0.03205337 0 0.987182 0.1595984 0 0.987182 0.1595984 0 0.9586687 0.2845246 0 0.9586687 0.2845246 0 0.9144112 0.4047865 0 0.9144112 0.4047865 0 0.8551385 0.5183995 0 0.8551385 0.5183995 0 0.7818303 0.6234913 0 0.7818303 0.6234913 0 0.6956855 0.7183465 0 0.6956855 0.7183465 0 0.5981105 0.8014136 0 0.5981105 0.8014136 0 0.4907202 0.8713172 0 0.4907202 0.8713172 0 0.3752728 0.9269144 0 0.3752728 0.9269144 0 0.2536557 0.9672946 0 0.2536557 0.9672946 0 0.1278737 0.9917905 0 0.1278737 0.9917905 0 7.126712e-16 1</float_array>
          <technique_common>
            <accessor count="198" source="#normals-array-array" stride="3">
              <param type="float" name="X"/>
              <param type="float" name="Y"/>
              <param type="float" name="Z"/>
            </accessor>
          </technique_common>
        </source>
        <vertices id="verts-array-vertices">
          <input semantic="POSITION" source="#verts-array"/>
        </vertices>
        <triangles count="196" material="material0">
          <input offset="0" semantic="VERTEX" source="#verts-array-vertices"/>
          <input offset="1" semantic="NORMAL" source="#normals-array"/>
          <p>0 0 1 1 2 2 3 3 4 4 2 2 5 5 2 2 4 4 2 2 5 5 0 0 6 6 7 7 2 2 8 8 2 2 7 7 2 2 8 8 3 3 9 9 10 10 2 2 11 11 2 2 10 10 2 2 11 11 6 6 12 12 13 13 2 2 14 14 2 2 13 13 2 2 14 14 9 9 15 15 16 16 2 2 17 17 2 2 16 16 2 2 17 17 12 12 18 18 19 19 2 2 20 20 2 2 19 19 2 2 20 20 15 15 21 21 22 22 2 2 23 23 2 2 22 22 2 2 23 23 18 18 24 24 25 25 2 2 26 26 2 2 25 25 2 2 26 26 21 21 27 27 28 28 2 2 29 29 2 2 28 28 2 2 29 29 24 24 30 30 31 31 2 2 32 32 2 2 31 31 2 2 32 32 27 27 33 33 34 34 2 2 35 35 2 2 34 34 2 2 35 35 30 30 36 36 37 37 2 2 38 38 2 2 37 37 2 2 38 38 33 33 39 39 40 40 2 2 41 41 2 2 40 40 2 2 41 41 36 36 42 42 43 43 2 2 44 44 2 2 43 43 2 2 44 44 39 39 45 45 46 46 2 2 47 47 2 2 46 46 2 2 47 47 42 42 1 1 48 48 2 2 49 49 2 2 48 48 2 2 49 49 45 45 50 50 51 51 52 52 53 53 54 54 52 52 55 55 52 52 54 54 52 52 55 55 50 50 56 56 57 57 52 52 58 58 52 52 57 57 52 52 58 58 53 53 59 59 60 60 52 52 61 61 52 52 60 60 52 52 61 61 56 56 62 62 63 63 52 52 64 64 52 52 63 63 52 52 64 64 59 59 65 65 66 66 52 52 67 67 52 52 66 66 52 52 67 67 62 62 68 68 69 69 52 52 70 70 52 52 69 69 52 52 70 70 65 65 71 71 72 72 52 52 73 73 52 52 72 72 52 52 73 73 68 68 74 74 75 75 52 52 76 76 52 52 75 75 52 52 76 76 71 71 77 77 78 78 52 52 79 79 52 52 78 78 52 52 79 79 74 74 80 80 81 81 52 52 82 82 52 52 81 81 52 52 82 82 77 77 83 83 84 84 52 52 85 85 52 52 84 84 52 52 85 85 80 80 86 86 87 87 52 52 88 88 52 52 87 87 52 52 88 88 83 83 89 89 90 90 52 52 91 91 52 52 90 90 52 52 91 91 86 86 92 92 93 93 52 52 94 94 52 52 93 93 52 52 94 94 89 89 95 95 96 96 52 52 97 97 52 52 96 96 52 52 97 97 92 92 51 51 98 98 52 52 99 99 52 52 98 98 52 52 99 99 95 95 100 100 101 101 102 102 103 103 102 102 101 101 102 102 103 103 104 104 105 105 104 104 103 103 104 104 105 105 106 106 107 107 106 106 105 105 106 106 107 107 108 108 109 109 108 108 107 107 108 108 109 109 110 110 111 111 110 110 109 109 110 110 111 111 112 112 113 113 112 112 111 111 112 112 113 113 114 114 115 115 114 114 113 113 114 114 115 115 116 116 117 117 116 116 115 115 116 116 117 117 118 118 119 119 118 118 117 117 118 118 119 119 120 120 121 121 120 120 119 119 120 120 121 121 122 122 123 123 122 122 121 121 122 122 123 123 124 124 125 125 124 124 123 123 124 124 125 125 126 126 127 127 126 126 125 125 126 126 127 127 128 128 129 129 128 128 127 127 128 128 129 129 130 130 131 131 130 130 129 129 130 130 131 131 132 132 133 133 132 132 131 131 132 132 133 133 134 134 135 135 134 134 133 133 134 134 135 135 136 136 137 137 136 136 135 135 136 136 137 137 138 138 139 139 138 138 137 137 138 138 139 139 140 140 141 141 140 140 139 139 140 140 141 141 142 142 143 143 142 142 141 141 142 142 143 143 144 144 145 145 144 144 143 143 144 144 145 145 146 146 147 147 146 146 145 145 146 146 147 147 148 148 149 149 148 148 147 147 148 148 149 149 150 150 151 151 150 150 149 149 150 150 151 151 152 152 153 153 152 152 151 151 152 152 153 153 154 154 155 155 154 154 153 153 154 154 155 155 156 156 157 157 156 156 155 155 156 156 157 157 158 158 159 159 158 158 157 157 158 158 159 159 160 160 161 161 160 160 159 159 160 160 161 161 162 162 163 163 162 162 161 161 162 162 163 163 164 164 165 165 164 164 163 163 164 164 165 165 166 166 167 167 166 166 165 165 166 166 167 167 168 168 169 169 168 168 167 167 168 168 169 169 170 170 171 171 170 170 169 169 170 170 171 171 172 172 173 173 172 172 171 171 172 172 173 173 174 174 175 175 174 174 173 173 174 174 175 175 176 176 177 177 176 176 175 175 176 176 177 177 178 178 179 179 178 178 177 177 178 178 179 179 180 180 181 181 180 180 179 179 180 180 181 181 182 182 183 183 182 182 181 181 182 182 183 183 184 184 185 185 184 184 183 183 184 184 185 185 186 186 187 187 186 186 185 185 186 186 187 187 188 188 189 189 188 188 187 187 188 188 189 189 190 190 191 191 190 190 189 189 190 190 191 191 192 192 193 193 192 192 191 191 192 192 193 193 194 194 195 195 194 194 193 193 194 194 195 195 196 196 197 197 196 196 195 195 196 196 197 197 100 100 101 101 100 100 197 197</p>
        </triangles>
      </mesh>
    </geometry>
  </library_geometries>
  <library_materials>
    <material id="06b1a586c7c049b9838861cfde65f814" name="defaultmaterial">
      <instance_effect url="#29d957af7b0e4bce80e6c730bf8b2e71"/>
    </material>
  </library_materials>
  <library_visual_scenes>
    <visual_scene id="scene">
      <node id="node0" name="node0">
        <instance_geometry url="#e035719b1c0247d5a5f9cdd67369422c">
          <bind_material>
            <technique_common>
              <instance_material symbol="material0" target="#06b1a586c7c049b9838861cfde65f814"/>
            </technique_common>
          </bind_material>
        </instance_geometry>
      </node>
    </visual_scene>
  </library_visual_scenes>
  <scene>
    <instance_visual_scene url="#scene"/>
  </scene>
</COLLADA>
