<COLLADA xmlns="http://www.collada.org/2005/11/COLLADASchema" version="1.4.1">
  <asset>
    <created>2026-09-21T21:23:01.749043</created>
    <modified>2026-09-21T21:23:01.749043</modified>
    <up_axis>Y_UP</up_axis>
  </asset>
  <library_effects>
    <effect id="4e5bd1275bdb440fa648ad1c3f13526e" name="4e5bd1275bdb440fa648ad1c3f13526e">
      <profile_COMMON>
        <technique sid="common">
          <phong>
            <emission>
              <color>0.0 0.0 0.0 1.0</color>
            </emission>
            <ambient>
              <color>0.0 0.0 0.0 1.0</color>
            </ambient>
            <diffuse>
              <color>0.8941176470588236 0.8941176470588236 0.8941176470588236 1.0</color>
            </diffuse>
            <specular>
              <color>0.0 0.0 0.0 1.0</color>
            </specular>
            <shininess>
              <float>0.0</float>
            </shininess>
            <reflective>
              <color>0.0 0.0 0.0 1.0</color>
            </reflective>
            <reflectivity>
              <float>0.0</float>
            </reflectivity>
            <transparent>
              <color>0.0 0.0 0.0 1.0</color>
            </transparent>
            <transparency>
              <float>1.0</float>
            </transparency>
          </phong>
        </technique>
        <extra>
          <technique profile="GOOGLEEARTH">
            <double_sided>0</double_sided>
          </technique>
        </extra>
      </profile_COMMON>
    </effect>
  </library_effects>
  <library_geometries>
    <geometry id="39f463ab6f5545c5b791d44a590f8215" name="1d1d949f4c3e481d9ef125cd722e3fb4">
      <mesh>
        <source id="verts-array">
          <float_array count="1596" id="verts-array-array">0.002979044 -0.008848589 0.004672035 0.003190829 -0.009622979 0.002493224 0.00298735 0.0001195249 0.0002478962 0.00339162 -0.009872153 0.0001936831 0.003570615 -0.009582675 -0.002102935 0.00239136 -0.00391822 0.009376887 0.002568255 -0.005917191 0.008208973 0.00276771 -0.007590714 0.006612289 0.002082517 0.002901448 0.009810541 0.002141771 0.0006132475 0.01019976 0.002246594 -0.001701572 0.01005266 0.00219709 0.008419431 0.005769317 0.002110929 0.006912666 0.007534116 0.002072088 0.005039684 0.008905259 0.00268142 0.01005379 -0.0008552696 0.002490209 0.01003349 0.001458755 0.002325833 0.009478747 0.003707093 0.003308918 0.007039802 -0.006963917 0.003102087 0.008515473 -0.005182936 0.002889089 0.009538522 -0.003109414 0.003785917 0.0007877306 -0.009697664 0.003660292 0.003068888 -0.009283652 0.003498343 0.005191044 -0.008355253 0.003889271 -0.005777 -0.007777929 0.003903586 -0.003757737 -0.00892404 0.003868507 -0.001529448 -0.009575694 0.003718193 -0.008770147 -0.004273136 0.003826367 -0.007478366 -0.006199556 -0.03283524 -0.03924596 -0.02105217 -0.03302332 -0.02322836 -0.0232412 -0.03237649 -0.03921505 -0.02332794 -0.03205299 -0.02317766 -0.0253501 -0.03140616 -0.03916435 -0.02543684 -0.03062261 -0.02310987 -0.02717799 -0.02997578 -0.03909655 -0.02726473 -0.02881047 -0.02302869 -0.02862704 -0.02816364 -0.03901537 -0.02871378 -0.02671243 -0.02293843 -0.02961688 -0.0260656 -0.03892511 -0.02970362 -0.02444197 -0.02284396 -0.03009674 -0.02379513 -0.03883065 -0.03018348 -0.02212362 -0.02275047 -0.03003981 -0.02147679 -0.03873715 -0.03012655 -0.01987945 -0.02266287 -0.02944922 -0.01923262 -0.03864956 -0.02953596 -0.01783211 -0.02258596 -0.0283572 -0.01718528 -0.03857265 -0.02844394 -0.01609218 -0.0225239 -0.02682111 -0.01544535 -0.03851058 -0.02690785 -0.01475197 -0.02247996 -0.02492485 -0.01410514 -0.03846664 -0.02501159 -0.01388515 -0.02245657 -0.02277187 -0.01323832 -0.03844325 -0.02285861 -0.01353852 -0.022455 -0.02047542 -0.01289168 -0.03844169 -0.02056216 -0.01372973 -0.0224753 -0.0181614 -0.0130829 -0.03846198 -0.01824814 -0.01444849 -0.02251635 -0.01595436 -0.01380166 -0.03850304 -0.0160411 -0.01565697 -0.022576 -0.01397259 -0.01501014 -0.03856269 -0.01405933 -0.01729009 -0.02265102 -0.01232407 -0.01664326 -0.03863771 -0.01241081 -0.01925845 -0.02273733 -0.01109569 -0.01861162 -0.03872401 -0.01118243 -0.02145722 -0.02283031 -0.01035502 -0.02081039 -0.038817 -0.01044177 -0.02376776 -0.02292495 -0.01014239 -0.02312093 -0.03891164 -0.01022913 -0.02606388 -0.02301608 -0.01046838 -0.02541705 -0.03900277 -0.01055512 -0.02822465 -0.02309891 -0.01131595 -0.02757782 -0.0390856 -0.01140269 -0.03013157 -0.02316889 -0.01263914 -0.02948474 -0.03915557 -0.01272588 -0.03168127 -0.02322222 -0.01436615 -0.03103444 -0.0392089 -0.01445289 -0.03279214 -0.0232561 -0.01640492 -0.03214531 -0.03924279 -0.01649167 -0.03340311 -0.02326867 -0.01864504 -0.03275628 -0.03925535 -0.01873178 -0.03348208 -0.02325927 -0.02096543 -0.03526086 0.02070411 -0.02072689 -0.03601491 0.05071005 -0.02284002 -0.03480211 0.02073502 -0.02300266 -0.03504458 0.05076075 -0.02494892 -0.03383177 0.02078572 -0.02511156 -0.03361421 0.05082855 -0.02677682 -0.0324014 0.02085351 -0.02693946 -0.03180206 0.05090973 -0.02822586 -0.03058925 0.0209347 -0.0283885 -0.02970402 0.05099999 -0.0292157 -0.02849121 0.02102495 -0.02937834 -0.02743356 0.05109446 -0.02969556 -0.02622075 0.02111942 -0.0298582 -0.02511521 0.05118795 -0.02963864 -0.0239024 0.02121291 -0.02980128 -0.02287104 0.05127554 -0.02904804 -0.02165823 0.02130051 -0.02921068 -0.02082371 0.05135246 -0.02795603 -0.0196109 0.02137742 -0.02811866 -0.01908377 0.05141452 -0.02641993 -0.01787097 0.02143949 -0.02658257 -0.01774357 0.05145846 -0.02452367 -0.01653076 0.02148342 -0.02468631 -0.01687675 0.05148185 -0.02237069 -0.01566394 0.02150681 -0.02253333 -0.01653011 0.05148341 -0.02007424 -0.0153173 0.02150838 -0.02023688 -0.01672132 0.05146312 -0.01776022 -0.01550851 0.02148809 -0.01792286 -0.01744009 0.05142206 -0.01555319 -0.01622728 0.02144703 -0.01571582 -0.01864856 0.05136242 -0.01357142 -0.01743575 0.02138738 -0.01373405 -0.02028168 0.05128739 -0.01192289 -0.01906887 0.02131236 -0.01208553 -0.02225005 0.05120109 -0.01069452 -0.02103724 0.02122605 -0.01085716 -0.02444881 0.05110811 -0.009953848 -0.02323601 0.02113307 -0.01011649 -0.02675936 0.05101347 -0.009741211 -0.02554655 0.02103843 -0.009903851 -0.02905547 0.05092233 -0.01006721 -0.02784266 0.0209473 -0.01022985 -0.03121625 0.0508395 -0.01091478 -0.03000344 0.02086447 -0.01107741 -0.03312316 0.05076953 -0.01223796 -0.03191035 0.0207945 -0.0124006 -0.03467286 0.0507162 -0.01396497 -0.03346006 0.02074116 -0.01412761 -0.03578373 0.05068231 -0.01600375 -0.03457092 0.02070728 -0.01616639 -0.0363947 0.05066975 -0.01824386 -0.03518189 0.02069471 -0.0184065 -0.03647367 0.05067914 -0.02056425 0.00339162 -0.009872153 0.0001936831 -0.009374569 -0.01010062 -0.003177152 0.003570615 -0.009582675 -0.002102935 -0.009226991 -0.009288089 -0.005347353 0.003718193 -0.008770147 -0.004273136 -0.009118817 -0.007996307 -0.007273773 0.003826367 -0.007478366 -0.006199556 -0.009055913 -0.006294941 -0.008852146 0.003889271 -0.005777 -0.007777929 -0.009041598 -0.004275679 -0.009998257 0.003903586 -0.003757737 -0.00892404 -0.009076677 -0.00204739 -0.01064991 0.003868507 -0.001529448 -0.009575694 -0.009159267 0.0002697892 -0.01077188 0.003785917 0.0007877306 -0.009697664 -0.009284892 0.002550946 -0.01035787 0.003660292 0.003068888 -0.009283652 -0.009446841 0.004673102 -0.00942947 0.003498343 0.005191044 -0.008355253 -0.009636266 0.00652186 -0.008038134 0.003308918 0.007039802 -0.006963917 -0.009843098 0.007997531 -0.006257153 0.003102087 0.008515473 -0.005182936 -0.0100561 0.009020581 -0.004183631 0.002889089 0.009538522 -0.003109414 -0.01026376 0.009535844 -0.001929487 0.00268142 0.01005379 -0.0008552696 -0.01045497 0.009515552 0.0003845381 0.002490209 0.01003349 0.001458755 -0.01061935 0.008960806 0.002632876 0.002325833 0.009478747 0.003707093 -0.01074809 0.00790149 0.0046951 0.00219709 0.008419431 0.005769317 -0.01083426 0.006394725 0.006459899 0.002110929 0.006912666 0.007534116 -0.0108731 0.004521743 0.007831042 0.002072088 0.005039684 0.008905259 -0.01086267 0.002383507 0.008736324 0.002082517 0.002901448 0.009810541 -0.01080341 9.530606e-05 0.009125544 0.002141771 0.0006132475 0.01019976 -0.01069859 -0.002219513 0.008978441 0.002246594 -0.001701572 0.01005266 -0.01055382 -0.004436162 0.00830267 0.00239136 -0.00391822 0.009376887 -0.01037693 -0.006435132 0.007134756 0.002568255 -0.005917191 0.008208973 -0.01017747 -0.008108656 0.005538072 0.00276771 -0.007590714 0.006612289 -0.00996614 -0.00936653 0.003597818 0.002979044 -0.008848589 0.004672035 -0.009754355 -0.01014092 0.001419007 0.003190829 -0.009622979 0.002493224 -0.009553565 -0.01039009 -0.000880534 -0.03504458 0.05076075 -0.02494892 -0.03601491 0.05071005 -0.02284002 -0.02651583 0.05107756 -0.01973793 -0.03647367 0.05067914 -0.02056425 -0.0363947 0.05066975 -0.01824386 -0.02970402 0.05099999 -0.0292157 -0.03180206 0.05090973 -0.02822586 -0.03361421 0.05082855 -0.02677682 -0.02287104 0.05127554 -0.02904804 -0.02511521 0.05118795 -0.02963864 -0.02743356 0.05109446 -0.02969556 -0.01774357 0.05145846 -0.02452367 -0.01908377 0.05141452 -0.02641993 -0.02082371 0.05135246 -0.02795603 -0.01672132 0.05146312 -0.01776022 -0.01653011 0.05148341 -0.02007424 -0.01687675 0.05148185 -0.02237069 -0.02028168 0.05128739 -0.01192289 -0.01864856 0.05136242 -0.01357142 -0.01744009 0.05142206 -0.01555319 -0.02675936 0.05101347 -0.009741211 -0.02444881 0.05110811 -0.009953848 -0.02225005 0.05120109 -0.01069452 -0.03312316 0.05076953 -0.01223796 -0.03121625 0.0508395 -0.01091478 -0.02905547 0.05092233 -0.01006721 -0.03578373 0.05068231 -0.01600375 -0.03467286 0.0507162 -0.01396497 -0.03214531 -0.03924279 -0.01649167 -0.03275628 -0.03925535 -0.01873178 -0.02287741 -0.03884754 -0.02022585 -0.03283524 -0.03924596 -0.02105217 -0.03237649 -0.03921505 -0.02332794 -0.02757782 -0.0390856 -0.01140269 -0.02948474 -0.03915557 -0.01272588 -0.03103444 -0.0392089 -0.01445289 -0.02081039 -0.038817 -0.01044177 -0.02312093 -0.03891164 -0.01022913 -0.02541705 -0.03900277 -0.01055512 -0.01501014 -0.03856269 -0.01405933 -0.01664326 -0.03863771 -0.01241081 -0.01861162 -0.03872401 -0.01118243 -0.01289168 -0.03844169 -0.02056216 -0.0130829 -0.03846198 -0.01824814 -0.01380166 -0.03850304 -0.0160411 -0.01544535 -0.03851058 -0.02690785 -0.01410514 -0.03846664 -0.02501159 -0.01323832 -0.03844325 -0.02285861 -0.02147679 -0.03873715 -0.03012655 -0.01923262 -0.03864956 -0.02953596 -0.01718528 -0.03857265 -0.02844394 -0.02816364 -0.03901537 -0.02871378 -0.0260656 -0.03892511 -0.02970362 -0.02379513 -0.03883065 -0.03018348 -0.03140616 -0.03916435 -0.02543684 -0.02997578 -0.03909655 -0.02726473 -0.02103724 0.02122605 -0.01085716 -0.02323601 0.02113307 -0.01011649 -0.01084723 0.02158327 -0.000707052 -0.02554655 0.02103843 -0.009903851 -0.0427123 0.02030834 -0.003351279 -0.02784266 0.0209473 -0.01022985 -0.03000344 0.02086447 -0.01107741 -0.03191035 0.0207945 -0.0124006 -0.03346006 0.02074116 -0.01412761 -0.03457092 0.02070728 -0.01616639 -0.03058925 0.0209347 -0.0283885 -0.03974779 0.02062295 -0.03922763 -0.0324014 0.02085351 -0.02693946 -0.03383177 0.02078572 -0.02511156 -0.02849121 0.02102495 -0.02937834 -0.02622075 0.02111942 -0.0298582 -0.007882723 0.02189788 -0.03658341 -0.0239024 0.02121291 -0.02980128 -0.02165823 0.02130051 -0.02921068 -0.03518189 0.02069471 -0.0184065 -0.03526086 0.02070411 -0.02072689 -0.03480211 0.02073502 -0.02300266 -0.0196109 0.02137742 -0.02811866 -0.01787097 0.02143949 -0.02658257 -0.01653076 0.02148342 -0.02468631 -0.01566394 0.02150681 -0.02253333 -0.0153173 0.02150838 -0.02023688 -0.01550851 0.02148809 -0.01792286 -0.01622728 0.02144703 -0.01571582 -0.01743575 0.02138738 -0.01373405 -0.01906887 0.02131236 -0.01208553 -0.04093351 -0.02365504 -0.003589816 -0.02822465 -0.02309891 -0.01131595 -0.02606388 -0.02301608 -0.01046838 -0.02145722 -0.02283031 -0.01035502 -0.01925845 -0.02273733 -0.01109569 -0.009068442 -0.02238011 -0.0009455897 -0.01729009 -0.02265102 -0.01232407 -0.01565697 -0.022576 -0.01397259 -0.01444849 -0.02251635 -0.01595436 -0.01372973 -0.0224753 -0.0181614 -0.006103938 -0.0220655 -0.03682194 -0.01353852 -0.022455 -0.02047542 -0.01388515 -0.02245657 -0.02277187 -0.02376776 -0.02292495 -0.01014239 -0.01475197 -0.02247996 -0.02492485 -0.01609218 -0.0225239 -0.02682111 -0.01783211 -0.02258596 -0.0283572 -0.02444197 -0.02284396 -0.03009674 -0.03796901 -0.02334044 -0.03946617 -0.02212362 -0.02275047 -0.03003981 -0.01987945 -0.02266287 -0.02944922 -0.03348208 -0.02325927 -0.02096543 -0.03340311 -0.02326867 -0.01864504 -0.03279214 -0.0232561 -0.01640492 -0.02671243 -0.02293843 -0.02961688 -0.02881047 -0.02302869 -0.02862704 -0.03062261 -0.02310987 -0.02717799 -0.03168127 -0.02322222 -0.01436615 -0.03013157 -0.02316889 -0.01263914 -0.03205299 -0.02317766 -0.0253501 -0.03302332 -0.02322836 -0.0232412 -0.03974779 0.02062295 -0.03922763 -0.007882723 0.02189788 -0.03658341 -0.03796901 -0.02334044 -0.03946617 -0.006103938 -0.0220655 -0.03682194 -0.04298478 0.02000759 7.743073e-05 -0.01111971 0.02128252 0.002721657 -0.04322856 0.01917303 0.003417535 -0.01136349 0.02044796 0.006061762 -0.04343784 0.01782515 0.006589417 -0.01157277 0.01910009 0.009233643 -0.04360727 0.01599723 0.00951253 -0.0117422 0.01727217 0.01215676 -0.04373279 0.01373406 0.01211636 -0.01186772 0.01500899 0.01476059 -0.04381129 0.01109165 0.01433643 -0.01194622 0.01236658 0.01698065 -0.04384085 0.008134827 0.01611827 -0.01197578 0.009409759 0.0187625 -0.04382069 0.004936517 0.01741745 -0.01195562 0.006211449 0.02006167 -0.04375136 0.001575457 0.01820248 -0.01188629 0.002850389 0.02084671 -0.04363454 -0.001865608 0.01845389 -0.01176948 -0.0005906748 0.02109812 -0.0434731 -0.005301935 0.01816516 -0.01160803 -0.004027002 0.02080939 -0.04327102 -0.008648908 0.01734373 -0.01140595 -0.007373975 0.01998796 -0.0430333 -0.01182413 0.01600998 -0.01116823 -0.0105492 0.01865421 -0.04276575 -0.01474942 0.01419622 -0.01090068 -0.01347449 0.01684045 -0.042475 -0.01735265 0.01194769 -0.01060994 -0.01607771 0.01459191 -0.0421682 -0.01956994 0.009319549 -0.01030313 -0.01829501 0.01196378 -0.04185294 -0.02134642 0.006376878 -0.009987866 -0.02007149 0.009021105 -0.04153684 -0.02263854 0.003190673 -0.00967177 -0.02136361 0.005834899 -0.0412279 -0.02341445 -0.0001581697 -0.009362833 -0.02213951 0.002486057 -0.03974779 0.02062295 -0.03922763 -0.04114996 0.001276014 -0.0130021 -0.04131191 0.00339817 -0.0120737 -0.04266848 -0.001179627 0.006481317 -0.04375136 0.001575457 0.01820248 -0.04272774 0.001108574 0.006092097 -0.04382069 0.004936517 0.01741745 -0.04273817 0.00324681 0.005186815 -0.04241889 -0.005711095 0.005658443 -0.04327102 -0.008648908 0.01734373 -0.04256366 -0.003494446 0.006334214 -0.0434731 -0.005301935 0.01816516 -0.04363454 -0.001865608 0.01845389 -0.04098389 -0.00927124 -0.009917999 -0.04092098 -0.007569874 -0.01149637 -0.03796901 -0.02334044 -0.03946617 -0.04090667 -0.005550611 -0.01264248 -0.04094175 -0.003322322 -0.01329414 -0.04102434 -0.001005144 -0.01341611 -0.04161942 -0.01141585 -0.00122522 -0.04141863 -0.01166503 -0.003524761 -0.04093351 -0.02365504 -0.003589816 -0.04123964 -0.01137555 -0.005821379 -0.04109206 -0.01056302 -0.00799158 -0.04150133 0.005246927 -0.01068236 -0.04170817 0.006722599 -0.00890138 -0.0427123 0.02030834 -0.003351279 -0.04204254 -0.009383589 0.002893845 -0.042475 -0.01735265 0.01194769 -0.042242 -0.007710065 0.00449053 -0.04276575 -0.01474942 0.01419622 -0.0430333 -0.01182413 0.01600998 -0.0412279 -0.02341445 -0.0001581697 -0.04153684 -0.02263854 0.003190673 -0.04183121 -0.01064146 0.0009535913 -0.04185294 -0.02134642 0.006376878 -0.0421682 -0.01956994 0.009319549 -0.04384085 0.008134827 0.01611827 -0.04381129 0.01109165 0.01433643 -0.04269932 0.005119792 0.003815672 -0.04373279 0.01373406 0.01211636 -0.04261316 0.006626557 0.002050874 -0.04192116 0.007745648 -0.006827857 -0.04212883 0.008260911 -0.004573713 -0.04298478 0.02000759 7.743073e-05 -0.04232004 0.008240619 -0.002259689 -0.04322856 0.01917303 0.003417535 -0.04248442 0.007685873 -1.135025e-05 -0.04343784 0.01782515 0.006589417 -0.04360727 0.01599723 0.00951253 -0.006103938 -0.0220655 -0.03682194 -0.007882723 0.02189788 -0.03658341 -0.009159267 0.0002697892 -0.01077188 -0.009636266 0.00652186 -0.008038134 -0.009446841 0.004673102 -0.00942947 -0.009284892 0.002550946 -0.01035787 -0.009076677 -0.00204739 -0.01064991 -0.009041598 -0.004275679 -0.009998257 -0.009055913 -0.006294941 -0.008852146 -0.01069859 -0.002219513 0.008978441 -0.01140595 -0.007373975 0.01998796 -0.01055382 -0.004436162 0.00830267 -0.01116823 -0.0105492 0.01865421 -0.01037693 -0.006435132 0.007134756 -0.01026376 0.009535844 -0.001929487 -0.0100561 0.009020581 -0.004183631 -0.01084723 0.02158327 -0.000707052 -0.01086267 0.002383507 0.008736324 -0.01188629 0.002850389 0.02084671 -0.01080341 9.530606e-05 0.009125544 -0.01176948 -0.0005906748 0.02109812 -0.01160803 -0.004027002 0.02080939 -0.009118817 -0.007996307 -0.007273773 -0.009226991 -0.009288089 -0.005347353 -0.009068442 -0.02238011 -0.0009455897 -0.00996614 -0.00936653 0.003597818 -0.00967177 -0.02136361 0.005834899 -0.009754355 -0.01014092 0.001419007 -0.009362833 -0.02213951 0.002486057 -0.009553565 -0.01039009 -0.000880534 -0.009374569 -0.01010062 -0.003177152 -0.01090068 -0.01347449 0.01684045 -0.01060994 -0.01607771 0.01459191 -0.01017747 -0.008108656 0.005538072 -0.01030313 -0.01829501 0.01196378 -0.009987866 -0.02007149 0.009021105 -0.009843098 0.007997531 -0.006257153 -0.01083426 0.006394725 0.006459899 -0.01194622 0.01236658 0.01698065 -0.0108731 0.004521743 0.007831042 -0.01197578 0.009409759 0.0187625 -0.01195562 0.006211449 0.02006167 -0.01045497 0.009515552 0.0003845381 -0.01111971 0.02128252 0.002721657 -0.01061935 0.008960806 0.002632876 -0.01136349 0.02044796 0.006061762 -0.01157277 0.01910009 0.009233643 -0.01074809 0.00790149 0.0046951 -0.0117422 0.01727217 0.01215676 -0.01186772 0.01500899 0.01476059 -0.04141863 -0.01166503 -0.003524761 -0.05418482 -0.01189349 -0.006895596 -0.04123964 -0.01137555 -0.005821379 -0.05403724 -0.01108096 -0.009065797 -0.04109206 -0.01056302 -0.00799158 -0.05392907 -0.009789181 -0.01099222 -0.04098389 -0.00927124 -0.009917999 -0.05386617 -0.008087815 -0.01257059 -0.04092098 -0.007569874 -0.01149637 -0.05385185 -0.006068553 -0.0137167 -0.04090667 -0.005550611 -0.01264248 -0.05388693 -0.003840264 -0.01436835 -0.04094175 -0.003322322 -0.01329414 -0.05396952 -0.001523085 -0.01449032 -0.04102434 -0.001005144 -0.01341611 -0.05409515 0.0007580723 -0.01407631 -0.04114996 0.001276014 -0.0130021 -0.05425709 0.002880228 -0.01314791 -0.04131191 0.00339817 -0.0120737 -0.05444652 0.004728986 -0.01175658 -0.04150133 0.005246927 -0.01068236 -0.05465335 0.006204657 -0.009975597 -0.04170817 0.006722599 -0.00890138 -0.05486635 0.007227707 -0.007902075 -0.04192116 0.007745648 -0.006827857 -0.05507402 0.00774297 -0.00564793 -0.04212883 0.008260911 -0.004573713 -0.05526523 0.007722678 -0.003333906 -0.04232004 0.008240619 -0.002259689 -0.0554296 0.007167932 -0.001085567 -0.04248442 0.007685873 -1.135025e-05 -0.05555835 0.006108615 0.0009766565 -0.04261316 0.006626557 0.002050874 -0.05564451 0.004601851 0.002741455 -0.04269932 0.005119792 0.003815672 -0.05568335 0.002728868 0.004112598 -0.04273817 0.00324681 0.005186815 -0.05567292 0.0005906328 0.00501788 -0.04272774 0.001108574 0.006092097 -0.05561367 -0.001697568 0.0054071 -0.04266848 -0.001179627 0.006481317 -0.05550884 -0.004012387 0.005259997 -0.04256366 -0.003494446 0.006334214 -0.05536408 -0.006229036 0.004584226 -0.04241889 -0.005711095 0.005658443 -0.05518718 -0.008228007 0.003416312 -0.042242 -0.007710065 0.00449053 -0.05498773 -0.00990153 0.001819628 -0.04204254 -0.009383589 0.002893845 -0.05477639 -0.0111594 -0.0001206258 -0.04183121 -0.01064146 0.0009535913 -0.05456461 -0.0119338 -0.002299437 -0.04161942 -0.01141585 -0.00122522 -0.05436382 -0.01218297 -0.004598978 -0.05403724 -0.01108096 -0.009065797 -0.05418482 -0.01189349 -0.006895596 -0.05476809 -0.002191291 -0.004544765 -0.05436382 -0.01218297 -0.004598978 -0.05456461 -0.0119338 -0.002299437 -0.05385185 -0.006068553 -0.0137167 -0.05386617 -0.008087815 -0.01257059 -0.05392907 -0.009789181 -0.01099222 -0.05409515 0.0007580723 -0.01407631 -0.05396952 -0.001523085 -0.01449032 -0.05388693 -0.003840264 -0.01436835 -0.05465335 0.006204657 -0.009975597 -0.05444652 0.004728986 -0.01175658 -0.05425709 0.002880228 -0.01314791 -0.05526523 0.007722678 -0.003333906 -0.05507402 0.00774297 -0.00564793 -0.05486635 0.007227707 -0.007902075 -0.05564451 0.004601851 0.002741455 -0.05555835 0.006108615 0.0009766565 -0.0554296 0.007167932 -0.001085567 -0.05561367 -0.001697568 0.0054071 -0.05567292 0.0005906328 0.00501788 -0.05568335 0.002728868 0.004112598 -0.05518718 -0.008228007 0.003416312 -0.05536408 -0.006229036 0.004584226 -0.05550884 -0.004012387 0.005259997 -0.05477639 -0.0111594 -0.0001206258 -0.05498773 -0.00990153 0.001819628</float_array>
          <technique_common>
            <accessor count="532" source="#verts-array-array" stride="3">
              <param type="float" name="X"/>
              <param type="float" name="Y"/>
              <param type="float" name="Z"/>
            </accessor>
          </technique_common>
        </source>
        <source id="normals-array">
          <float_array count="1596" id="normals-array-array">0.9957834 0.03984165 0.08263208 0.9957834 0.03984165 0.08263208 0.9957834 0.03984165 0.08263208 0.9957834 0.03984165 0.08263208 0.9957834 0.03984165 0.08263208 0.9957834 0.03984165 0.08263208 0.9957834 0.03984165 0.08263208 0.9957834 0.03984165 0.08263208 0.9957834 0.03984165 0.08263208 0.9957834 0.03984165 0.08263208 0.9957834 0.03984165 0.08263208 0.9957834 0.03984165 0.08263208 0.9957834 0.03984165 0.08263208 0.9957834 0.03984165 0.08263208 0.9957834 0.03984165 0.08263208 0.9957834 0.03984165 0.08263208 0.9957834 0.03984165 0.08263208 0.9957834 0.03984165 0.08263208 0.9957834 0.03984165 0.08263208 0.9957834 0.03984165 0.08263208 0.9957834 0.03984165 0.08263208 0.9957834 0.03984165 0.08263208 0.9957834 0.03984165 0.08263208 0.9957834 0.03984165 0.08263208 0.9957834 0.03984165 0.08263208 0.9957834 0.03984165 0.08263208 0.9957834 0.03984165 0.08263208 0.9957834 0.03984165 0.08263208 -0.9957834 -0.03984165 -0.08263208 -0.9499318 -0.03675124 -0.3102883 -0.9499318 -0.03675124 -0.3102883 -0.8529225 -0.03168249 -0.5210753 -0.8529225 -0.03168249 -0.5210753 -0.7100374 -0.02491026 -0.7037233 -0.7100374 -0.02491026 -0.7037233 -0.5286148 -0.01678319 -0.8486959 -0.5286148 -0.01678319 -0.8486959 -0.3185876 -0.007747313 -0.9478618 -0.3185876 -0.007747313 -0.9478618 -0.09180553 0.001688399 -0.9957755 -0.09180553 0.001688399 -0.9957755 0.1400425 0.01103823 -0.990084 0.1400425 0.01103823 -0.990084 0.36431 0.01979201 -0.9310674 0.36431 0.01979201 -0.9310674 0.5692126 0.02748925 -0.8217307 0.5692126 0.02748925 -0.8217307 0.7433101 0.03369976 -0.6680976 0.7433101 0.03369976 -0.6680976 0.8771597 0.03808768 -0.4786858 0.8771597 0.03808768 -0.4786858 0.9639093 0.04042812 -0.2631433 0.9639093 0.04042812 -0.2631433 0.9986147 0.04058626 -0.03348896 0.9986147 0.04058626 -0.03348896 0.9795066 0.03855881 0.1976868 0.9795066 0.03855881 0.1976868 0.9076087 0.03445222 0.4184012 0.9076087 0.03445222 0.4184012 0.7866168 0.02848042 0.6167843 0.7866168 0.02848042 0.6167843 0.6234184 0.02098302 0.7816068 0.6234184 0.02098302 0.7816068 0.4267621 0.01236059 0.9042794 0.4267621 0.01236059 0.9042794 0.2067189 0.003055364 0.9783956 0.2067189 0.003055364 0.9783956 -0.02437414 -0.006410296 0.9996824 -0.02437414 -0.006410296 0.9996824 -0.2539985 -0.01552414 0.96708 -0.2539985 -0.01552414 0.96708 -0.4699918 -0.02380363 0.8823498 -0.4699918 -0.02380363 0.8823498 -0.6607395 -0.03080319 0.749983 -0.6607395 -0.03080319 0.749983 -0.8157829 -0.03613901 0.5772281 -0.8157829 -0.03613901 0.5772281 -0.926833 -0.03952616 0.3733876 -0.926833 -0.03952616 0.3733876 -0.9879231 -0.04078302 0.1494813 -0.9879231 -0.04078302 0.1494813 -0.9957834 -0.03984165 -0.08263208 -0.9957834 -0.03984165 -0.08263208 -0.9499318 -0.03675124 -0.3102883 -0.9499318 -0.03675124 -0.3102883 -0.8529225 -0.03168249 -0.5210753 -0.8529225 -0.03168249 -0.5210753 -0.7100374 -0.02491026 -0.7037233 -0.7100374 -0.02491026 -0.7037233 -0.5286148 -0.01678319 -0.8486959 -0.5286148 -0.01678319 -0.8486959 -0.3185876 -0.007747313 -0.9478618 -0.3185876 -0.007747313 -0.9478618 -0.09180553 0.001688399 -0.9957755 -0.09180553 0.001688399 -0.9957755 0.1400425 0.01103823 -0.990084 0.1400425 0.01103823 -0.990084 0.36431 0.01979201 -0.9310674 0.36431 0.01979201 -0.9310674 0.5692126 0.02748925 -0.8217307 0.5692126 0.02748925 -0.8217307 0.7433101 0.03369976 -0.6680976 0.7433101 0.03369976 -0.6680976 0.8771597 0.03808768 -0.4786858 0.8771597 0.03808768 -0.4786858 0.9639093 0.04042812 -0.2631433 0.9639093 0.04042812 -0.2631433 0.9986147 0.04058626 -0.03348896 0.9986147 0.04058626 -0.03348896 0.9795066 0.03855881 0.1976868 0.9795066 0.03855881 0.1976868 0.9076087 0.03445222 0.4184012 0.9076087 0.03445222 0.4184012 0.7866168 0.02848042 0.6167843 0.7866168 0.02848042 0.6167843 0.6234184 0.02098302 0.7816068 0.6234184 0.02098302 0.7816068 0.4267621 0.01236059 0.9042794 0.4267621 0.01236059 0.9042794 0.2067189 0.003055364 0.9783956 0.2067189 0.003055364 0.9783956 -0.02437414 -0.006410296 0.9996824 -0.02437414 -0.006410296 0.9996824 -0.2539985 -0.01552414 0.96708 -0.2539985 -0.01552414 0.96708 -0.4699918 -0.02380363 0.8823498 -0.4699918 -0.02380363 0.8823498 -0.6607395 -0.03080319 0.749983 -0.6607395 -0.03080319 0.749983 -0.8157829 -0.03613901 0.5772281 -0.8157829 -0.03613901 0.5772281 -0.926833 -0.03952616 0.3733876 -0.926833 -0.03952616 0.3733876 -0.9879231 -0.04078302 0.1494813 -0.9879231 -0.04078302 0.1494813 -0.9957834 -0.03984165 -0.08263208 0.04042693 -0.9991678 -0.005421312 0.05832717 -0.9702219 -0.2350902 0.05832717 -0.9702219 -0.2350902 0.07308285 -0.8889783 -0.4520802 0.07308285 -0.8889783 -0.4520802 0.08390223 -0.7597622 -0.6447649 0.08390223 -0.7597622 -0.6447649 0.09019468 -0.5896184 -0.8026301 0.09019468 -0.5896184 -0.8026301 0.09162506 -0.3877535 -0.917198 0.09162506 -0.3877535 -0.917198 0.08811676 -0.1649133 -0.982364 0.08811676 -0.1649133 -0.982364 0.07985913 0.06678216 -0.9945666 0.07985913 0.06678216 -0.9945666 0.06729135 0.2949663 -0.9531352 0.06729135 0.2949663 -0.9531352 0.05110286 0.5071356 -0.8603499 0.05110286 0.5071356 -0.8603499 0.03215813 0.6919977 -0.721183 0.03215813 0.6919977 -0.721183 0.01146896 0.839627 -0.5430424 0.01146896 0.839627 -0.5430424 -0.009824303 0.941899 -0.3357525 -0.009824303 0.941899 -0.3357525 -0.0305926 0.993425 -0.1103214 -0.0305926 0.993425 -0.1103214 -0.04971444 0.9913957 0.1210907 -0.04971444 0.9913957 0.1210907 -0.06615343 0.9359211 0.3459413 -0.06615343 0.9359211 0.3459413 -0.07902402 0.8300235 0.5521016 -0.07902402 0.8300235 0.5521016 -0.08764102 0.6792842 0.7286234 -0.08764102 0.6792842 0.7286234 -0.09152846 0.4919991 0.865771 -0.09152846 0.4919991 0.865771 -0.09048292 0.2782227 0.9562452 -0.09048292 0.2782227 0.9562452 -0.08455725 0.04933367 0.9951966 -0.08455725 0.04933367 0.9951966 -0.07407535 -0.1821258 0.980481 -0.07407535 -0.1821258 0.980481 -0.05959826 -0.4038019 0.9129031 -0.05959826 -0.4038019 0.9129031 -0.04191479 -0.6036384 0.7961557 -0.04191479 -0.6036384 0.7961557 -0.02196678 -0.7709974 0.6364593 -0.02196678 -0.7709974 0.6364593 -0.0008282929 -0.896822 0.4423907 -0.0008282929 -0.896822 0.4423907 0.02034743 -0.9742525 0.2245398 0.02034743 -0.9742525 0.2245398 0.04042693 -0.9991678 -0.005421312 -0.04042693 0.9991678 0.005421312 -0.04042693 0.9991678 0.005421312 -0.04042693 0.9991678 0.005421312 -0.04042693 0.9991678 0.005421312 -0.04042693 0.9991678 0.005421312 -0.04042693 0.9991678 0.005421312 -0.04042693 0.9991678 0.005421312 -0.04042693 0.9991678 0.005421312 -0.04042693 0.9991678 0.005421312 -0.04042693 0.9991678 0.005421312 -0.04042693 0.9991678 0.005421312 -0.04042693 0.9991678 0.005421312 -0.04042693 0.9991678 0.005421312 -0.04042693 0.9991678 0.005421312 -0.04042693 0.9991678 0.005421312 -0.04042693 0.9991678 0.005421312 -0.04042693 0.9991678 0.005421312 -0.04042693 0.9991678 0.005421312 -0.04042693 0.9991678 0.005421312 -0.04042693 0.9991678 0.005421312 -0.04042693 0.9991678 0.005421312 -0.04042693 0.9991678 0.005421312 -0.04042693 0.9991678 0.005421312 -0.04042693 0.9991678 0.005421312 -0.04042693 0.9991678 0.005421312 -0.04042693 0.9991678 0.005421312 -0.04042693 0.9991678 0.005421312 -0.04042693 0.9991678 0.005421312 0.04042693 -0.9991678 -0.005421312 0.04042693 -0.9991678 -0.005421312 0.04042693 -0.9991678 -0.005421312 0.04042693 -0.9991678 -0.005421312 0.04042693 -0.9991678 -0.005421312 0.04042693 -0.9991678 -0.005421312 0.04042693 -0.9991678 -0.005421312 0.04042693 -0.9991678 -0.005421312 0.04042693 -0.9991678 -0.005421312 0.04042693 -0.9991678 -0.005421312 0.04042693 -0.9991678 -0.005421312 0.04042693 -0.9991678 -0.005421312 0.04042693 -0.9991678 -0.005421312 0.04042693 -0.9991678 -0.005421312 0.04042693 -0.9991678 -0.005421312 0.04042693 -0.9991678 -0.005421312 0.04042693 -0.9991678 -0.005421312 0.04042693 -0.9991678 -0.005421312 0.04042693 -0.9991678 -0.005421312 0.04042693 -0.9991678 -0.005421312 0.04042693 -0.9991678 -0.005421312 0.04042693 -0.9991678 -0.005421312 0.04042693 -0.9991678 -0.005421312 0.04042693 -0.9991678 -0.005421312 0.04042693 -0.9991678 -0.005421312 0.04042693 -0.9991678 -0.005421312 0.04042693 -0.9991678 -0.005421312 0.04042693 -0.9991678 -0.005421312 -0.04042693 0.9991678 0.005421312 -0.04042693 0.9991678 0.005421312 -0.0436288 0.9980543 0.04454336 -0.04042693 0.9991678 0.005421312 -0.0436288 0.9980543 0.04454336 -0.04042693 0.9991678 0.005421312 -0.04042693 0.9991678 0.005421312 -0.04042693 0.9991678 0.005421312 -0.04042693 0.9991678 0.005421312 -0.04042693 0.9991678 0.005421312 -0.04042693 0.9991678 0.005421312 -0.04042693 0.9991678 0.005421312 -0.04042693 0.9991678 0.005421312 -0.04042693 0.9991678 0.005421312 -0.04042693 0.9991678 0.005421312 -0.04042693 0.9991678 0.005421312 -0.04042693 0.9991678 0.005421312 -0.04042693 0.9991678 0.005421312 -0.04042693 0.9991678 0.005421312 -0.04042693 0.9991678 0.005421312 -0.04042693 0.9991678 0.005421312 -0.04042693 0.9991678 0.005421312 -0.04042693 0.9991678 0.005421312 -0.04042693 0.9991678 0.005421312 -0.04042693 0.9991678 0.005421312 -0.04042693 0.9991678 0.005421312 -0.04042693 0.9991678 0.005421312 -0.04042693 0.9991678 0.005421312 -0.04042693 0.9991678 0.005421312 -0.04042693 0.9991678 0.005421312 -0.04042693 0.9991678 0.005421312 0.03716272 -0.9987405 0.0337091 0.04042693 -0.9991678 -0.005421312 0.04042693 -0.9991678 -0.005421312 0.04042693 -0.9991678 -0.005421312 0.04042693 -0.9991678 -0.005421312 0.03716272 -0.9987405 0.0337091 0.04042693 -0.9991678 -0.005421312 0.04042693 -0.9991678 -0.005421312 0.04042693 -0.9991678 -0.005421312 0.04042693 -0.9991678 -0.005421312 0.04042693 -0.9991678 -0.005421312 0.04042693 -0.9991678 -0.005421312 0.04042693 -0.9991678 -0.005421312 0.04042693 -0.9991678 -0.005421312 0.04042693 -0.9991678 -0.005421312 0.04042693 -0.9991678 -0.005421312 0.04042693 -0.9991678 -0.005421312 0.04042693 -0.9991678 -0.005421312 0.04042693 -0.9991678 -0.005421312 0.04042693 -0.9991678 -0.005421312 0.04042693 -0.9991678 -0.005421312 0.04042693 -0.9991678 -0.005421312 0.04042693 -0.9991678 -0.005421312 0.04042693 -0.9991678 -0.005421312 0.04042693 -0.9991678 -0.005421312 0.04042693 -0.9991678 -0.005421312 0.04042693 -0.9991678 -0.005421312 0.04042693 -0.9991678 -0.005421312 0.04042693 -0.9991678 -0.005421312 0.04042693 -0.9991678 -0.005421312 0.04042693 -0.9991678 -0.005421312 0.08234732 0.008739014 -0.9965654 0.08234732 0.008739014 -0.9965654 0.08234732 0.008739014 -0.9965654 0.08234732 0.008739014 -0.9965654 -0.05281333 0.9854945 0.1612801 -0.05281333 0.9854945 0.1612801 -0.06389471 0.947566 0.3131072 -0.06389471 0.947566 0.3131072 -0.07340533 0.8862995 0.4572579 -0.07340533 0.8862995 0.4572579 -0.08111047 0.8031813 0.5901871 -0.08111047 0.8031813 0.5901871 -0.08681483 0.7003311 0.7085193 -0.08681483 0.7003311 0.7085193 -0.09038225 0.5802511 0.809407 -0.09038225 0.5802511 0.809407 -0.09172543 0.4458378 0.8904017 -0.09172543 0.4458378 0.8904017 -0.09080958 0.3004492 0.949465 -0.09080958 0.3004492 0.949465 -0.0876586 0.1477074 0.9851388 -0.0876586 0.1477074 0.9851388 -0.08234732 -0.008739014 0.9965654 -0.08234732 -0.008739014 0.9965654 -0.07500748 -0.1649701 0.9834423 -0.07500748 -0.1649701 0.9834423 -0.0658243 -0.3170718 0.9461145 -0.0658243 -0.3170718 0.9461145 -0.0550176 -0.4614107 0.8854791 -0.0550176 -0.4614107 0.8854791 -0.04285554 -0.5943908 0.8030336 -0.04285554 -0.5943908 0.8030336 -0.02964315 -0.71269 0.7008525 -0.02964315 -0.71269 0.7008525 -0.01570038 -0.8134553 0.5814155 -0.01570038 -0.8134553 0.5814155 -0.001363858 -0.8942343 0.447597 -0.001363858 -0.8942343 0.447597 0.013002 -0.952967 0.3027952 0.013002 -0.952967 0.3027952 0.02704472 -0.9882292 0.150571 0.02704472 -0.9882292 0.150571 -0.9957834 -0.03984165 -0.08263208 -0.9957834 -0.03984165 -0.08263208 -0.9957834 -0.03984165 -0.08263208 -0.9957834 -0.03984165 -0.08263208 -0.9957834 -0.03984165 -0.08263208 -0.9957834 -0.03984165 -0.08263208 -0.9957834 -0.03984165 -0.08263208 -0.9957834 -0.03984165 -0.08263208 -0.9957834 -0.03984165 -0.08263208 -0.9957834 -0.03984165 -0.08263208 -0.9957834 -0.03984165 -0.08263208 -0.9957834 -0.03984165 -0.08263208 -0.9957834 -0.03984165 -0.08263208 -0.9957834 -0.03984165 -0.08263208 -0.9957834 -0.03984165 -0.08263208 -0.9957834 -0.03984165 -0.08263208 -0.9957834 -0.03984165 -0.08263208 -0.9957834 -0.03984165 -0.08263208 -0.9957834 -0.03984165 -0.08263208 -0.9957834 -0.03984165 -0.08263208 -0.9957834 -0.03984165 -0.08263208 -0.9957834 -0.03984165 -0.08263208 -0.9957834 -0.03984165 -0.08263208 -0.9957834 -0.03984165 -0.08263208 -0.9957834 -0.03984165 -0.08263208 -0.9957834 -0.03984165 -0.08263208 -0.9957834 -0.03984165 -0.08263208 -0.9957834 -0.03984165 -0.08263208 -0.9957834 -0.03984165 -0.08263208 -0.9957834 -0.03984165 -0.08263208 -0.9957834 -0.03984165 -0.08263208 -0.9957834 -0.03984165 -0.08263208 -0.9957834 -0.03984165 -0.08263208 -0.9957834 -0.03984165 -0.08263208 -0.9957834 -0.03984165 -0.08263208 -0.9957834 -0.03984165 -0.08263208 -0.9957834 -0.03984165 -0.08263208 -0.9957834 -0.03984165 -0.08263208 -0.9957834 -0.03984165 -0.08263208 -0.9957834 -0.03984165 -0.08263208 -0.9957834 -0.03984165 -0.08263208 -0.9957834 -0.03984165 -0.08263208 -0.9957834 -0.03984165 -0.08263208 -0.9957834 -0.03984165 -0.08263208 -0.9957834 -0.03984165 -0.08263208 -0.9957834 -0.03984165 -0.08263208 -0.9957834 -0.03984165 -0.08263208 -0.9957834 -0.03984165 -0.08263208 -0.9957834 -0.03984165 -0.08263208 -0.9957834 -0.03984165 -0.08263208 0.9957834 0.03984165 0.08263208 0.9957834 0.03984165 0.08263208 0.9957834 0.03984165 0.08263208 0.9957834 0.03984165 0.08263208 0.9957834 0.03984165 0.08263208 0.9957834 0.03984165 0.08263208 0.9957834 0.03984165 0.08263208 0.9957834 0.03984165 0.08263208 0.9957834 0.03984165 0.08263208 0.9957834 0.03984165 0.08263208 0.9957834 0.03984165 0.08263208 0.9957834 0.03984165 0.08263208 0.9957834 0.03984165 0.08263208 0.9957834 0.03984165 0.08263208 0.9957834 0.03984165 0.08263208 0.9957834 0.03984165 0.08263208 0.9957834 0.03984165 0.08263208 0.9957834 0.03984165 0.08263208 0.9957834 0.03984165 0.08263208 0.9957834 0.03984165 0.08263208 0.9957834 0.03984165 0.08263208 0.9957834 0.03984165 0.08263208 0.9957834 0.03984165 0.08263208 0.9957834 0.03984165 0.08263208 0.9957834 0.03984165 0.08263208 0.9957834 0.03984165 0.08263208 0.9957834 0.03984165 0.08263208 0.9957834 0.03984165 0.08263208 0.9957834 0.03984165 0.08263208 0.9957834 0.03984165 0.08263208 0.9957834 0.03984165 0.08263208 0.9957834 0.03984165 0.08263208 0.9957834 0.03984165 0.08263208 0.9957834 0.03984165 0.08263208 0.9957834 0.03984165 0.08263208 0.9957834 0.03984165 0.08263208 0.9957834 0.03984165 0.08263208 0.9957834 0.03984165 0.08263208 0.9957834 0.03984165 0.08263208 0.9957834 0.03984165 0.08263208 0.9957834 0.03984165 0.08263208 0.9957834 0.03984165 0.08263208 0.9957834 0.03984165 0.08263208 0.9957834 0.03984165 0.08263208 0.9957834 0.03984165 0.08263208 0.9957834 0.03984165 0.08263208 0.9957834 0.03984165 0.08263208 0.9957834 0.03984165 0.08263208 0.9957834 0.03984165 0.08263208 0.9957834 0.03984165 0.08263208 0.04042693 -0.9991678 -0.005421312 0.05832717 -0.9702219 -0.2350902 0.05832717 -0.9702219 -0.2350902 0.07308285 -0.8889783 -0.4520802 0.07308285 -0.8889783 -0.4520802 0.08390223 -0.7597622 -0.6447649 0.08390223 -0.7597622 -0.6447649 0.09019468 -0.5896184 -0.8026301 0.09019468 -0.5896184 -0.8026301 0.09162506 -0.3877535 -0.917198 0.09162506 -0.3877535 -0.917198 0.08811676 -0.1649133 -0.982364 0.08811676 -0.1649133 -0.982364 0.07985913 0.06678216 -0.9945666 0.07985913 0.06678216 -0.9945666 0.06729135 0.2949663 -0.9531352 0.06729135 0.2949663 -0.9531352 0.05110286 0.5071356 -0.8603499 0.05110286 0.5071356 -0.8603499 0.03215813 0.6919977 -0.721183 0.03215813 0.6919977 -0.721183 0.01146896 0.839627 -0.5430424 0.01146896 0.839627 -0.5430424 -0.009824303 0.941899 -0.3357525 -0.009824303 0.941899 -0.3357525 -0.0305926 0.993425 -0.1103214 -0.0305926 0.993425 -0.1103214 -0.04971444 0.9913957 0.1210907 -0.04971444 0.9913957 0.1210907 -0.06615343 0.9359211 0.3459413 -0.06615343 0.9359211 0.3459413 -0.07902402 0.8300235 0.5521016 -0.07902402 0.8300235 0.5521016 -0.08764102 0.6792842 0.7286234 -0.08764102 0.6792842 0.7286234 -0.09152846 0.4919991 0.865771 -0.09152846 0.4919991 0.865771 -0.09048292 0.2782227 0.9562452 -0.09048292 0.2782227 0.9562452 -0.08455725 0.04933367 0.9951966 -0.08455725 0.04933367 0.9951966 -0.07407535 -0.1821258 0.980481 -0.07407535 -0.1821258 0.980481 -0.05959826 -0.4038019 0.9129031 -0.05959826 -0.4038019 0.9129031 -0.04191479 -0.6036384 0.7961557 -0.04191479 -0.6036384 0.7961557 -0.02196678 -0.7709974 0.6364593 -0.02196678 -0.7709974 0.6364593 -0.0008282929 -0.896822 0.4423907 -0.0008282929 -0.896822 0.4423907 0.02034743 -0.9742525 0.2245398 0.02034743 -0.9742525 0.2245398 0.04042693 -0.9991678 -0.005421312 -0.9957834 -0.03984165 -0.08263208 -0.9957834 -0.03984165 -0.08263208 -0.9957834 -0.03984165 -0.08263208 -0.9957834 -0.03984165 -0.08263208 -0.9957834 -0.03984165 -0.08263208 -0.9957834 -0.03984165 -0.08263208 -0.9957834 -0.03984165 -0.08263208 -0.9957834 -0.03984165 -0.08263208 -0.9957834 -0.03984165 -0.08263208 -0.9957834 -0.03984165 -0.08263208 -0.9957834 -0.03984165 -0.08263208 -0.9957834 -0.03984165 -0.08263208 -0.9957834 -0.03984165 -0.08263208 -0.9957834 -0.03984165 -0.08263208 -0.9957834 -0.03984165 -0.08263208 -0.9957834 -0.03984165 -0.08263208 -0.9957834 -0.03984165 -0.08263208 -0.9957834 -0.03984165 -0.08263208 -0.9957834 -0.03984165 -0.08263208 -0.9957834 -0.03984165 -0.08263208 -0.9957834 -0.03984165 -0.08263208 -0.9957834 -0.03984165 -0.08263208 -0.9957834 -0.03984165 -0.08263208 -0.9957834 -0.03984165 -0.08263208 -0.9957834 -0.03984165 -0.08263208 -0.9957834 -0.03984165 -0.08263208 -0.9957834 -0.03984165 -0.08263208 -0.9957834 -0.03984165 -0.08263208</float_array>
          <technique_common>
            <accessor count="532" source="#normals-array-array" stride="3">
              <param type="float" name="X"/>
              <param type="float" name="Y"/>
              <param type="float" name="Z"/>
            </accessor>
          </technique_common>
        </source>
        <vertices id="verts-array-vertices">
          <input semantic="POSITION" source="#verts-array"/>
        </vertices>
        <triangles count="528" material="material0">
          <input offset="0" semantic="VERTEX" source="#verts-array-vertices"/>
          <input offset="1" semantic="NORMAL" source="#normals-array"/>
          <p>0 0 1 1 2 2 3 3 2 2 1 1 2 2 3 3 4 4 5 5 6 6 2 2 7 7 2 2 6 6 2 2 7 7 0 0 8 8 9 9 2 2 10 10 2 2 9 9 2 2 10 10 5 5 11 11 12 12 2 2 13 13 2 2 12 12 2 2 13 13 8 8 14 14 15 15 2 2 16 16 2 2 15 15 2 2 16 16 11 11 17 17 18 18 2 2 19 19 2 2 18 18 2 2 19 19 14 14 20 20 21 21 2 2 22 22 2 2 21 21 2 2 22 22 17 17 23 23 24 24 2 2 25 25 2 2 24 24 2 2 25 25 20 20 4 4 26 26 2 2 27 27 2 2 26 26 2 2 27 27 23 23 28 28 29 29 30 30 31 31 30 30 29 29 30 30 31 31 32 32 33 33 32 32 31 31 32 32 33 33 34 34 35 35 34 34 33 33 34 34 35 35 36 36 37 37 36 36 35 35 36 36 37 37 38 38 39 39 38 38 37 37 38 38 39 39 40 40 41 41 40 40 39 39 40 40 41 41 42 42 43 43 42 42 41 41 42 42 43 43 44 44 45 45 44 44 43 43 44 44 45 45 46 46 47 47 46 46 45 45 46 46 47 47 48 48 49 49 48 48 47 47 48 48 49 49 50 50 51 51 50 50 49 49 50 50 51 51 52 52 53 53 52 52 51 51 52 52 53 53 54 54 55 55 54 54 53 53 54 54 55 55 56 56 57 57 56 56 55 55 56 56 57 57 58 58 59 59 58 58 57 57 58 58 59 59 60 60 61 61 60 60 59 59 60 60 61 61 62 62 63 63 62 62 61 61 62 62 63 63 64 64 65 65 64 64 63 63 64 64 65 65 66 66 67 67 66 66 65 65 66 66 67 67 68 68 69 69 68 68 67 67 68 68 69 69 70 70 71 71 70 70 69 69 70 70 71 71 72 72 73 73 72 72 71 71 72 72 73 73 74 74 75 75 74 74 73 73 74 74 75 75 76 76 77 77 76 76 75 75 76 76 77 77 78 78 79 79 78 78 77 77 78 78 79 79 80 80 81 81 80 80 79 79 80 80 81 81 28 28 29 29 28 28 81 81 82 82 83 83 84 84 85 85 84 84 83 83 84 84 85 85 86 86 87 87 86 86 85 85 86 86 87 87 88 88 89 89 88 88 87 87 88 88 89 89 90 90 91 91 90 90 89 89 90 90 91 91 92 92 93 93 92 92 91 91 92 92 93 93 94 94 95 95 94 94 93 93 94 94 95 95 96 96 97 97 96 96 95 95 96 96 97 97 98 98 99 99 98 98 97 97 98 98 99 99 100 100 101 101 100 100 99 99 100 100 101 101 102 102 103 103 102 102 101 101 102 102 103 103 104 104 105 105 104 104 103 103 104 104 105 105 106 106 107 107 106 106 105 105 106 106 107 107 108 108 109 109 108 108 107 107 108 108 109 109 110 110 111 111 110 110 109 109 110 110 111 111 112 112 113 113 112 112 111 111 112 112 113 113 114 114 115 115 114 114 113 113 114 114 115 115 116 116 117 117 116 116 115 115 116 116 117 117 118 118 119 119 118 118 117 117 118 118 119 119 120 120 121 121 120 120 119 119 120 120 121 121 122 122 123 123 122 122 121 121 122 122 123 123 124 124 125 125 124 124 123 123 124 124 125 125 126 126 127 127 126 126 125 125 126 126 127 127 128 128 129 129 128 128 127 127 128 128 129 129 130 130 131 131 130 130 129 129 130 130 131 131 132 132 133 133 132 132 131 131 132 132 133 133 134 134 135 135 134 134 133 133 134 134 135 135 82 82 83 83 82 82 135 135 136 136 137 137 138 138 139 139 138 138 137 137 138 138 139 139 140 140 141 141 140 140 139 139 140 140 141 141 142 142 143 143 142 142 141 141 142 142 143 143 144 144 145 145 144 144 143 143 144 144 145 145 146 146 147 147 146 146 145 145 146 146 147 147 148 148 149 149 148 148 147 147 148 148 149 149 150 150 151 151 150 150 149 149 150 150 151 151 152 152 153 153 152 152 151 151 152 152 153 153 154 154 155 155 154 154 153 153 154 154 155 155 156 156 157 157 156 156 155 155 156 156 157 157 158 158 159 159 158 158 157 157 158 158 159 159 160 160 161 161 160 160 159 159 160 160 161 161 162 162 163 163 162 162 161 161 162 162 163 163 164 164 165 165 164 164 163 163 164 164 165 165 166 166 167 167 166 166 165 165 166 166 167 167 168 168 169 169 168 168 167 167 168 168 169 169 170 170 171 171 170 170 169 169 170 170 171 171 172 172 173 173 172 172 171 171 172 172 173 173 174 174 175 175 174 174 173 173 174 174 175 175 176 176 177 177 176 176 175 175 176 176 177 177 178 178 179 179 178 178 177 177 178 178 179 179 180 180 181 181 180 180 179 179 180 180 181 181 182 182 183 183 182 182 181 181 182 182 183 183 184 184 185 185 184 184 183 183 184 184 185 185 186 186 187 187 186 186 185 185 186 186 187 187 188 188 189 189 188 188 187 187 188 188 189 189 136 136 137 137 136 136 189 189 190 190 191 191 192 192 193 193 192 192 191 191 192 192 193 193 194 194 195 195 196 196 192 192 197 197 192 192 196 196 192 192 197 197 190 190 198 198 199 199 192 192 200 200 192 192 199 199 192 192 200 200 195 195 201 201 202 202 192 192 203 203 192 192 202 202 192 192 203 203 198 198 204 204 205 205 192 192 206 206 192 192 205 205 192 192 206 206 201 201 207 207 208 208 192 192 209 209 192 192 208 208 192 192 209 209 204 204 210 210 211 211 192 192 212 212 192 192 211 211 192 192 212 212 207 207 213 213 214 214 192 192 215 215 192 192 214 214 192 192 215 215 210 210 194 194 216 216 192 192 217 217 192 192 216 216 192 192 217 217 213 213 218 218 219 219 220 220 221 221 220 220 219 219 220 220 221 221 222 222 223 223 224 224 220 220 225 225 220 220 224 224 220 220 225 225 218 218 226 226 227 227 220 220 228 228 220 220 227 227 220 220 228 228 223 223 229 229 230 230 220 220 231 231 220 220 230 230 220 220 231 231 226 226 232 232 233 233 220 220 234 234 220 220 233 233 220 220 234 234 229 229 235 235 236 236 220 220 237 237 220 220 236 236 220 220 237 237 232 232 238 238 239 239 220 220 240 240 220 220 239 239 220 220 240 240 235 235 241 241 242 242 220 220 243 243 220 220 242 242 220 220 243 243 238 238 222 222 244 244 220 220 245 245 220 220 244 244 220 220 245 245 241 241 246 246 247 247 248 248 249 249 248 248 247 247 248 248 249 249 250 250 251 251 250 250 249 249 250 250 251 251 252 252 252 252 253 253 250 250 254 254 250 250 253 253 250 250 254 254 255 255 256 256 257 257 258 258 259 259 258 258 257 257 256 256 260 260 257 257 261 261 257 257 260 260 257 257 261 261 262 262 263 263 262 262 261 261 262 262 263 263 264 264 255 255 265 265 250 250 266 266 250 250 265 265 250 250 266 266 257 257 267 267 257 257 266 266 257 257 267 267 259 259 264 264 268 268 262 262 269 269 262 262 268 268 262 262 269 269 270 270 270 270 271 271 262 262 272 272 262 262 271 271 262 262 272 272 248 248 273 273 248 248 272 272 248 248 273 273 274 274 274 274 275 275 248 248 276 276 248 248 275 275 248 248 276 276 246 246 277 277 278 278 279 279 280 280 281 281 282 282 283 283 282 282 281 281 282 282 283 283 284 284 284 284 285 285 282 282 286 286 282 282 285 285 282 282 286 286 287 287 288 288 287 287 286 286 287 287 288 288 289 289 277 277 279 279 282 282 290 290 282 282 279 279 282 282 290 290 280 280 289 289 291 291 287 287 292 292 287 287 291 291 287 287 292 292 293 293 294 294 295 295 296 296 287 287 296 296 295 295 296 296 287 287 297 297 293 293 297 297 287 287 295 295 298 298 277 277 299 299 277 277 298 298 277 277 299 299 300 300 294 294 301 301 295 295 302 302 295 295 301 301 295 295 302 302 303 303 300 300 304 304 277 277 305 305 277 277 304 304 277 277 305 305 278 278 303 303 306 306 295 295 307 307 295 295 306 306 295 295 307 307 298 298 308 308 309 309 310 310 311 311 310 310 309 309 248 248 250 250 312 312 248 248 312 312 313 313 314 314 313 313 312 312 313 313 314 314 315 315 316 316 315 315 314 314 315 315 316 316 317 317 318 318 317 317 316 316 317 317 318 318 319 319 320 320 319 319 318 318 319 319 320 320 321 321 322 322 321 321 320 320 321 321 322 322 323 323 324 324 323 323 322 322 323 323 324 324 325 325 326 326 325 325 324 324 325 325 326 326 327 327 328 328 327 327 326 326 327 327 328 328 329 329 330 330 329 329 328 328 329 329 330 330 331 331 332 332 331 331 330 330 331 331 332 332 333 333 334 334 333 333 332 332 333 333 334 334 335 335 336 336 335 335 334 334 335 335 336 336 337 337 338 338 337 337 336 336 337 337 338 338 339 339 340 340 339 339 338 338 339 339 340 340 341 341 342 342 341 341 340 340 341 341 342 342 343 343 344 344 343 343 342 342 343 343 344 344 345 345 346 346 345 345 344 344 345 345 346 346 347 347 348 348 347 347 346 346 347 347 348 348 349 349 277 277 349 349 348 348 349 349 277 277 282 282 350 350 351 351 352 352 353 353 354 354 355 355 356 356 355 355 354 354 355 355 356 356 357 357 358 358 359 359 360 360 361 361 360 360 359 359 360 360 361 361 353 353 362 362 353 353 361 361 353 353 362 362 354 354 363 363 364 364 365 365 364 364 366 366 365 365 367 367 365 365 366 366 365 365 367 367 350 350 368 368 350 350 367 367 350 350 368 368 351 351 369 369 370 370 371 371 372 372 371 371 370 370 371 371 372 372 365 365 373 373 365 365 372 372 365 365 373 373 363 363 352 352 374 374 350 350 375 375 350 350 374 374 350 350 375 375 376 376 377 377 378 378 379 379 380 380 379 379 378 378 379 379 380 380 358 358 381 381 358 358 380 380 358 358 381 381 359 359 371 371 382 382 369 369 383 383 369 369 382 382 369 369 383 383 384 384 385 385 384 384 383 383 384 384 385 385 377 377 386 386 377 377 385 385 377 377 386 386 378 378 356 356 387 387 357 357 388 388 357 357 387 387 357 357 388 388 389 389 390 390 389 389 388 388 389 389 390 390 391 391 375 375 392 392 376 376 393 393 376 376 392 392 376 376 393 393 394 394 395 395 394 394 393 393 394 394 395 395 396 396 397 397 396 396 395 395 396 396 397 397 398 398 391 391 398 398 397 397 398 398 391 391 399 399 390 390 399 399 391 391 400 400 401 401 402 402 403 403 404 404 401 401 405 405 401 401 404 404 401 401 405 405 402 402 402 402 406 406 400 400 407 407 400 400 406 406 400 400 407 407 408 408 409 409 410 410 411 411 412 412 411 411 410 410 411 411 412 412 413 413 414 414 415 415 416 416 417 417 418 418 419 419 420 420 419 419 418 418 419 419 420 420 409 409 421 421 409 409 420 420 409 409 421 421 410 410 408 408 422 422 400 400 423 423 400 400 422 422 400 400 423 423 424 424 425 425 426 426 427 427 428 428 427 427 426 426 427 427 428 428 429 429 424 424 429 429 428 428 429 429 424 424 430 430 423 423 430 430 424 424 412 412 431 431 413 413 432 432 413 413 431 431 413 413 432 432 433 433 434 434 433 433 432 432 433 433 434 434 425 425 435 435 425 425 434 434 425 425 435 435 426 426 416 416 415 415 401 401 436 436 401 401 415 415 401 401 436 436 403 403 437 437 438 438 439 439 440 440 439 439 438 438 439 439 440 440 417 417 441 441 417 417 440 440 417 417 441 441 418 418 414 414 416 416 442 442 443 443 442 442 416 416 442 442 443 443 444 444 443 443 445 445 444 444 446 446 444 444 445 445 444 444 446 446 447 447 448 448 447 447 446 446 447 447 448 448 437 437 449 449 437 437 448 448 437 437 449 449 438 438 450 450 451 451 452 452 453 453 452 452 451 451 452 452 453 453 454 454 455 455 454 454 453 453 454 454 455 455 456 456 457 457 456 456 455 455 456 456 457 457 458 458 459 459 458 458 457 457 458 458 459 459 460 460 461 461 460 460 459 459 460 460 461 461 462 462 463 463 462 462 461 461 462 462 463 463 464 464 465 465 464 464 463 463 464 464 465 465 466 466 467 467 466 466 465 465 466 466 467 467 468 468 469 469 468 468 467 467 468 468 469 469 470 470 471 471 470 470 469 469 470 470 471 471 472 472 473 473 472 472 471 471 472 472 473 473 474 474 475 475 474 474 473 473 474 474 475 475 476 476 477 477 476 476 475 475 476 476 477 477 478 478 479 479 478 478 477 477 478 478 479 479 480 480 481 481 480 480 479 479 480 480 481 481 482 482 483 483 482 482 481 481 482 482 483 483 484 484 485 485 484 484 483 483 484 484 485 485 486 486 487 487 486 486 485 485 486 486 487 487 488 488 489 489 488 488 487 487 488 488 489 489 490 490 491 491 490 490 489 489 490 490 491 491 492 492 493 493 492 492 491 491 492 492 493 493 494 494 495 495 494 494 493 493 494 494 495 495 496 496 497 497 496 496 495 495 496 496 497 497 498 498 499 499 498 498 497 497 498 498 499 499 500 500 501 501 500 500 499 499 500 500 501 501 502 502 503 503 502 502 501 501 502 502 503 503 450 450 451 451 450 450 503 503 504 504 505 505 506 506 507 507 506 506 505 505 506 506 507 507 508 508 509 509 510 510 506 506 511 511 506 506 510 510 506 506 511 511 504 504 512 512 513 513 506 506 514 514 506 506 513 513 506 506 514 514 509 509 515 515 516 516 506 506 517 517 506 506 516 516 506 506 517 517 512 512 518 518 519 519 506 506 520 520 506 506 519 519 506 506 520 520 515 515 521 521 522 522 506 506 523 523 506 506 522 522 506 506 523 523 518 518 524 524 525 525 506 506 526 526 506 506 525 525 506 506 526 526 521 521 527 527 528 528 506 506 529 529 506 506 528 528 506 506 529 529 524 524 508 508 530 530 506 506 531 531 506 506 530 530 506 506 531 531 527 527</p>
        </triangles>
      </mesh>
    </geometry>
  </library_geometries>
  <library_materials>
    <material id="9efd4050427a4297a7d53f3e8656a529" name="defaultmaterial">
      <instance_effect url="#4e5bd1275bdb440fa648ad1c3f13526e"/>
    </material>
  </library_materials>
  <library_visual_scenes>
    <visual_scene id="scene">
      <node id="node0" name="node0">
        <instance_geometry url="#39f463ab6f5545c5b791d44a590f8215">
          <bind_material>
            <technique_common>
              <instance_material symbol="material0" target="#9efd4050427a4297a7d53f3e8656a529"/>
            </technique_common>
          </bind_material>
        </instance_geometry>
      </node>
    </visual_scene>
  </library_visual_scenes>
  <scene>
    <instance_visual_scene url="#scene"/>
  </scene>
</COLLADA>
