<COLLADA xmlns="http://www.collada.org/2005/11/COLLADASchema" version="1.4.1">
  <asset>
    <created>2026-09-21T21:23:01.935376</created>
    <modified>2026-09-21T21:23:01.935376</modified>
    <up_axis>Y_UP</up_axis>
  </asset>
  <library_effects>
    <effect id="f50e1369160e496c9469c3cdefd97217" name="f50e1369160e496c9469c3cdefd97217">
      <profile_COMMON>
        <technique sid="common">
          <phong>
            <emission>
              <color>0.0 0.0 0.0 1.0</color>
            </emission>
            <ambient>
              <color>0.0 0.0 0.0 1.0</color>
            </ambient>
            <diffuse>
              <color>0.8941176470588236 0.8941176470588236 0.8941176470588236 1.0</color>
            </diffuse>
            <specular>
              <color>0.0 0.0 0.0 1.0</color>
            </specular>
            <shininess>
              <float>0.0</float>
            </shininess>
            <reflective>
              <color>0.0 0.0 0.0 1.0</color>
            </reflective>
            <reflectivity>
              <float>0.0</float>
            </reflectivity>
            <transparent>
              <color>0.0 0.0 0.0 1.0</color>
            </transparent>
            <transparency>
              <float>1.0</float>
            </transparency>
          </phong>
        </technique>
        <extra>
          <technique profile="GOOGLEEARTH">
            <double_sided>0</double_sided>
          </technique>
        </extra>
      </profile_COMMON>
    </effect>
  </library_effects>
  <library_geometries>
    <geometry id="467bd62939114094b92642295b62696e" name="adfa638bff2345f8b0db7b3064e9f62a">
      <mesh>
        <source id="verts-array">
          <float_array count="1182" id="verts-array-array">0.05999995 -0.02411558 -1.514429e-15 0.05956295 -0.02411558 0.0072322 -4.526408e-08 -0.02411558 -1.511099e-15 0.05610095 -0.02411558 -0.0212763 0.05825695 -0.02411558 -0.0143589 0.05956295 -0.02411558 -0.0072322 0.04491095 -0.02411558 -0.0397874 0.04937895 -0.02411558 -0.0340839 0.05312695 -0.02411558 -0.0278834 0.02788295 -0.02411558 -0.0531274 0.03408395 -0.02411558 -0.049379 0.03978695 -0.02411558 -0.0449106 0.007231955 -0.02411558 -0.0595625 0.01435895 -0.02411558 -0.0582565 0.02127595 -0.02411558 -0.056101 -0.01435905 -0.02411558 -0.0582565 -0.007232045 -0.02411558 -0.0595625 -4.526408e-08 -0.02411558 -0.06 -0.03408405 -0.02411558 -0.049379 -0.02788305 -0.02411558 -0.0531274 -0.02127605 -0.02411558 -0.056101 -0.04937905 -0.02411558 -0.0340839 -0.04491105 -0.02411558 -0.0397874 -0.03978705 -0.02411558 -0.0449106 -0.05825655 -0.02411558 -0.0143589 -0.05610105 -0.02411558 -0.0212763 -0.05312745 -0.02411558 -0.0278834 -0.05956255 -0.02411558 0.0072322 -0.06000005 -0.02411558 -1.515109e-15 -0.05956255 -0.02411558 -0.0072322 -0.05312745 -0.02411558 0.0278834 -0.05610105 -0.02411558 0.0212763 -0.05825655 -0.02411558 0.0143589 -0.03978705 -0.02411558 0.0449106 -0.04491105 -0.02411558 0.0397874 -0.04937905 -0.02411558 0.0340839 -0.02127605 -0.02411558 0.056101 -0.02788305 -0.02411558 0.0531274 -0.03408405 -0.02411558 0.049379 -4.526408e-08 -0.02411558 0.06 -0.007232045 -0.02411558 0.0595625 -0.01435905 -0.02411558 0.0582565 0.02127595 -0.02411558 0.056101 0.01435895 -0.02411558 0.0582565 0.007231955 -0.02411558 0.0595625 0.03978695 -0.02411558 0.0449106 0.03408395 -0.02411558 0.049379 0.02788295 -0.02411558 0.0531274 0.05312695 -0.02411558 0.0278834 0.04937895 -0.02411558 0.0340839 0.04491095 -0.02411558 0.0397874 0.05825695 -0.02411558 0.0143589 0.05610095 -0.02411558 0.0212763 -0.04700005 0.02788442 -2.359479e-15 -0.04656205 0.01488442 0.00639983 -0.04656205 0.02788442 0.00639983 -0.04525705 0.01488442 0.0126804 -0.04525705 0.02788442 0.0126804 -0.04310905 0.01488442 0.0187249 -0.04310905 0.02788442 0.0187249 -0.04015805 0.01488442 0.0244204 -0.04015805 0.02788442 0.0244204 -0.03645805 0.01488442 0.0296611 -0.03645805 0.02788442 0.0296611 -0.03208005 0.01488442 0.0343493 -0.03208005 0.02788442 0.0343493 -0.02710405 0.01488442 0.0383976 -0.02710405 0.02788442 0.0383976 -0.02162305 0.01488442 0.0417306 -0.02162305 0.02788442 0.0417306 -0.01573905 0.01488442 0.0442863 -0.01573905 0.02788442 0.0442863 -0.009562045 0.01488442 0.046017 -0.009562045 0.02788442 0.046017 -0.003207045 0.01488442 0.0468904 -0.003207045 0.02788442 0.0468904 0.003206955 0.01488442 0.0468904 0.003206955 0.02788442 0.0468904 0.009561955 0.01488442 0.046017 0.009561955 0.02788442 0.046017 0.01573895 0.01488442 0.0442863 0.01573895 0.02788442 0.0442863 0.02162295 0.01488442 0.0417306 0.02162295 0.02788442 0.0417306 0.02710395 0.01488442 0.0383976 0.02710395 0.02788442 0.0383976 0.03207995 0.01488442 0.0343493 0.03207995 0.02788442 0.0343493 0.03645795 0.01488442 0.0296611 0.03645795 0.02788442 0.0296611 0.04015795 0.01488442 0.0244204 0.04015795 0.02788442 0.0244204 0.04310895 0.01488442 0.0187249 0.04310895 0.02788442 0.0187249 0.04525695 0.01488442 0.0126804 0.04525695 0.02788442 0.0126804 0.04656195 0.01488442 0.00639983 0.04656195 0.02788442 0.00639983 0.04699995 0.01488442 -2.353729e-15 0.04699995 0.02788442 -2.353729e-15 0.04656195 0.01488442 -0.00639983 0.04656195 0.02788442 -0.00639983 0.04525695 0.01488442 -0.0126804 0.04525695 0.02788442 -0.0126804 0.04310895 0.01488442 -0.0187249 0.04310895 0.02788442 -0.0187249 0.04015795 0.01488442 -0.0244204 0.04015795 0.02788442 -0.0244204 0.03645795 0.01488442 -0.0296611 0.03645795 0.02788442 -0.0296611 0.03207995 0.01488442 -0.0343493 0.03207995 0.02788442 -0.0343493 0.02710395 0.01488442 -0.0383976 0.02710395 0.02788442 -0.0383976 0.02162295 0.01488442 -0.0417306 0.02162295 0.02788442 -0.0417306 0.01573895 0.01488442 -0.0442863 0.01573895 0.02788442 -0.0442863 0.009561955 0.01488442 -0.046017 0.009561955 0.02788442 -0.046017 0.003206955 0.01488442 -0.0468904 0.003206955 0.02788442 -0.0468904 -0.003207045 0.01488442 -0.0468904 -0.003207045 0.02788442 -0.0468904 -0.009562045 0.01488442 -0.046017 -0.009562045 0.02788442 -0.046017 -0.01573905 0.01488442 -0.0442863 -0.01573905 0.02788442 -0.0442863 -0.02162305 0.01488442 -0.0417306 -0.02162305 0.02788442 -0.0417306 -0.02710405 0.01488442 -0.0383976 -0.02710405 0.02788442 -0.0383976 -0.03208005 0.01488442 -0.0343493 -0.03208005 0.02788442 -0.0343493 -0.03645805 0.01488442 -0.0296611 -0.03645805 0.02788442 -0.0296611 -0.04015805 0.01488442 -0.0244204 -0.04015805 0.02788442 -0.0244204 -0.04310905 0.01488442 -0.0187249 -0.04310905 0.02788442 -0.0187249 -0.04525705 0.01488442 -0.0126804 -0.04525705 0.02788442 -0.0126804 -0.04656205 0.01488442 -0.00639983 -0.04656205 0.02788442 -0.00639983 -0.04700005 0.01488442 -2.359479e-15 0.05999995 0.01488442 -1.510889e-15 0.05956295 -0.02411558 -0.0072322 0.05956295 0.01488442 -0.0072322 0.05825695 -0.02411558 -0.0143589 0.05825695 0.01488442 -0.0143589 0.05610095 -0.02411558 -0.0212763 0.05610095 0.01488442 -0.0212763 0.05312695 -0.02411558 -0.0278834 0.05312695 0.01488442 -0.0278834 0.04937895 -0.02411558 -0.0340839 0.04937895 0.01488442 -0.0340839 0.04491095 -0.02411558 -0.0397874 0.04491095 0.01488442 -0.0397874 0.03978695 -0.02411558 -0.0449106 0.03978695 0.01488442 -0.0449106 0.03408395 -0.02411558 -0.049379 0.03408395 0.01488442 -0.049379 0.02788295 -0.02411558 -0.0531274 0.02788295 0.01488442 -0.0531274 0.02127595 -0.02411558 -0.056101 0.02127595 0.01488442 -0.056101 0.01435895 -0.02411558 -0.0582565 0.01435895 0.01488442 -0.0582565 0.007231955 -0.02411558 -0.0595625 0.007231955 0.01488442 -0.0595625 -4.526408e-08 -0.02411558 -0.06 -4.526408e-08 0.01488442 -0.06 -0.007232045 -0.02411558 -0.0595625 -0.007232045 0.01488442 -0.0595625 -0.01435905 -0.02411558 -0.0582565 -0.01435905 0.01488442 -0.0582565 -0.02127605 -0.02411558 -0.056101 -0.02127605 0.01488442 -0.056101 -0.02788305 -0.02411558 -0.0531274 -0.02788305 0.01488442 -0.0531274 -0.03408405 -0.02411558 -0.049379 -0.03408405 0.01488442 -0.049379 -0.03978705 -0.02411558 -0.0449106 -0.03978705 0.01488442 -0.0449106 -0.04491105 -0.02411558 -0.0397874 -0.04491105 0.01488442 -0.0397874 -0.04937905 -0.02411558 -0.0340839 -0.04937905 0.01488442 -0.0340839 -0.05312745 -0.02411558 -0.0278834 -0.05312745 0.01488442 -0.0278834 -0.05610105 -0.02411558 -0.0212763 -0.05610105 0.01488442 -0.0212763 -0.05825655 -0.02411558 -0.0143589 -0.05825655 0.01488442 -0.0143589 -0.05956255 -0.02411558 -0.0072322 -0.05956255 0.01488442 -0.0072322 -0.06000005 -0.02411558 -1.515109e-15 -0.06000005 0.01488442 -1.511579e-15 -0.05956255 -0.02411558 0.0072322 -0.05956255 0.01488442 0.0072322 -0.05825655 -0.02411558 0.0143589 -0.05825655 0.01488442 0.0143589 -0.05610105 -0.02411558 0.0212763 -0.05610105 0.01488442 0.0212763 -0.05312745 -0.02411558 0.0278834 -0.05312745 0.01488442 0.0278834 -0.04937905 -0.02411558 0.0340839 -0.04937905 0.01488442 0.0340839 -0.04491105 -0.02411558 0.0397874 -0.04491105 0.01488442 0.0397874 -0.03978705 -0.02411558 0.0449106 -0.03978705 0.01488442 0.0449106 -0.03408405 -0.02411558 0.049379 -0.03408405 0.01488442 0.049379 -0.02788305 -0.02411558 0.0531274 -0.02788305 0.01488442 0.0531274 -0.02127605 -0.02411558 0.056101 -0.02127605 0.01488442 0.056101 -0.01435905 -0.02411558 0.0582565 -0.01435905 0.01488442 0.0582565 -0.007232045 -0.02411558 0.0595625 -0.007232045 0.01488442 0.0595625 -4.526408e-08 -0.02411558 0.06 -4.526408e-08 0.01488442 0.06 0.007231955 -0.02411558 0.0595625 0.007231955 0.01488442 0.0595625 0.01435895 -0.02411558 0.0582565 0.01435895 0.01488442 0.0582565 0.02127595 -0.02411558 0.056101 0.02127595 0.01488442 0.056101 0.02788295 -0.02411558 0.0531274 0.02788295 0.01488442 0.0531274 0.03408395 -0.02411558 0.049379 0.03408395 0.01488442 0.049379 0.03978695 -0.02411558 0.0449106 0.03978695 0.01488442 0.0449106 0.04491095 -0.02411558 0.0397874 0.04491095 0.01488442 0.0397874 0.04937895 -0.02411558 0.0340839 0.04937895 0.01488442 0.0340839 0.05312695 -0.02411558 0.0278834 0.05312695 0.01488442 0.0278834 0.05610095 -0.02411558 0.0212763 0.05610095 0.01488442 0.0212763 0.05825695 -0.02411558 0.0143589 0.05825695 0.01488442 0.0143589 0.05956295 -0.02411558 0.0072322 0.05956295 0.01488442 0.0072322 0.05999995 -0.02411558 -1.514429e-15 0.04015795 0.01488442 0.0244204 0.05312695 0.01488442 0.0278834 0.04310895 0.01488442 0.0187249 0.05610095 0.01488442 0.0212763 0.04525695 0.01488442 0.0126804 0.05825695 0.01488442 0.0143589 0.04656195 0.01488442 0.00639983 0.05956295 0.01488442 0.0072322 0.04699995 0.01488442 -2.353729e-15 0.05999995 0.01488442 -1.496199e-15 0.04656195 0.01488442 -0.00639983 0.05956295 0.01488442 -0.0072322 0.04525695 0.01488442 -0.0126804 0.05825695 0.01488442 -0.0143589 0.04310895 0.01488442 -0.0187249 -0.04015805 0.01488442 -0.0244204 -0.05312745 0.01488442 -0.0278834 -0.04310905 0.01488442 -0.0187249 -0.05610105 0.01488442 -0.0212763 -0.04525705 0.01488442 -0.0126804 -0.05825655 0.01488442 -0.0143589 -0.04656205 0.01488442 -0.00639983 -0.05956255 0.01488442 -0.0072322 -0.04700005 0.01488442 -2.359479e-15 -0.06000005 0.01488442 -1.511579e-15 -0.04656205 0.01488442 0.00639983 -0.05956255 0.01488442 0.0072322 -0.04525705 0.01488442 0.0126804 -0.05825655 0.01488442 0.0143589 -0.04310905 0.01488442 0.0187249 -0.05610105 0.01488442 0.0212763 -0.05312745 0.01488442 0.0278834 -0.04015805 0.01488442 0.0244204 -0.04937905 0.01488442 0.0340839 -0.03645805 0.01488442 0.0296611 -0.04491105 0.01488442 0.0397874 -0.03208005 0.01488442 0.0343493 -0.03978705 0.01488442 0.0449106 -0.02710405 0.01488442 0.0383976 -0.03408405 0.01488442 0.049379 -0.02162305 0.01488442 0.0417306 -0.02788305 0.01488442 0.0531274 -0.01573905 0.01488442 0.0442863 -0.02127605 0.01488442 0.056101 -0.009562045 0.01488442 0.046017 -0.01435905 0.01488442 0.0582565 -0.003207045 0.01488442 0.0468904 -0.007232045 0.01488442 0.0595625 -4.526408e-08 0.01488442 0.06 0.003206955 0.01488442 0.0468904 0.007231955 0.01488442 0.0595625 0.009561955 0.01488442 0.046017 0.01435895 0.01488442 0.0582565 0.01573895 0.01488442 0.0442863 0.02127595 0.01488442 0.056101 0.02162295 0.01488442 0.0417306 0.02788295 0.01488442 0.0531274 0.02710395 0.01488442 0.0383976 0.03408395 0.01488442 0.049379 0.03207995 0.01488442 0.0343493 0.03978695 0.01488442 0.0449106 0.03645795 0.01488442 0.0296611 0.04491095 0.01488442 0.0397874 0.04937895 0.01488442 0.0340839 0.003206955 0.01488442 -0.0468904 -4.526408e-08 0.01488442 -0.06 -0.003207045 0.01488442 -0.0468904 -0.007232045 0.01488442 -0.0595625 -0.009562045 0.01488442 -0.046017 -0.01435905 0.01488442 -0.0582565 -0.01573905 0.01488442 -0.0442863 -0.02127605 0.01488442 -0.056101 -0.02162305 0.01488442 -0.0417306 -0.02788305 0.01488442 -0.0531274 -0.02710405 0.01488442 -0.0383976 -0.03408405 0.01488442 -0.049379 -0.03208005 0.01488442 -0.0343493 -0.03978705 0.01488442 -0.0449106 -0.03645805 0.01488442 -0.0296611 -0.04491105 0.01488442 -0.0397874 -0.04937905 0.01488442 -0.0340839 0.05610095 0.01488442 -0.0212763 0.05312695 0.01488442 -0.0278834 0.04015795 0.01488442 -0.0244204 0.04937895 0.01488442 -0.0340839 0.03645795 0.01488442 -0.0296611 0.04491095 0.01488442 -0.0397874 0.03207995 0.01488442 -0.0343493 0.03978695 0.01488442 -0.0449106 0.02710395 0.01488442 -0.0383976 0.03408395 0.01488442 -0.049379 0.02162295 0.01488442 -0.0417306 0.02788295 0.01488442 -0.0531274 0.01573895 0.01488442 -0.0442863 0.02127595 0.01488442 -0.056101 0.009561955 0.01488442 -0.046017 0.01435895 0.01488442 -0.0582565 0.007231955 0.01488442 -0.0595625 -0.04700005 0.02788442 -2.370989e-15 -0.04656205 0.02788442 0.00639983 -4.526408e-08 0.02788442 -2.359479e-15 -0.04310905 0.02788442 -0.0187249 -0.04525705 0.02788442 -0.0126804 -0.04656205 0.02788442 -0.00639983 -0.03208005 0.02788442 -0.0343493 -0.03645805 0.02788442 -0.0296611 -0.04015805 0.02788442 -0.0244204 -0.01573905 0.02788442 -0.0442863 -0.02162305 0.02788442 -0.0417306 -0.02710405 0.02788442 -0.0383976 0.003206955 0.02788442 -0.0468904 -0.003207045 0.02788442 -0.0468904 -0.009562045 0.02788442 -0.046017 0.02162295 0.02788442 -0.0417306 0.01573895 0.02788442 -0.0442863 0.009561955 0.02788442 -0.046017 0.03645795 0.02788442 -0.0296611 0.03207995 0.02788442 -0.0343493 0.02710395 0.02788442 -0.0383976 0.04525695 0.02788442 -0.0126804 0.04310895 0.02788442 -0.0187249 0.04015795 0.02788442 -0.0244204 0.04656195 0.02788442 0.00639983 0.04699995 0.02788442 -2.353729e-15 0.04656195 0.02788442 -0.00639983 0.04015795 0.02788442 0.0244204 0.04310895 0.02788442 0.0187249 0.04525695 0.02788442 0.0126804 0.02710395 0.02788442 0.0383976 0.03207995 0.02788442 0.0343493 0.03645795 0.02788442 0.0296611 0.009561955 0.02788442 0.046017 0.01573895 0.02788442 0.0442863 0.02162295 0.02788442 0.0417306 -0.009562045 0.02788442 0.046017 -0.003207045 0.02788442 0.0468904 0.003206955 0.02788442 0.0468904 -0.02710405 0.02788442 0.0383976 -0.02162305 0.02788442 0.0417306 -0.01573905 0.02788442 0.0442863 -0.04015805 0.02788442 0.0244204 -0.03645805 0.02788442 0.0296611 -0.03208005 0.02788442 0.0343493 -0.04525705 0.02788442 0.0126804 -0.04310905 0.02788442 0.0187249</float_array>
          <technique_common>
            <accessor count="394" source="#verts-array-array" stride="3">
              <param type="float" name="X"/>
              <param type="float" name="Y"/>
              <param type="float" name="Z"/>
            </accessor>
          </technique_common>
        </source>
        <source id="normals-array">
          <float_array count="1182" id="normals-array-array">0 -1 0 0 -1 0 0 -1 0 0 -1 0 0 -1 0 0 -1 0 0 -1 0 0 -1 0 0 -1 0 0 -1 0 0 -1 0 0 -1 0 0 -1 0 0 -1 0 0 -1 0 0 -1 0 0 -1 0 0 -1 0 0 -1 0 0 -1 0 0 -1 0 0 -1 0 0 -1 0 0 -1 0 0 -1 0 0 -1 0 0 -1 0 0 -1 0 0 -1 0 0 -1 0 0 -1 0 0 -1 0 0 -1 0 0 -1 0 0 -1 0 0 -1 0 0 -1 0 0 -1 0 0 -1 0 0 -1 0 0 -1 0 0 -1 0 0 -1 0 0 -1 0 0 -1 0 0 -1 0 0 -1 0 0 -1 0 0 -1 0 0 -1 0 0 -1 0 0 -1 0 0 -1 0 -1 0 -2.512981e-14 -0.9906846 0 0.1361762 -0.9906846 0 0.1361762 -0.962924 0 0.2697729 -0.962924 0 0.2697729 -0.9172223 0 0.3983757 -0.9172223 0 0.3983757 -0.854402 0 0.5196125 -0.854402 0 0.5196125 -0.7756998 0 0.6311021 -0.7756998 0 0.6311021 -0.6825739 0 0.7308166 -0.6825739 0 0.7308166 -0.5766777 0 0.8169718 -0.5766777 0 0.8169718 -0.4600557 0 0.8878901 -0.4600557 0 0.8878901 -0.3348731 0 0.9422632 -0.3348731 0 0.9422632 -0.2034493 0 0.9790855 -0.2034493 0 0.9790855 -0.06823666 0 0.9976692 -0.06823666 0 0.9976692 0.06823666 0 0.9976692 0.06823666 0 0.9976692 0.2034493 0 0.9790855 0.2034493 0 0.9790855 0.3348731 0 0.9422632 0.3348731 0 0.9422632 0.4600557 0 0.8878901 0.4600557 0 0.8878901 0.5766777 0 0.8169718 0.5766777 0 0.8169718 0.6825739 0 0.7308166 0.6825739 0 0.7308166 0.7756998 0 0.6311021 0.7756998 0 0.6311021 0.854402 0 0.5196125 0.854402 0 0.5196125 0.9172223 0 0.3983757 0.9172223 0 0.3983757 0.962924 0 0.2697729 0.962924 0 0.2697729 0.9906846 0 0.1361762 0.9906846 0 0.1361762 1 0 -2.506561e-14 1 0 -2.506118e-14 0.9906846 0 -0.1361762 0.9906846 0 -0.1361762 0.962924 0 -0.2697729 0.962924 0 -0.2697729 0.9172223 0 -0.3983757 0.9172223 0 -0.3983757 0.854402 0 -0.5196125 0.854402 0 -0.5196125 0.7756998 0 -0.6311021 0.7756998 0 -0.6311021 0.6825739 0 -0.7308166 0.6825739 0 -0.7308166 0.5766777 0 -0.8169718 0.5766777 0 -0.8169718 0.4600557 0 -0.8878901 0.4600557 0 -0.8878901 0.3348731 0 -0.9422632 0.3348731 0 -0.9422632 0.2034493 0 -0.9790855 0.2034493 0 -0.9790855 0.06823666 0 -0.9976692 0.06823666 0 -0.9976692 -0.06823666 0 -0.9976692 -0.06823666 0 -0.9976692 -0.2034493 0 -0.9790855 -0.2034493 0 -0.9790855 -0.3348731 0 -0.9422632 -0.3348731 0 -0.9422632 -0.4600557 0 -0.8878901 -0.4600557 0 -0.8878901 -0.5766777 0 -0.8169718 -0.5766777 0 -0.8169718 -0.6825739 0 -0.7308166 -0.6825739 0 -0.7308166 -0.7756998 0 -0.6311021 -0.7756998 0 -0.6311021 -0.854402 0 -0.5196125 -0.854402 0 -0.5196125 -0.9172223 0 -0.3983757 -0.9172223 0 -0.3983757 -0.962924 0 -0.2697729 -0.962924 0 -0.2697729 -0.9906846 0 -0.1361762 -0.9906846 0 -0.1361762 -1 0 -2.512317e-14 1 -2.421648e-18 -1.258776e-14 0.9927129 2.421662e-18 -0.1205036 0.9927129 0 -0.1205036 0.970935 0 -0.2393434 0.970935 0 -0.2393434 0.9349971 0 -0.3546554 0.9349971 0 -0.3546554 0.8854539 0 -0.4647273 0.8854539 0 -0.4647273 0.8230076 0 -0.5680304 0.8230076 0 -0.5680304 0.7484995 0 -0.6631353 0.7484995 0 -0.6631353 0.6631091 0 -0.7485228 0.6631091 0 -0.7485228 0.5680705 0 -0.8229799 0.5680705 0 -0.8229799 0.4647126 0 -0.8854616 0.4647126 0 -0.8854616 0.3546114 0 -0.9350138 0.3546114 0 -0.9350138 0.2393158 0 -0.9709418 0.2393158 0 -0.9709418 0.1205349 0 -0.9927091 0.1205349 0 -0.9927091 -1.017868e-16 0 -1 -1.371909e-16 0 -1 -0.1205349 0 -0.9927091 -0.1205349 0 -0.9927091 -0.2393158 0 -0.9709418 -0.2393158 0 -0.9709418 -0.3546114 0 -0.9350138 -0.3546114 0 -0.9350138 -0.4647126 0 -0.8854616 -0.4647126 0 -0.8854616 -0.5680705 0 -0.8229799 -0.5680705 0 -0.8229799 -0.6631091 0 -0.7485228 -0.6631091 0 -0.7485228 -0.7484995 0 -0.6631353 -0.7484995 0 -0.6631353 -0.8229942 0 -0.5680498 -0.8229942 0 -0.5680498 -0.8854546 0 -0.4647259 -0.8854546 0 -0.4647259 -0.9350177 0 -0.354601 -0.9350177 0 -0.354601 -0.9709429 0 -0.2393115 -0.9709429 0 -0.2393115 -0.9927087 0 -0.1205378 -0.9927087 2.417568e-18 -0.1205378 -1 -2.417569e-18 -1.262599e-14 -1 2.417569e-18 -1.263484e-14 -0.9927087 -2.417568e-18 0.1205378 -0.9927087 0 0.1205378 -0.9709429 0 0.2393115 -0.9709429 0 0.2393115 -0.9350177 0 0.354601 -0.9350177 0 0.354601 -0.8854546 0 0.4647259 -0.8854546 0 0.4647259 -0.8229942 0 0.5680498 -0.8229942 0 0.5680498 -0.7484995 0 0.6631353 -0.7484995 0 0.6631353 -0.6631091 0 0.7485228 -0.6631091 0 0.7485228 -0.5680705 0 0.8229799 -0.5680705 0 0.8229799 -0.4647126 0 0.8854616 -0.4647126 0 0.8854616 -0.3546114 0 0.9350138 -0.3546114 0 0.9350138 -0.2393158 0 0.9709418 -0.2393158 0 0.9709418 -0.1205349 0 0.9927091 -0.1205349 0 0.9927091 -1.371909e-16 0 1 -1.017868e-16 0 1 0.1205349 0 0.9927091 0.1205349 0 0.9927091 0.2393158 0 0.9709418 0.2393158 0 0.9709418 0.3546114 0 0.9350138 0.3546114 0 0.9350138 0.4647126 0 0.8854616 0.4647126 0 0.8854616 0.5680705 0 0.8229799 0.5680705 0 0.8229799 0.6631091 0 0.7485228 0.6631091 0 0.7485228 0.7484995 0 0.6631353 0.7484995 0 0.6631353 0.8230076 0 0.5680304 0.8230076 0 0.5680304 0.8854539 0 0.4647273 0.8854539 0 0.4647273 0.9349971 0 0.3546554 0.9349971 0 0.3546554 0.970935 0 0.2393434 0.970935 0 0.2393434 0.9927129 0 0.1205036 0.9927129 -2.421662e-18 0.1205036 1 2.421648e-18 -1.261708e-14 0 1 0 0 1 0 0 1 0 0 1 0 0 1 0 0 1 0 0 1 0 0 1 0 0 1 0 0 1 0 0 1 0 0 1 0 0 1 0 0 1 0 0 1 0 0 1 0 0 1 0 0 1 0 0 1 0 0 1 0 0 1 0 0 1 0 0 1 0 0 1 0 0 1 0 0 1 0 0 1 0 0 1 0 0 1 0 0 1 0 0 1 0 0 1 0 0 1 0 0 1 0 0 1 0 0 1 0 0 1 0 0 1 0 0 1 0 0 1 0 0 1 0 0 1 0 0 1 0 0 1 0 0 1 0 0 1 0 0 1 0 0 1 0 0 1 0 0 1 0 0 1 0 0 1 0 0 1 0 0 1 0 0 1 0 0 1 0 0 1 0 0 1 0 0 1 0 0 1 0 0 1 0 0 1 0 0 1 0 0 1 0 0 1 0 0 1 0 0 1 0 0 1 0 0 1 0 0 1 0 0 1 0 0 1 0 0 1 0 0 1 0 0 1 0 0 1 0 0 1 0 0 1 0 0 1 0 0 1 0 0 1 0 0 1 0 0 1 0 0 1 0 0 1 0 0 1 0 0 1 0 0 1 0 0 1 0 0 1 0 0 1 0 0 1 0 0 1 0 0 1 0 0 1 0 0 1 0 0 1 0 0 1 0 0 1 0 0 1 0 0 1 0 0 1 0 0 1 0 0 1 0 0 1 0 0 1 0 0 1 0 0 1 0 0 1 0 0 1 0 0 1 0 0 1 0 0 1 0 0 1 0 0 1 0 0 1 0 0 1 0 0 1 0 0 1 0 0 1 0 0 1 0 0 1 0 0 1 0 0 1 0 0 1 0 0 1 0 0 1 0 0 1 0 0 1 0 0 1 0 0 1 0 0 1 0 0 1 0 0 1 0 0 1 0 0 1 0 0 1 0 0 1 0 0 1 0 0 1 0 0 1 0 0 1 0 0 1 0 0 1 0 0 1 0</float_array>
          <technique_common>
            <accessor count="394" source="#normals-array-array" stride="3">
              <param type="float" name="X"/>
              <param type="float" name="Y"/>
              <param type="float" name="Z"/>
            </accessor>
          </technique_common>
        </source>
        <vertices id="verts-array-vertices">
          <input semantic="POSITION" source="#verts-array"/>
        </vertices>
        <triangles count="392" material="material0">
          <input offset="0" semantic="VERTEX" source="#verts-array-vertices"/>
          <input offset="1" semantic="NORMAL" source="#normals-array"/>
          <p>0 0 1 1 2 2 3 3 4 4 2 2 5 5 2 2 4 4 2 2 5 5 0 0 6 6 7 7 2 2 8 8 2 2 7 7 2 2 8 8 3 3 9 9 10 10 2 2 11 11 2 2 10 10 2 2 11 11 6 6 12 12 13 13 2 2 14 14 2 2 13 13 2 2 14 14 9 9 15 15 16 16 2 2 17 17 2 2 16 16 2 2 17 17 12 12 18 18 19 19 2 2 20 20 2 2 19 19 2 2 20 20 15 15 21 21 22 22 2 2 23 23 2 2 22 22 2 2 23 23 18 18 24 24 25 25 2 2 26 26 2 2 25 25 2 2 26 26 21 21 27 27 28 28 2 2 29 29 2 2 28 28 2 2 29 29 24 24 30 30 31 31 2 2 32 32 2 2 31 31 2 2 32 32 27 27 33 33 34 34 2 2 35 35 2 2 34 34 2 2 35 35 30 30 36 36 37 37 2 2 38 38 2 2 37 37 2 2 38 38 33 33 39 39 40 40 2 2 41 41 2 2 40 40 2 2 41 41 36 36 42 42 43 43 2 2 44 44 2 2 43 43 2 2 44 44 39 39 45 45 46 46 2 2 47 47 2 2 46 46 2 2 47 47 42 42 48 48 49 49 2 2 50 50 2 2 49 49 2 2 50 50 45 45 1 1 51 51 2 2 52 52 2 2 51 51 2 2 52 52 48 48 53 53 54 54 55 55 56 56 55 55 54 54 55 55 56 56 57 57 58 58 57 57 56 56 57 57 58 58 59 59 60 60 59 59 58 58 59 59 60 60 61 61 62 62 61 61 60 60 61 61 62 62 63 63 64 64 63 63 62 62 63 63 64 64 65 65 66 66 65 65 64 64 65 65 66 66 67 67 68 68 67 67 66 66 67 67 68 68 69 69 70 70 69 69 68 68 69 69 70 70 71 71 72 72 71 71 70 70 71 71 72 72 73 73 74 74 73 73 72 72 73 73 74 74 75 75 76 76 75 75 74 74 75 75 76 76 77 77 78 78 77 77 76 76 77 77 78 78 79 79 80 80 79 79 78 78 79 79 80 80 81 81 82 82 81 81 80 80 81 81 82 82 83 83 84 84 83 83 82 82 83 83 84 84 85 85 86 86 85 85 84 84 85 85 86 86 87 87 88 88 87 87 86 86 87 87 88 88 89 89 90 90 89 89 88 88 89 89 90 90 91 91 92 92 91 91 90 90 91 91 92 92 93 93 94 94 93 93 92 92 93 93 94 94 95 95 96 96 95 95 94 94 95 95 96 96 97 97 98 98 97 97 96 96 97 97 98 98 99 99 100 100 99 99 98 98 99 99 100 100 101 101 102 102 101 101 100 100 101 101 102 102 103 103 104 104 103 103 102 102 103 103 104 104 105 105 106 106 105 105 104 104 105 105 106 106 107 107 108 108 107 107 106 106 107 107 108 108 109 109 110 110 109 109 108 108 109 109 110 110 111 111 112 112 111 111 110 110 111 111 112 112 113 113 114 114 113 113 112 112 113 113 114 114 115 115 116 116 115 115 114 114 115 115 116 116 117 117 118 118 117 117 116 116 117 117 118 118 119 119 120 120 119 119 118 118 119 119 120 120 121 121 122 122 121 121 120 120 121 121 122 122 123 123 124 124 123 123 122 122 123 123 124 124 125 125 126 126 125 125 124 124 125 125 126 126 127 127 128 128 127 127 126 126 127 127 128 128 129 129 130 130 129 129 128 128 129 129 130 130 131 131 132 132 131 131 130 130 131 131 132 132 133 133 134 134 133 133 132 132 133 133 134 134 135 135 136 136 135 135 134 134 135 135 136 136 137 137 138 138 137 137 136 136 137 137 138 138 139 139 140 140 139 139 138 138 139 139 140 140 141 141 142 142 141 141 140 140 141 141 142 142 143 143 144 144 143 143 142 142 143 143 144 144 53 53 54 54 53 53 144 144 145 145 146 146 147 147 148 148 147 147 146 146 147 147 148 148 149 149 150 150 149 149 148 148 149 149 150 150 151 151 152 152 151 151 150 150 151 151 152 152 153 153 154 154 153 153 152 152 153 153 154 154 155 155 156 156 155 155 154 154 155 155 156 156 157 157 158 158 157 157 156 156 157 157 158 158 159 159 160 160 159 159 158 158 159 159 160 160 161 161 162 162 161 161 160 160 161 161 162 162 163 163 164 164 163 163 162 162 163 163 164 164 165 165 166 166 165 165 164 164 165 165 166 166 167 167 168 168 167 167 166 166 167 167 168 168 169 169 170 170 169 169 168 168 169 169 170 170 171 171 172 172 171 171 170 170 171 171 172 172 173 173 174 174 173 173 172 172 173 173 174 174 175 175 176 176 175 175 174 174 175 175 176 176 177 177 178 178 177 177 176 176 177 177 178 178 179 179 180 180 179 179 178 178 179 179 180 180 181 181 182 182 181 181 180 180 181 181 182 182 183 183 184 184 183 183 182 182 183 183 184 184 185 185 186 186 185 185 184 184 185 185 186 186 187 187 188 188 187 187 186 186 187 187 188 188 189 189 190 190 189 189 188 188 189 189 190 190 191 191 192 192 191 191 190 190 191 191 192 192 193 193 194 194 193 193 192 192 193 193 194 194 195 195 196 196 195 195 194 194 195 195 196 196 197 197 198 198 197 197 196 196 197 197 198 198 199 199 200 200 199 199 198 198 199 199 200 200 201 201 202 202 201 201 200 200 201 201 202 202 203 203 204 204 203 203 202 202 203 203 204 204 205 205 206 206 205 205 204 204 205 205 206 206 207 207 208 208 207 207 206 206 207 207 208 208 209 209 210 210 209 209 208 208 209 209 210 210 211 211 212 212 211 211 210 210 211 211 212 212 213 213 214 214 213 213 212 212 213 213 214 214 215 215 216 216 215 215 214 214 215 215 216 216 217 217 218 218 217 217 216 216 217 217 218 218 219 219 220 220 219 219 218 218 219 219 220 220 221 221 222 222 221 221 220 220 221 221 222 222 223 223 224 224 223 223 222 222 223 223 224 224 225 225 226 226 225 225 224 224 225 225 226 226 227 227 228 228 227 227 226 226 227 227 228 228 229 229 230 230 229 229 228 228 229 229 230 230 231 231 232 232 231 231 230 230 231 231 232 232 233 233 234 234 233 233 232 232 233 233 234 234 235 235 236 236 235 235 234 234 235 235 236 236 237 237 238 238 237 237 236 236 237 237 238 238 239 239 240 240 239 239 238 238 239 239 240 240 241 241 242 242 241 241 240 240 241 241 242 242 243 243 244 244 243 243 242 242 243 243 244 244 245 245 246 246 245 245 244 244 245 245 246 246 247 247 248 248 247 247 246 246 247 247 248 248 145 145 146 146 145 145 248 248 249 249 250 250 251 251 252 252 251 251 250 250 251 251 252 252 253 253 254 254 253 253 252 252 253 253 254 254 255 255 256 256 255 255 254 254 255 255 256 256 257 257 258 258 257 257 256 256 257 257 258 258 259 259 260 260 259 259 258 258 259 259 260 260 261 261 262 262 261 261 260 260 261 261 262 262 263 263 264 264 265 265 266 266 267 267 266 266 265 265 266 266 267 267 268 268 269 269 268 268 267 267 268 268 269 269 270 270 271 271 270 270 269 269 270 270 271 271 272 272 273 273 272 272 271 271 272 272 273 273 274 274 275 275 274 274 273 273 274 274 275 275 276 276 277 277 276 276 275 275 276 276 277 277 278 278 277 277 279 279 278 278 280 280 278 278 279 279 278 278 280 280 281 281 282 282 281 281 280 280 281 281 282 282 283 283 284 284 283 283 282 282 283 283 284 284 285 285 286 286 285 285 284 284 285 285 286 286 287 287 288 288 287 287 286 286 287 287 288 288 289 289 290 290 289 289 288 288 289 289 290 290 291 291 292 292 291 291 290 290 291 291 292 292 293 293 294 294 293 293 292 292 293 293 294 294 295 295 294 294 296 296 295 295 297 297 295 295 296 296 295 295 297 297 298 298 299 299 298 298 297 297 298 298 299 299 300 300 301 301 300 300 299 299 300 300 301 301 302 302 303 303 302 302 301 301 302 302 303 303 304 304 305 305 304 304 303 303 304 304 305 305 306 306 307 307 306 306 305 305 306 306 307 307 308 308 309 309 308 308 307 307 308 308 309 309 310 310 311 311 310 310 309 309 310 310 311 311 249 249 312 312 249 249 311 311 249 249 312 312 250 250 313 313 314 314 315 315 316 316 315 315 314 314 315 315 316 316 317 317 318 318 317 317 316 316 317 317 318 318 319 319 320 320 319 319 318 318 319 319 320 320 321 321 322 322 321 321 320 320 321 321 322 322 323 323 324 324 323 323 322 322 323 323 324 324 325 325 326 326 325 325 324 324 325 325 326 326 327 327 328 328 327 327 326 326 327 327 328 328 264 264 329 329 264 264 328 328 264 264 329 329 265 265 262 262 330 330 263 263 331 331 263 263 330 330 263 263 331 331 332 332 333 333 332 332 331 331 332 332 333 333 334 334 335 335 334 334 333 333 334 334 335 335 336 336 337 337 336 336 335 335 336 336 337 337 338 338 339 339 338 338 337 337 338 338 339 339 340 340 341 341 340 340 339 339 340 340 341 341 342 342 343 343 342 342 341 341 342 342 343 343 344 344 345 345 344 344 343 343 344 344 345 345 313 313 346 346 313 313 345 345 313 313 346 346 314 314 347 347 348 348 349 349 350 350 351 351 349 349 352 352 349 349 351 351 349 349 352 352 347 347 353 353 354 354 349 349 355 355 349 349 354 354 349 349 355 355 350 350 356 356 357 357 349 349 358 358 349 349 357 357 349 349 358 358 353 353 359 359 360 360 349 349 361 361 349 349 360 360 349 349 361 361 356 356 362 362 363 363 349 349 364 364 349 349 363 363 349 349 364 364 359 359 365 365 366 366 349 349 367 367 349 349 366 366 349 349 367 367 362 362 368 368 369 369 349 349 370 370 349 349 369 369 349 349 370 370 365 365 371 371 372 372 349 349 373 373 349 349 372 372 349 349 373 373 368 368 374 374 375 375 349 349 376 376 349 349 375 375 349 349 376 376 371 371 377 377 378 378 349 349 379 379 349 349 378 378 349 349 379 379 374 374 380 380 381 381 349 349 382 382 349 349 381 381 349 349 382 382 377 377 383 383 384 384 349 349 385 385 349 349 384 384 349 349 385 385 380 380 386 386 387 387 349 349 388 388 349 349 387 387 349 349 388 388 383 383 389 389 390 390 349 349 391 391 349 349 390 390 349 349 391 391 386 386 348 348 392 392 349 349 393 393 349 349 392 392 349 349 393 393 389 389</p>
        </triangles>
      </mesh>
    </geometry>
  </library_geometries>
  <library_materials>
    <material id="b03f4fa96fe3450e8b10bb4341ac00a8" name="defaultmaterial">
      <instance_effect url="#f50e1369160e496c9469c3cdefd97217"/>
    </material>
  </library_materials>
  <library_visual_scenes>
    <visual_scene id="scene">
      <node id="node0" name="node0">
        <instance_geometry url="#467bd62939114094b92642295b62696e">
          <bind_material>
            <technique_common>
              <instance_material symbol="material0" target="#b03f4fa96fe3450e8b10bb4341ac00a8"/>
            </technique_common>
          </bind_material>
        </instance_geometry>
      </node>
    </visual_scene>
  </library_visual_scenes>
  <scene>
    <instance_visual_scene url="#scene"/>
  </scene>
</COLLADA>
