<COLLADA xmlns="http://www.collada.org/2005/11/COLLADASchema" version="1.4.1">
  <asset>
    <created>2026-09-21T21:22:54.163092</created>
    <modified>2026-09-21T21:22:54.163092</modified>
    <up_axis>Y_UP</up_axis>
  </asset>
  <library_effects>
    <effect id="61e4db2df6144ef48177489ec0e8a627" name="61e4db2df6144ef48177489ec0e8a627">
      <profile_COMMON>
        <technique sid="common">
          <phong>
            <emission>
              <color>0.0 0.0 0.0 1.0</color>
            </emission>
            <ambient>
              <color>0.0 0.0 0.0 1.0</color>
            </ambient>
            <diffuse>
              <color>0.9607843137254902 0.9607843137254902 0.9647058823529412 1.0</color>
            </diffuse>
            <specular>
              <color>0.0 0.0 0.0 1.0</color>
            </specular>
            <shininess>
              <float>0.0</float>
            </shininess>
            <reflective>
              <color>0.0 0.0 0.0 1.0</color>
            </reflective>
            <reflectivity>
              <float>0.0</float>
            </reflectivity>
            <transparent>
              <color>0.0 0.0 0.0 1.0</color>
            </transparent>
            <transparency>
              <float>1.0</float>
            </transparency>
          </phong>
        </technique>
        <extra>
          <technique profile="GOOGLEEARTH">
            <double_sided>0</double_sided>
          </technique>
        </extra>
      </profile_COMMON>
    </effect>
  </library_effects>
  <library_geometries>
    <geometry id="37341e669b074b0eab8ea43468005283" name="b0e9fb6935a94ad9959859ff6cef04c0">
      <mesh>
        <source id="verts-array">
          <float_array count="1086" id="verts-array-array">0.0800011 -0.02496052 -0.2535816 0.0800011 0.06468508 -0.2535816 0.080624 -0.03199232 -0.2465498 0.0800012 0.06476178 -0.2535049 0.0800302 0.06600108 -0.2520865 0.0802183 0.06759748 -0.2494204 0.080615 0.06853688 -0.2466065 0.0830459 -0.04026782 -0.2382743 0.0812651 0.06886228 -0.2436054 0.0830459 0.06886228 -0.2382743 0.0837409 -0.04184842 -0.2366937 0.087185 0.06886228 -0.2307101 0.0917168 -0.05164742 -0.2252974 0.091311 -0.05134252 -0.2257091 0.0917168 0.06886228 -0.2252974 0.0884417 -0.04878092 -0.2290032 0.0858518 -0.04558212 -0.2327515 0.1441951 -0.07110622 -0.1684934 0.1451351 -0.07113772 -0.1659834 -0.1451329 -0.07113772 -0.1659834 0.1049341 -0.05987902 -0.2120804 -0.1049319 -0.05987902 -0.2120804 -0.0981626 -0.05602092 -0.2188494 0.091311 -0.05134252 -0.2257091 0.0917168 -0.05164742 -0.2252974 0.0981648 -0.05602092 -0.2188494 -0.1127609 -0.06352572 -0.2042514 0.1127631 -0.06352572 -0.2042514 0.1208771 -0.06648312 -0.1961364 0.1281291 -0.06847992 -0.1888844 -0.1281269 -0.06847992 -0.1888844 -0.1208749 -0.06648312 -0.1961364 -0.1375349 -0.07024422 -0.1793214 -0.1355089 -0.06992602 -0.1815034 0.1375131 -0.07024032 -0.1793494 0.1355111 -0.06992602 -0.1815034 -0.1406519 -0.07071332 -0.1751864 0.1389731 -0.07046582 -0.1775564 -0.1431919 -0.07102522 -0.1707244 0.1418851 -0.07087782 -0.1731884 -0.0917146 -0.05164742 -0.2252974 -0.0886442 -0.04899162 -0.2287427 0.0884417 -0.04878092 -0.2290032 0.0858518 -0.04558212 -0.2327515 -0.0837387 -0.04184842 -0.2366937 0.0837409 -0.04184842 -0.2366937 -0.0839936 -0.04238102 -0.236157 -0.0860411 -0.04585982 -0.2324406 -0.1355089 -0.06992602 -0.1815034 -0.1375349 -0.07024422 -0.1793214 -0.1355089 0.06886228 -0.1815034 -0.1400529 0.06886228 -0.1760724 -0.1406519 -0.07071332 -0.1751864 -0.1431919 -0.07102522 -0.1707244 -0.1440219 0.06886228 -0.1689024 -0.1451329 -0.07113772 -0.1659834 -0.1462109 0.06886228 -0.1621674 -0.1462109 -0.07113772 -0.1621674 0.2025571 -0.07113772 0.0839666 0.2029021 -0.07113772 0.0892126 -0.2015239 -0.07113772 0.0788106 -0.1462109 -0.07113772 -0.1621674 0.1462131 -0.07113772 -0.1621674 0.2015261 -0.07113772 0.0788106 -0.2028999 -0.07113772 0.0892126 -0.2025549 -0.07113772 0.0839666 0.2015391 -0.07113772 0.1619486 0.2029021 -0.07113772 0.1515956 0.1911871 -0.07113772 0.1798796 0.1829021 -0.07113772 0.1862366 0.1975431 -0.07113772 0.1715956 0.1732551 -0.07113772 0.1902326 0.1629021 -0.07113772 0.1915956 -0.1628999 -0.07113772 0.1915956 -0.2028999 -0.07113772 0.1515956 -0.2015369 -0.07113772 0.1619486 -0.1732529 -0.07113772 0.1902326 -0.1828999 -0.07113772 0.1862366 -0.1911849 -0.07113772 0.1798796 -0.1975409 -0.07113772 0.1715956 -0.1281269 -0.06847992 -0.1888844 -0.0917146 0.06886228 -0.2252974 -0.0917146 -0.05164742 -0.2252974 -0.0981626 -0.05602092 -0.2188494 -0.1049319 -0.05987902 -0.2120804 -0.1127609 -0.06352572 -0.2042514 -0.1208749 -0.06648312 -0.1961364 -0.0830437 -0.04026782 -0.2382743 -0.0837387 -0.04184842 -0.2366937 -0.0871828 0.06886228 -0.2307101 -0.0839936 -0.04238102 -0.236157 -0.0860411 -0.04585982 -0.2324406 -0.0886442 -0.04899162 -0.2287427 -0.0808242 0.06873318 -0.2455026 -0.0806218 -0.03199232 -0.2465498 -0.0812629 0.06886228 -0.2436054 -0.0830437 0.06886228 -0.2382743 -0.0807129 0.06864478 -0.2460636 -0.0803334 0.06800798 -0.248421 -0.0802666 0.06779718 -0.2489616 -0.0799989 0.06468508 -0.2535816 -0.0799989 -0.02496052 -0.2535816 -0.079999 0.06476178 -0.2535049 -0.0800731 0.06664248 -0.2511703 -0.0802666 0.06779718 -0.2489616 -0.0803334 0.06800798 -0.248421 0.080615 0.06853688 -0.2466065 -0.0807129 0.06864478 -0.2460636 0.0812651 0.06886228 -0.2436054 -0.0808242 0.06873318 -0.2455026 -0.0812629 0.06886228 -0.2436054 0.0802183 0.06759748 -0.2494204 0.0800302 0.06600108 -0.2520865 -0.0800731 0.06664248 -0.2511703 0.0800012 0.06476178 -0.2535049 -0.079999 0.06476178 -0.2535049 0.0312387 -0.02372622 0.2169546 -0.031435 -0.02372622 0.2169546 0.0302127 -0.02563772 0.2169546 -0.030409 -0.02563772 0.2169546 -0.0248469 -0.03288642 0.2169546 -0.0175982 -0.03844862 0.2169546 -0.009156819 -0.04194512 0.2169546 -9.815534e-05 -0.04313772 0.2169546 0.008960511 -0.04194512 0.2169546 0.0174018 -0.03844862 0.2169546 0.0246506 -0.03288642 0.2169546 -0.0350982 -0.008137716 0.2169546 -0.0339236 -0.01712882 0.2169546 0.0337273 -0.01712882 0.2169546 0.0349018 -0.008137716 0.2169546 0.0337092 0.0009209841 0.2169546 0.0302127 0.009362284 0.2169546 0.0246506 0.01661102 0.2169546 0.0174018 0.02217317 0.2169546 0.008960511 0.02566968 0.2169546 -9.815534e-05 0.02686228 0.2169546 -0.009156819 0.02566968 0.2169546 -0.0175982 0.02217317 0.2169546 -0.0248469 0.01661102 0.2169546 -0.030409 0.009362284 0.2169546 -0.0339056 0.0009209841 0.2169546 0.1462131 0.06886228 -0.1621674 0.2015261 0.06886228 0.0788106 0.1462131 -0.07113772 -0.1621674 0.2015261 -0.07113772 0.0788106 0.1355111 -0.06992602 -0.1815034 0.1281291 -0.06847992 -0.1888844 0.1355111 0.06886228 -0.1815034 0.1208771 -0.06648312 -0.1961364 0.0981648 -0.05602092 -0.2188494 0.1127631 -0.06352572 -0.2042514 0.1049341 -0.05987902 -0.2120804 -0.2015239 -0.07113772 0.0788106 -0.2015239 0.06886228 0.0788106 0.2015261 -0.07113772 0.0788106 0.2015261 0.06886228 0.0788106 0.2025571 0.06886228 0.0839666 0.2025571 -0.07113772 0.0839666 0.2029021 0.06886228 0.0892126 0.2029021 -0.07113772 0.0892126 -0.0806218 -0.03199232 -0.2465498 -0.0830437 -0.04026782 -0.2382743 -0.0799989 -0.02496052 -0.2535816 -0.0799989 -0.02113772 -0.2574044 0.0800011 -0.02113772 -0.2574044 0.0800011 -0.02496052 -0.2535816 0.080624 -0.03199232 -0.2465498 0.0830459 -0.04026782 -0.2382743 0.2029021 -0.07113772 0.1515956 0.2029021 0.06886228 0.1515956 0.2015391 0.06886228 0.1619486 0.2015391 -0.07113772 0.1619486 0.1975431 0.06886228 0.1715956 0.1975431 -0.07113772 0.1715956 0.1911871 0.06886228 0.1798796 0.1911871 -0.07113772 0.1798796 0.1829021 0.06886228 0.1862366 0.1829021 -0.07113772 0.1862366 0.1732551 0.06886228 0.1902326 0.1732551 -0.07113772 0.1902326 0.1629021 0.06886228 0.1915956 0.1629021 -0.07113772 0.1915956 -0.2028999 0.06886228 0.1515956 -0.2028999 -0.07113772 0.1515956 -0.2015369 -0.07113772 0.1619486 -0.2015369 0.06886228 0.1619486 -0.1975409 -0.07113772 0.1715956 -0.1975409 0.06886228 0.1715956 -0.1911849 -0.07113772 0.1798796 -0.1911849 0.06886228 0.1798796 -0.1828999 -0.07113772 0.1862366 -0.1828999 0.06886228 0.1862366 -0.1732529 -0.07113772 0.1902326 -0.1732529 0.06886228 0.1902326 -0.1628999 -0.07113772 0.1915956 -0.1628999 0.06886228 0.1915956 -0.030409 -0.02563772 0.1915956 -0.0248469 -0.03288642 0.1915956 -0.0175982 -0.03844862 0.1915956 0.0174018 -0.03844862 0.1915956 0.008960511 -0.04194512 0.1915956 -9.815534e-05 -0.04313772 0.1915956 -0.009156819 -0.04194512 0.1915956 -0.030409 0.009362284 0.1915956 -0.0248469 0.01661102 0.1915956 -9.815534e-05 0.02686228 0.1915956 -0.0339056 -0.01719642 0.1915956 -0.0350982 -0.008137716 0.1915956 -0.0339056 0.0009209841 0.1915956 -0.0175982 0.02217317 0.1915956 -0.009156819 0.02566968 0.1915956 0.008960511 0.02566968 0.1915956 0.0174018 0.02217317 0.1915956 0.0246506 0.01661102 0.1915956 0.0302127 0.009362284 0.1915956 0.0337092 0.0009209841 0.1915956 0.0349018 -0.008137716 0.1915956 0.0337092 -0.01719642 0.1915956 0.0302127 -0.02563772 0.1915956 0.0246506 -0.03288642 0.1915956 -0.2028999 0.06886228 0.0892126 -0.2028999 -0.07113772 0.0892126 0.0830459 0.06886228 -0.2382743 -0.0830437 0.06886228 -0.2382743 0.087185 0.06886228 -0.2307101 -0.0871828 0.06886228 -0.2307101 0.0917168 0.06886228 -0.2252974 0.1355111 0.06886228 -0.1815034 0.2015391 0.06886228 0.1619486 0.2029021 0.06886228 0.1515956 -0.2015239 0.06886228 0.0788106 0.2029021 0.06886228 0.0892126 -0.1462109 0.06886228 -0.1621674 -0.1440219 0.06886228 -0.1689024 0.1462131 0.06886228 -0.1621674 0.1440241 0.06886228 -0.1689024 0.1400551 0.06886228 -0.1760724 -0.1628999 0.06886228 0.1915956 0.1629021 0.06886228 0.1915956 0.1732551 0.06886228 0.1902326 0.1829021 0.06886228 0.1862366 0.1911871 0.06886228 0.1798796 0.1975431 0.06886228 0.1715956 0.2015261 0.06886228 0.0788106 -0.0917146 0.06886228 -0.2252974 0.2025571 0.06886228 0.0839666 -0.1355089 0.06886228 -0.1815034 -0.1400529 0.06886228 -0.1760724 -0.2025549 0.06886228 0.0839666 -0.2028999 0.06886228 0.0892126 -0.2028999 0.06886228 0.1515956 -0.2015369 0.06886228 0.1619486 -0.1828999 0.06886228 0.1862366 -0.1732529 0.06886228 0.1902326 -0.1911849 0.06886228 0.1798796 -0.1975409 0.06886228 0.1715956 -0.2025549 0.06886228 0.0839666 -0.2025549 -0.07113772 0.0839666 -0.2015239 0.06886228 0.0788106 -0.2015239 -0.07113772 0.0788106 0.0302127 -0.02563772 0.1915956 0.0246506 -0.03288642 0.2169546 0.0246506 -0.03288642 0.1915956 0.0174018 -0.03844862 0.2169546 0.0174018 -0.03844862 0.1915956 0.008960511 -0.04194512 0.2169546 0.008960511 -0.04194512 0.1915956 -9.815534e-05 -0.04313772 0.2169546 -9.815534e-05 -0.04313772 0.1915956 -0.009156819 -0.04194512 0.2169546 -0.009156819 -0.04194512 0.1915956 -0.0175982 -0.03844862 0.2169546 -0.0175982 -0.03844862 0.1915956 -0.0248469 -0.03288642 0.2169546 -0.0248469 -0.03288642 0.1915956 -0.030409 -0.02563772 0.2169546 -0.030409 -0.02563772 0.1915956 -0.031435 -0.02372622 0.2169546 -0.0339056 -0.01719642 0.1915956 -0.0339056 -0.01719642 0.2169546 -0.0350982 -0.008137716 0.1915956 -0.0339236 -0.01712882 0.2169546 0.0337092 -0.01719642 0.1915956 0.0312387 -0.02372622 0.2169546 0.0302127 -0.02563772 0.2169546 -0.0350982 -0.008137716 0.2169546 -0.0339056 0.0009209841 0.2169546 -0.0339056 0.0009209841 0.1915956 -0.030409 0.009362284 0.2169546 -0.030409 0.009362284 0.1915956 -0.0248469 0.01661102 0.2169546 -0.0248469 0.01661102 0.1915956 -0.0175982 0.02217317 0.2169546 -0.0175982 0.02217317 0.1915956 -0.009156819 0.02566968 0.2169546 -0.009156819 0.02566968 0.1915956 -9.815534e-05 0.02686228 0.2169546 -9.815534e-05 0.02686228 0.1915956 0.008960511 0.02566968 0.2169546 0.008960511 0.02566968 0.1915956 0.0174018 0.02217317 0.2169546 0.0174018 0.02217317 0.1915956 0.0246506 0.01661102 0.2169546 0.0246506 0.01661102 0.1915956 0.0302127 0.009362284 0.2169546 0.0302127 0.009362284 0.1915956 0.0337092 0.0009209841 0.2169546 0.0337092 0.0009209841 0.1915956 0.0349018 -0.008137716 0.2169546 0.0349018 -0.008137716 0.1915956 0.0337273 -0.01712882 0.2169546 0.0337092 -0.01719642 0.2169546 0.0800011 -0.02113772 -0.2574044 0.0800011 0.06086228 -0.2574044 0.0800011 -0.02113772 -0.2574044 -0.0799989 -0.02113772 -0.2574044 0.0800011 0.06086228 -0.2574044 -0.0799989 0.06086228 -0.2574044 0.1451351 -0.07113772 -0.1659834 0.1440241 0.06886228 -0.1689024 0.1375131 -0.07024032 -0.1793494 0.1400551 0.06886228 -0.1760724 0.1441951 -0.07110622 -0.1684934 0.1418851 -0.07087782 -0.1731884 0.1389731 -0.07046582 -0.1775564 -0.0799989 -0.02113772 -0.2574044 -0.0799989 0.06086228 -0.2574044 -0.0799989 0.06468508 -0.2535816 -0.0799989 0.06086228 -0.2574044 0.0800011 0.06468508 -0.2535816 0.0800011 0.06086228 -0.2574044 0.0337273 -0.01712882 0.2169546 0.0337273 -0.02372622 0.2169546 0.0337092 -0.01719642 0.2169546 0.0312387 -0.02372622 0.2169546 0.0337273 -0.02372622 0.2189546 0.0337273 -0.01712882 0.2189546 -0.0339236 -0.02372622 0.2189546 -0.0339236 -0.01712882 0.2189546 -0.031435 -0.02372622 0.2169546 -0.0339236 -0.02372622 0.2169546 -0.0339056 -0.01719642 0.2169546 -0.0339236 -0.01712882 0.2169546 -0.0339236 -0.02372622 0.2189546 -0.0339236 -0.01712882 0.2189546 -0.0339236 -0.02372622 0.2169546 -0.0339236 -0.01712882 0.2169546 0.0312387 -0.02372622 0.2169546 0.0337273 -0.02372622 0.2169546 0.0337273 -0.02372622 0.2189546 -0.031435 -0.02372622 0.2169546 -0.0339236 -0.02372622 0.2189546 -0.0339236 -0.02372622 0.2169546 0.0337273 -0.01712882 0.2189546 0.0337273 -0.02372622 0.2189546 0.0337273 -0.01712882 0.2169546 0.0337273 -0.02372622 0.2169546 -0.0339236 -0.01712882 0.2189546 0.0337273 -0.01712882 0.2189546 -0.0339236 -0.01712882 0.2169546 0.0337273 -0.01712882 0.2169546</float_array>
          <technique_common>
            <accessor count="362" source="#verts-array-array" stride="3">
              <param type="float" name="X"/>
              <param type="float" name="Y"/>
              <param type="float" name="Z"/>
            </accessor>
          </technique_common>
        </source>
        <source id="normals-array">
          <float_array count="1086" id="normals-array-array">0.9978055 0 -0.06621306 0.9999641 0.004301376 -0.007296302 0.9724212 -1.194704e-05 -0.2332318 0.9997934 0.005019625 -0.01969807 0.9983623 0.002821326 -0.05713804 0.9933705 0.0007332294 -0.1149544 0.9830703 0.003045638 -0.1832035 0.9283658 3.367807e-05 -0.3716679 0.9642446 0.002789229 -0.2649993 0.9166782 -0.0006690946 -0.3996257 0.89039 -0.001328533 -0.4551965 0.8259339 -0.001224528 -0.5637656 0.7088894 0 -0.7053197 0.7265902 -9.968911e-05 -0.6870711 0.7374009 -0.0005509562 -0.6754551 0.7764395 -5.241941e-05 -0.6301918 0.8409851 -0.0001457908 -0.5410583 -0.000114924 -0.9996673 -0.02579293 0 -0.9999876 -0.004974677 0.0005268313 -0.9999547 -0.009503767 0 -0.8968864 -0.442261 0 -0.8968864 -0.442261 2.926275e-05 -0.8578618 -0.5138805 -0.001115883 -0.8002313 -0.5996905 -0.000490542 -0.8208209 -0.5711855 0 -0.8578669 -0.513872 0 -0.9314951 -0.3637539 0 -0.9314951 -0.3637539 0 -0.9583602 -0.285562 0 -0.9774748 -0.2110523 0.0002782743 -0.9775597 -0.2106585 0 -0.9583602 -0.285562 1.723411e-06 -0.9926125 -0.1213274 9.873286e-05 -0.9876576 -0.1566282 -0.0004914171 -0.9915132 -0.1300051 -0.001072294 -0.9878753 -0.1552458 0.0002043533 -0.9965689 -0.08276696 -0.0010376 -0.9948018 -0.1018251 0.001036278 -0.999238 -0.03901819 -0.0006872638 -0.9979894 -0.06337745 6.585463e-05 -0.8173956 -0.5760768 -1.545521e-05 -0.7826096 -0.6225129 7.45819e-06 -0.7799819 -0.6258021 6.837457e-06 -0.7481648 -0.663513 0 -0.7087289 -0.7054809 6.331183e-05 -0.7185824 -0.6954418 -3.305102e-05 -0.7222263 -0.6916569 2.000304e-05 -0.751275 -0.6599893 -0.7210724 0 -0.6928597 -0.7686575 -0.0001881031 -0.6396606 -0.737519 0.0005449855 -0.6753262 -0.824689 0.0010918 -0.5655853 -0.8374038 0.0001241683 -0.5465847 -0.8997126 1.681883e-05 -0.4364828 -0.9171584 0.001095171 -0.3985215 -0.9455929 -0.0002545731 -0.325352 -0.9638808 0.000541753 -0.2663335 -0.9687951 0 -0.2478631 0 -1 0 0 -1 0 0 -1 0 0 -1 0 0 -1 0 0 -1 0 0 -1 0 0 -1 0 0 -1 0 0 -1 0 0 -1 0 0 -1 0 0 -1 0 0 -1 0 0 -1 0 0 -1 0 0 -1 0 0 -1 0 0 -1 0 0 -1 0 0 -1 0 0 -1 0 -0.7070811 -2.390258e-06 -0.7071324 -0.7380807 0.000919597 -0.6747118 -0.7208639 -7.109527e-07 -0.6930766 -0.7070996 2.610661e-06 -0.707114 -0.7071 3.221134e-06 -0.7071136 -0.7071279 -7.259933e-06 -0.7070857 -0.707126 -9.375773e-06 -0.7070876 -0.9259183 -0.004070451 -0.377702 -0.9048481 -0.005140857 -0.4257035 -0.8256043 0.0009835553 -0.5642486 -0.8831833 -0.002354579 -0.4690222 -0.833647 -0.00336774 -0.5522873 -0.7704048 -0.001433026 -0.6375535 -0.9774431 0.0002316506 -0.211199 -0.9729293 0.001573662 -0.2310976 -0.9622276 0.0002386718 -0.2722461 -0.916507 0 -0.4000186 -0.9837982 -2.442779e-05 -0.1792795 -0.9895167 0.0001514116 -0.1444182 -0.993926 0.00087815 -0.1100474 -0.9999995 0 -0.000977835 -0.9978107 5.570228e-05 -0.06613408 -0.9996183 0.002818368 -0.02748457 -0.9974689 0.002219672 -0.07106899 0.0009594091 0.9117391 -0.4107686 0.0003520728 0.9512251 -0.3084974 0.0002899551 0.9793348 -0.2022454 0.0004672545 0.9793279 -0.2022784 0.0001260405 0.9989853 -0.04503686 0.0004522642 0.9943338 -0.1063017 0 0.9996022 -0.02820311 -4.36039e-05 0.9112369 -0.4118827 -0.000567204 0.8099231 -0.5865358 0.0004655748 0.8383999 -0.5450555 -0.0003718658 0.7307764 -0.6826168 0 0.7442865 -0.6678605 0 0 1 0 0 1 0 0 1 0 0 1 0 0 1 0 0 1 0 0 1 0 0 1 0 0 1 0 0 1 0 0 1 0 0 1 0 0 1 0 0 1 0 0 1 0 0 1 0 0 1 0 0 1 0 0 1 0 0 1 0 0 1 0 0 1 0 0 1 0 0 1 0 0 1 0 0 1 0.9638808 0.000541753 -0.2663335 0.974654 0 -0.2237177 0.9687951 0 -0.2478631 0.974654 0 -0.2237177 0.7208864 0 -0.6930533 0.7070811 -2.390258e-06 -0.7071324 0.7375196 0.0005434742 -0.6753255 0.707126 -9.375773e-06 -0.7070876 0.7070994 3.271416e-06 -0.7071141 0.7071279 -7.259933e-06 -0.7070857 0.7071 3.221134e-06 -0.7071136 -0.974654 0 -0.2237177 -0.974654 0 -0.2237177 0.980588 0 -0.1960796 0.980588 0 -0.1960796 0.9913645 0 -0.1311353 0.9913645 0 -0.1311353 0.999461 0 -0.03282901 0.999461 0 -0.03282901 6.056593e-17 -0.7071068 -0.7071068 5.236789e-17 -0.7071068 -0.7071068 0 -0.7071068 -0.7071068 0 -0.7071068 -0.7071068 0 -0.7071068 -0.7071068 0 -0.7071068 -0.7071068 0 -0.7071068 -0.7071068 -4.035414e-16 -0.7071068 -0.7071068 0.9978589 0 0.06540321 0.9978589 0 0.06540321 0.9659249 0 0.2588226 0.9659249 0 0.2588226 0.8660338 0 0.4999855 0.8660338 0 0.4999855 0.707113 0 0.7071005 0.707113 0 0.7071005 0.4999931 0 0.8660294 0.4999931 0 0.8660294 0.2588226 0 0.9659249 0.2588226 0 0.9659249 0.06540321 0 0.9978589 0.06540321 0 0.9978589 -0.9978589 0 0.06540321 -0.9978589 0 0.06540321 -0.9659249 0 0.2588226 -0.9659249 0 0.2588226 -0.8660338 0 0.4999855 -0.8660338 0 0.4999855 -0.707113 0 0.7071005 -0.707113 0 0.7071005 -0.4999931 0 0.8660294 -0.4999931 0 0.8660294 -0.2588226 0 0.9659249 -0.2588226 0 0.9659249 -0.06540321 0 0.9978589 -0.06540321 0 0.9978589 0 0 1 0 0 1 0 0 1 0 0 1 0 0 1 0 0 1 0 0 1 0 0 1 0 0 1 0 0 1 0 0 1 0 0 1 0 0 1 0 0 1 0 0 1 0 0 1 0 0 1 0 0 1 0 0 1 0 0 1 0 0 1 0 0 1 0 0 1 0 0 1 -0.999461 0 -0.03282901 -0.999461 0 -0.03282901 0 1 0 0 1 0 0 1 0 0 1 0 0 1 0 0 1 0 0 1 0 0 1 0 0 1 0 0 1 0 0 1 0 0 1 0 0 1 0 0 1 0 0 1 0 0 1 0 0 1 0 0 1 0 0 1 0 0 1 0 0 1 0 0 1 0 0 1 0 0 1 0 0 1 0 0 1 0 0 1 0 0 1 0 0 1 0 0 1 0 0 1 0 0 1 0 0 1 0 0 1 0 -0.9913645 0 -0.1311353 -0.9913645 0 -0.1311353 -0.980588 0 -0.1960796 -0.980588 0 -0.1960796 0.8646601 -0.5023409 -0.004069346 0.7071075 -0.7071061 0 0.7071075 -0.7071061 0 0.5000001 -0.8660253 0 0.5000001 -0.8660253 0 0.2588194 -0.9659257 0 0.2588194 -0.9659257 0 -1.714292e-08 -1 0 -1.714292e-08 -1 0 -0.2588176 -0.9659262 0 -0.2588176 -0.9659262 0 -0.5000014 -0.8660246 0 -0.5000014 -0.8660246 0 -0.7071099 -0.7071037 0 -0.7071099 -0.7071037 0 -0.839977 -0.542622 0 -0.8646577 -0.502345 -0.004068933 -0.9101688 -0.4142364 -0.0009619734 -0.9666012 -0.2562603 -0.003566177 -0.956125 -0.2923942 -0.01818299 -1 8.438818e-06 -3.64593e-05 -0.977794 -0.2076447 -0.02833066 0.9665726 -0.2563657 -0.003747503 0.9101716 -0.4142303 -0.0009620671 0.839977 -0.542622 0 -0.9999999 0.0004975154 0 -0.9659245 0.2588239 0 -0.9659245 0.2588239 0 -0.8660241 0.5000023 0 -0.8660241 0.5000023 0 -0.7071093 0.7071043 0 -0.7071093 0.7071043 0 -0.5 0.8660254 0 -0.5 0.8660254 0 -0.2588181 0.9659261 0 -0.2588181 0.9659261 0 -1.714292e-08 1 0 -1.714292e-08 1 0 0.2588199 0.9659256 0 0.2588199 0.9659256 0 0.4999987 0.8660262 0 0.4999987 0.8660262 0 0.7071069 0.7071067 0 0.7071069 0.7071067 0 0.8660266 0.4999979 0 0.8660266 0.4999979 0 0.9659258 0.258819 0 0.9659258 0.258819 0 0.9999999 0.0005029831 0 1 0.0001099606 -0.0001417421 0.9809021 -0.194502 -3.97169e-05 0.951827 -0.3066356 0 1 0 0 1 0 0 0 0 -1 0 0 -1 0 0 -1 0 0 -1 0.9502656 7.644856e-05 -0.3114407 0.9172019 0.001262593 -0.3984208 0.7559292 0.0003855259 -0.6546533 0.8246262 0.00126286 -0.5656766 0.9183888 -3.42095e-05 -0.3956791 0.8678391 -0.000332914 -0.4968452 0.8060173 4.490815e-05 -0.591892 -1 0 0 -1 0 0 -3.100294e-17 0.7071068 -0.7071068 -5.929097e-17 0.7071068 -0.7071068 1.595861e-15 0.7071068 -0.7071068 0 0.7071068 -0.7071068 0 0 -1 0 0 -1 0 0 -1 0 0 -1 0 0 1 0 0 1 0 0 1 0 0 1 0 0 -1 0 0 -1 0 0 -1 0 0 -1 -1 0 0 -1 0 0 -1 0 0 -1 0 0 0 -1 0 0 -1 0 0 -1 0 0 -1 0 0 -1 0 0 -1 0 1 0 0 1 0 0 1 0 0 1 0 0 0 1 0 0 1 0 0 1 0 0 1 0</float_array>
          <technique_common>
            <accessor count="362" source="#normals-array-array" stride="3">
              <param type="float" name="X"/>
              <param type="float" name="Y"/>
              <param type="float" name="Z"/>
            </accessor>
          </technique_common>
        </source>
        <vertices id="verts-array-vertices">
          <input semantic="POSITION" source="#verts-array"/>
        </vertices>
        <triangles count="334" material="material0">
          <input offset="0" semantic="VERTEX" source="#verts-array-vertices"/>
          <input offset="1" semantic="NORMAL" source="#normals-array"/>
          <p>0 0 1 1 2 2 3 3 2 2 1 1 2 2 3 3 4 4 4 4 5 5 2 2 6 6 2 2 5 5 2 2 6 6 7 7 6 6 8 8 7 7 9 9 7 7 8 8 7 7 9 9 10 10 11 11 10 10 9 9 12 12 13 13 14 14 15 15 14 14 13 13 14 14 15 15 11 11 16 16 11 11 15 15 11 11 16 16 10 10 17 17 18 18 19 19 20 20 21 21 22 22 23 23 24 24 22 22 25 25 22 22 24 24 22 22 25 25 20 20 21 21 20 20 26 26 27 27 26 26 20 20 26 26 27 27 28 28 29 29 30 30 28 28 31 31 28 28 30 30 28 28 31 31 26 26 32 32 33 33 34 34 30 30 34 34 33 33 34 34 30 30 35 35 29 29 35 35 30 30 32 32 34 34 36 36 37 37 36 36 34 34 36 36 37 37 38 38 38 38 37 37 19 19 39 39 19 19 37 37 19 19 39 39 17 17 22 22 40 40 23 23 41 41 23 23 40 40 23 23 41 41 42 42 43 43 42 42 41 41 44 44 45 45 46 46 43 43 46 46 45 45 46 46 43 43 47 47 41 41 47 47 43 43 48 48 49 49 50 50 51 51 50 50 49 49 49 49 52 52 51 51 53 53 51 51 52 52 51 51 53 53 54 54 55 55 54 54 53 53 54 54 55 55 56 56 57 57 56 56 55 55 58 58 59 59 60 60 19 19 18 18 61 61 62 62 61 61 18 18 61 61 62 62 60 60 63 63 60 60 62 62 60 60 63 63 58 58 64 64 65 65 66 66 60 60 66 66 65 65 66 66 60 60 67 67 59 59 67 67 60 60 68 68 69 69 70 70 66 66 70 70 69 69 69 69 71 71 66 66 72 72 66 66 71 71 66 66 72 72 64 64 73 73 64 64 72 72 64 64 73 73 74 74 75 75 74 74 73 73 76 76 77 77 78 78 76 76 78 78 73 73 79 79 73 73 78 78 73 73 79 79 75 75 80 80 48 48 50 50 81 81 82 82 50 50 83 83 50 50 82 82 50 50 83 83 84 84 84 84 85 85 50 50 86 86 50 50 85 85 50 50 86 86 80 80 87 87 88 88 89 89 88 88 90 90 89 89 91 91 89 89 90 90 89 89 91 91 81 81 92 92 81 81 91 91 81 81 92 92 82 82 93 93 94 94 95 95 87 87 95 95 94 94 95 95 87 87 96 96 89 89 96 96 87 87 93 93 97 97 94 94 98 98 94 94 97 97 94 94 98 98 99 99 100 100 101 101 102 102 94 94 102 102 101 101 102 102 94 94 103 103 99 99 103 103 94 94 104 104 105 105 106 106 107 107 106 106 105 105 106 106 107 107 108 108 109 109 108 108 107 107 108 108 109 109 110 110 106 106 111 111 104 104 112 112 104 104 111 111 104 104 112 112 113 113 114 114 113 113 112 112 113 113 114 114 115 115 116 116 117 117 118 118 119 119 118 118 117 117 118 118 119 119 120 120 120 120 121 121 118 118 122 122 118 118 121 121 118 118 122 122 123 123 123 123 124 124 118 118 125 125 118 118 124 124 118 118 125 125 126 126 127 127 128 128 129 129 129 129 130 130 127 127 131 131 127 127 130 130 127 127 131 131 132 132 132 132 133 133 127 127 134 134 127 127 133 133 127 127 134 134 135 135 135 135 136 136 127 127 137 137 127 127 136 136 127 127 137 137 138 138 138 138 139 139 127 127 140 140 127 127 139 139 127 127 140 140 141 141 142 142 143 143 144 144 145 145 144 144 143 143 146 146 147 147 148 148 149 149 148 148 147 147 12 12 14 14 150 150 148 148 150 150 14 14 149 149 151 151 148 148 152 152 148 148 151 151 148 148 152 152 150 150 57 57 153 153 56 56 154 154 56 56 153 153 155 155 156 156 157 157 155 155 157 157 158 158 159 159 158 158 157 157 158 158 159 159 160 160 161 161 45 45 162 162 44 44 162 162 45 45 163 163 164 164 165 165 165 165 166 166 163 163 167 167 163 163 166 166 163 163 167 167 161 161 168 168 161 161 167 167 161 161 168 168 45 45 169 169 170 170 171 171 169 169 171 171 172 172 173 173 172 172 171 171 172 172 173 173 174 174 175 175 174 174 173 173 174 174 175 175 176 176 177 177 176 176 175 175 176 176 177 177 178 178 179 179 178 178 177 177 178 178 179 179 180 180 181 181 180 180 179 179 180 180 181 181 182 182 183 183 184 184 185 185 183 183 185 185 186 186 187 187 186 186 185 185 186 186 187 187 188 188 189 189 188 188 187 187 188 188 189 189 190 190 191 191 190 190 189 189 190 190 191 191 192 192 193 193 192 192 191 191 192 192 193 193 194 194 195 195 194 194 193 193 194 194 195 195 196 196 197 197 195 195 198 198 199 199 198 198 195 195 200 200 201 201 182 182 202 202 182 182 201 201 182 182 202 202 195 195 203 203 195 195 202 202 195 195 203 203 199 199 196 196 204 204 205 205 181 181 196 196 206 206 197 197 207 207 195 195 208 208 195 195 207 207 195 195 208 208 196 196 209 209 196 196 208 208 196 196 209 209 204 204 205 205 210 210 196 196 211 211 196 196 210 210 196 196 211 211 206 206 206 206 212 212 181 181 213 213 181 181 212 212 181 181 213 213 214 214 214 214 215 215 181 181 216 216 181 181 215 215 181 181 216 216 182 182 217 217 182 182 216 216 182 182 217 217 218 218 218 218 219 219 182 182 220 220 182 182 219 219 182 182 220 220 200 200 169 169 160 160 170 170 159 159 170 170 160 160 183 183 221 221 184 184 222 222 184 184 221 221 108 108 110 110 223 223 224 224 223 223 110 110 223 223 224 224 225 225 226 226 225 225 224 224 225 225 226 226 227 227 228 228 227 227 226 226 229 229 230 230 231 231 232 232 231 231 230 230 231 231 232 232 233 233 234 234 233 233 232 232 235 235 236 236 226 226 237 237 226 226 236 236 226 226 237 237 228 228 238 238 239 239 229 229 240 240 229 229 239 239 240 240 241 241 229 229 242 242 229 229 241 241 229 229 242 242 243 243 235 235 226 226 244 244 245 245 244 244 226 226 244 244 245 245 246 246 247 247 246 246 245 245 246 246 247 247 232 232 248 248 232 232 247 247 232 232 248 248 234 234 231 231 249 249 229 229 250 250 229 229 249 249 229 229 250 250 238 238 251 251 238 238 250 250 238 238 251 251 252 252 253 253 254 254 255 255 238 238 255 255 254 254 255 255 238 238 256 256 252 252 256 256 238 238 222 222 221 221 257 257 222 222 257 257 258 258 259 259 258 258 257 257 258 258 259 259 260 260 261 261 262 262 263 263 264 264 263 263 262 262 263 263 264 264 265 265 266 266 265 265 264 264 265 265 266 266 267 267 268 268 267 267 266 266 267 267 268 268 269 269 270 270 269 269 268 268 269 269 270 270 271 271 272 272 271 271 270 270 271 271 272 272 273 273 274 274 273 273 272 272 273 273 274 274 275 275 276 276 275 275 274 274 275 275 276 276 277 277 278 278 277 277 276 276 277 277 278 278 279 279 280 280 279 279 278 278 279 279 280 280 281 281 282 282 281 281 280 280 283 283 284 284 261 261 285 285 261 261 284 284 261 261 285 285 262 262 282 282 286 286 281 281 287 287 281 281 286 286 281 281 287 287 288 288 289 289 288 288 287 287 288 288 289 289 290 290 291 291 290 290 289 289 290 290 291 291 292 292 293 293 292 292 291 291 292 292 293 293 294 294 295 295 294 294 293 293 294 294 295 295 296 296 297 297 296 296 295 295 296 296 297 297 298 298 299 299 298 298 297 297 298 298 299 299 300 300 301 301 300 300 299 299 300 300 301 301 302 302 303 303 302 302 301 301 302 302 303 303 304 304 305 305 304 304 303 303 304 304 305 305 306 306 307 307 306 306 305 305 306 306 307 307 308 308 309 309 308 308 307 307 308 308 309 309 310 310 311 311 310 310 309 309 310 310 311 311 283 283 312 312 283 283 311 311 283 283 312 312 284 284 0 0 313 313 1 1 314 314 1 1 313 313 315 315 316 316 317 317 318 318 317 317 316 316 142 142 144 144 319 319 142 142 319 319 320 320 146 146 148 148 321 321 322 322 321 321 148 148 319 319 323 323 320 320 324 324 320 320 323 323 320 320 324 324 322 322 325 325 322 322 324 324 322 322 325 325 321 321 326 326 101 101 327 327 100 100 327 327 101 101 328 328 115 115 114 114 328 328 114 114 329 329 330 330 329 329 114 114 329 329 330 330 331 331 332 332 333 333 334 334 335 335 334 334 333 333 336 336 337 337 338 338 339 339 338 338 337 337 340 340 341 341 342 342 343 343 342 342 341 341 344 344 345 345 346 346 347 347 346 346 345 345 348 348 349 349 350 350 348 348 350 350 351 351 352 352 351 351 350 350 351 351 352 352 353 353 354 354 355 355 356 356 357 357 356 356 355 355 358 358 359 359 360 360 361 361 360 360 359 359</p>
        </triangles>
      </mesh>
    </geometry>
  </library_geometries>
  <library_materials>
    <material id="db5fcc2ae10444f3a80df0f27a45453c" name="defaultmaterial">
      <instance_effect url="#61e4db2df6144ef48177489ec0e8a627"/>
    </material>
  </library_materials>
  <library_visual_scenes>
    <visual_scene id="scene">
      <node id="node0" name="node0">
        <instance_geometry url="#37341e669b074b0eab8ea43468005283">
          <bind_material>
            <technique_common>
              <instance_material symbol="material0" target="#db5fcc2ae10444f3a80df0f27a45453c"/>
            </technique_common>
          </bind_material>
        </instance_geometry>
      </node>
    </visual_scene>
  </library_visual_scenes>
  <scene>
    <instance_visual_scene url="#scene"/>
  </scene>
</COLLADA>
