# https://github.com/mikedh/trimesh
v 0.03250000 0.00000000 0.00000000
v 0.03187552 0.00634044 0.00000000
v 0.03002608 0.01243721 0.00000000
v 0.02702276 0.01805603 0.00000000
v 0.02298097 0.02298097 0.00000000
v 0.01805603 0.02702276 0.00000000
v 0.01243721 0.03002608 0.00000000
v 0.00634044 0.03187552 0.00000000
v 0.00000000 0.03250000 0.00000000
v -0.00634044 0.03187552 0.00000000
v -0.01243721 0.03002608 0.00000000
v -0.01805603 0.02702276 0.00000000
v -0.02298097 0.02298097 0.00000000
v -0.02702276 0.01805603 0.00000000
v -0.03002608 0.01243721 0.00000000
v -0.03187552 0.00634044 0.00000000
v -0.03250000 0.00000000 0.00000000
v -0.03187552 -0.00634044 0.00000000
v -0.03002608 -0.01243721 0.00000000
v -0.02702276 -0.01805603 0.00000000
v -0.02298097 -0.02298097 0.00000000
v -0.01805603 -0.02702276 0.00000000
v -0.01243721 -0.03002608 0.00000000
v -0.00634044 -0.03187552 0.00000000
v -0.00000000 -0.03250000 0.00000000
v 0.00634044 -0.03187552 0.00000000
v 0.01243721 -0.03002608 0.00000000
v 0.01805603 -0.02702276 0.00000000
v 0.02298097 -0.02298097 0.00000000
v 0.02702276 -0.01805603 0.00000000
v 0.03002608 -0.01243721 0.00000000
v 0.03187552 -0.00634044 0.00000000
v 0.01350000 0.00000000 0.05500000
v 0.01324060 0.00263372 0.05500000
v 0.01247237 0.00516623 0.05500000
v 0.01122484 0.00750020 0.05500000
v 0.00954594 0.00954594 0.05500000
v 0.00750020 0.01122484 0.05500000
v 0.00516623 0.01247237 0.05500000
v 0.00263372 0.01324060 0.05500000
v 0.00000000 0.01350000 0.05500000
v -0.00263372 0.01324060 0.05500000
v -0.00516623 0.01247237 0.05500000
v -0.00750020 0.01122484 0.05500000
v -0.00954594 0.00954594 0.05500000
v -0.01122484 0.00750020 0.05500000
v -0.01247237 0.00516623 0.05500000
v -0.01324060 0.00263372 0.05500000
v -0.01350000 0.00000000 0.05500000
v -0.01324060 -0.00263372 0.05500000
v -0.01247237 -0.00516623 0.05500000
v -0.01122484 -0.00750020 0.05500000
v -0.00954594 -0.00954594 0.05500000
v -0.00750020 -0.01122484 0.05500000
v -0.00516623 -0.01247237 0.05500000
v -0.00263372 -0.01324060 0.05500000
v -0.00000000 -0.01350000 0.05500000
v 0.00263372 -0.01324060 0.05500000
v 0.00516623 -0.01247237 0.05500000
v 0.00750020 -0.01122484 0.05500000
v 0.00954594 -0.00954594 0.05500000
v 0.01122484 -0.00750020 0.05500000
v 0.01247237 -0.00516623 0.05500000
v 0.01324060 -0.00263372 0.05500000
v 0.00000000 0.00000000 0.05500000
v 0.01350000 0.00000000 0.05500000
v 0.01350000 0.00000000 0.07150000
v 0.00000000 0.00000000 0.07150000
v 0.01304000 0.00349406 0.05500000
v 0.01304000 0.00349406 0.07150000
v 0.01169134 0.00675000 0.05500000
v 0.01169134 0.00675000 0.07150000
v 0.00954594 0.00954594 0.05500000
v 0.00954594 0.00954594 0.07150000
v 0.00675000 0.01169134 0.05500000
v 0.00675000 0.01169134 0.07150000
v 0.00349406 0.01304000 0.05500000
v 0.00349406 0.01304000 0.07150000
v 0.00000000 0.01350000 0.05500000
v 0.00000000 0.01350000 0.07150000
v -0.00349406 0.01304000 0.05500000
v -0.00349406 0.01304000 0.07150000
v -0.00675000 0.01169134 0.05500000
v -0.00675000 0.01169134 0.07150000
v -0.00954594 0.00954594 0.05500000
v -0.00954594 0.00954594 0.07150000
v -0.01169134 0.00675000 0.05500000
v -0.01169134 0.00675000 0.07150000
v -0.01304000 0.00349406 0.05500000
v -0.01304000 0.00349406 0.07150000
v -0.01350000 0.00000000 0.05500000
v -0.01350000 0.00000000 0.07150000
v -0.01304000 -0.00349406 0.05500000
v -0.01304000 -0.00349406 0.07150000
v -0.01169134 -0.00675000 0.05500000
v -0.01169134 -0.00675000 0.07150000
v -0.00954594 -0.00954594 0.05500000
v -0.00954594 -0.00954594 0.07150000
v -0.00675000 -0.01169134 0.05500000
v -0.00675000 -0.01169134 0.07150000
v -0.00349406 -0.01304000 0.05500000
v -0.00349406 -0.01304000 0.07150000
v -0.00000000 -0.01350000 0.05500000
v -0.00000000 -0.01350000 0.07150000
v 0.00349406 -0.01304000 0.05500000
v 0.00349406 -0.01304000 0.07150000
v 0.00675000 -0.01169134 0.05500000
v 0.00675000 -0.01169134 0.07150000
v 0.00954594 -0.00954594 0.05500000
v 0.00954594 -0.00954594 0.07150000
v 0.01169134 -0.00675000 0.05500000
v 0.01169134 -0.00675000 0.07150000
v 0.01304000 -0.00349406 0.05500000
v 0.01304000 -0.00349406 0.07150000
v -0.00709737 0.01148379 0.07150000
v 0.00709737 0.01148379 0.07150000
v -0.00709737 -0.01148379 0.07150000
v 0.00709737 -0.01148379 0.07150000
v 0.00000000 -0.00709737 0.08298379
v 0.00000000 0.00709737 0.08298379
v 0.00000000 -0.00709737 0.06001621
v 0.00000000 0.00709737 0.06001621
v 0.01148379 0.00000000 0.06440263
v 0.01148379 0.00000000 0.07859737
v -0.01148379 0.00000000 0.06440263
v -0.01148379 0.00000000 0.07859737
v 0.00000000 0.01350000 0.07150000
v 0.00000000 -0.01350000 0.07150000
v -0.00417173 -0.01092173 0.07825000
v 0.00417173 -0.01092173 0.07825000
v -0.00417173 0.01092173 0.07825000
v 0.00417173 0.01092173 0.07825000
v 0.00000000 0.00000000 0.08500000
v -0.00417173 -0.01092173 0.06475000
v 0.00417173 -0.01092173 0.06475000
v -0.00417173 0.01092173 0.06475000
v 0.00417173 0.01092173 0.06475000
v 0.00000000 0.00000000 0.05800000
v 0.01092173 0.00675000 0.06732827
v 0.01092173 -0.00675000 0.06732827
v 0.00675000 -0.00417173 0.06057827
v 0.00675000 0.00417173 0.06057827
v 0.01092173 0.00675000 0.07567173
v 0.01092173 -0.00675000 0.07567173
v 0.00675000 -0.00417173 0.08242173
v 0.00675000 0.00417173 0.08242173
v 0.01350000 0.00000000 0.07150000
v -0.01092173 0.00675000 0.06732827
v -0.01092173 -0.00675000 0.06732827
v -0.00675000 -0.00417173 0.06057827
v -0.00675000 0.00417173 0.06057827
v -0.01092173 0.00675000 0.07567173
v -0.01092173 -0.00675000 0.07567173
v -0.00675000 -0.00417173 0.08242173
v -0.00675000 0.00417173 0.08242173
v -0.01350000 0.00000000 0.07150000
v -0.00368910 0.01298617 0.07150000
v 0.00368910 0.01298617 0.07150000
v -0.00368910 -0.01298617 0.07150000
v 0.00368910 -0.01298617 0.07150000
v -0.00585750 -0.01164602 0.07500854
v -0.00216840 -0.00936604 0.08097763
v -0.00219321 -0.01283926 0.07504869
v 0.00585750 -0.01164602 0.07500854
v 0.00216840 -0.00936604 0.08097763
v 0.00219321 -0.01283926 0.07504869
v 0.00000000 -0.01148379 0.07859737
v -0.00585750 0.01164602 0.07500854
v -0.00216840 0.00936604 0.08097763
v -0.00219321 0.01283926 0.07504869
v 0.00585750 0.01164602 0.07500854
v 0.00216840 0.00936604 0.08097763
v 0.00219321 0.01283926 0.07504869
v 0.00000000 0.01148379 0.07859737
v 0.00000000 -0.00368910 0.08448617
v 0.00000000 0.00368910 0.08448617
v -0.00585750 -0.01164602 0.06799146
v -0.00216840 -0.00936604 0.06202237
v -0.00219321 -0.01283926 0.06795131
v 0.00585750 -0.01164602 0.06799146
v 0.00216840 -0.00936604 0.06202237
v 0.00219321 -0.01283926 0.06795131
v 0.00000000 -0.01148379 0.06440263
v -0.00585750 0.01164602 0.06799146
v -0.00216840 0.00936604 0.06202237
v -0.00219321 0.01283926 0.06795131
v 0.00585750 0.01164602 0.06799146
v 0.00216840 0.00936604 0.06202237
v 0.00219321 0.01283926 0.06795131
v 0.00000000 0.01148379 0.06440263
v 0.00000000 -0.00368910 0.05851383
v 0.00000000 0.00368910 0.05851383
v 0.00936604 0.00947763 0.06933160
v 0.01164602 0.00350854 0.06564250
v 0.00793510 0.00929058 0.06575811
v 0.00936604 -0.00947763 0.06933160
v 0.01164602 -0.00350854 0.06564250
v 0.00793510 -0.00929058 0.06575811
v 0.00350854 -0.00585750 0.05985398
v 0.00947763 -0.00216840 0.06213396
v 0.00574189 -0.00793510 0.06220942
v 0.00354869 -0.00219321 0.05866074
v 0.00929058 -0.00574189 0.06356490
v 0.00350854 0.00585750 0.05985398
v 0.00947763 0.00216840 0.06213396
v 0.00574189 0.00793510 0.06220942
v 0.00354869 0.00219321 0.05866074
v 0.00929058 0.00574189 0.06356490
v 0.00709737 0.00000000 0.06001621
v 0.00936604 0.00947763 0.07366840
v 0.01164602 0.00350854 0.07735750
v 0.00793510 0.00929058 0.07724189
v 0.01148379 0.00709737 0.07150000
v 0.00936604 -0.00947763 0.07366840
v 0.01164602 -0.00350854 0.07735750
v 0.00793510 -0.00929058 0.07724189
v 0.01148379 -0.00709737 0.07150000
v 0.00350854 -0.00585750 0.08314602
v 0.00947763 -0.00216840 0.08086604
v 0.00574189 -0.00793510 0.08079058
v 0.00354869 -0.00219321 0.08433926
v 0.00929058 -0.00574189 0.07943510
v 0.00350854 0.00585750 0.08314602
v 0.00947763 0.00216840 0.08086604
v 0.00574189 0.00793510 0.08079058
v 0.00354869 0.00219321 0.08433926
v 0.00929058 0.00574189 0.07943510
v 0.00709737 0.00000000 0.08298379
v 0.01298617 0.00000000 0.06781090
v 0.01298617 0.00000000 0.07518910
v 0.01283926 0.00354869 0.06930679
v 0.01283926 -0.00354869 0.06930679
v 0.01283926 0.00354869 0.07369321
v 0.01283926 -0.00354869 0.07369321
v -0.00936604 0.00947763 0.06933160
v -0.01164602 0.00350854 0.06564250
v -0.00793510 0.00929058 0.06575811
v -0.00936604 -0.00947763 0.06933160
v -0.01164602 -0.00350854 0.06564250
v -0.00793510 -0.00929058 0.06575811
v -0.00350854 -0.00585750 0.05985398
v -0.00947763 -0.00216840 0.06213396
v -0.00574189 -0.00793510 0.06220942
v -0.00354869 -0.00219321 0.05866074
v -0.00929058 -0.00574189 0.06356490
v -0.00350854 0.00585750 0.05985398
v -0.00947763 0.00216840 0.06213396
v -0.00574189 0.00793510 0.06220942
v -0.00354869 0.00219321 0.05866074
v -0.00929058 0.00574189 0.06356490
v -0.00709737 0.00000000 0.06001621
v -0.00936604 0.00947763 0.07366840
v -0.01164602 0.00350854 0.07735750
v -0.00793510 0.00929058 0.07724189
v -0.01148379 0.00709737 0.07150000
v -0.00936604 -0.00947763 0.07366840
v -0.01164602 -0.00350854 0.07735750
v -0.00793510 -0.00929058 0.07724189
v -0.01148379 -0.00709737 0.07150000
v -0.00350854 -0.00585750 0.08314602
v -0.00947763 -0.00216840 0.08086604
v -0.00574189 -0.00793510 0.08079058
v -0.00354869 -0.00219321 0.08433926
v -0.00929058 -0.00574189 0.07943510
v -0.00350854 0.00585750 0.08314602
v -0.00947763 0.00216840 0.08086604
v -0.00574189 0.00793510 0.08079058
v -0.00354869 0.00219321 0.08433926
v -0.00929058 0.00574189 0.07943510
v -0.00709737 0.00000000 0.08298379
v -0.01298617 0.00000000 0.06781090
v -0.01298617 0.00000000 0.07518910
v -0.01283926 0.00354869 0.06930679
v -0.01283926 -0.00354869 0.06930679
v -0.01283926 0.00354869 0.07369321
v -0.01283926 -0.00354869 0.07369321
f 1 2 33
f 2 34 33
f 2 1 33
f 34 2 33
f 2 3 34
f 3 35 34
f 3 2 34
f 35 3 34
f 3 4 35
f 4 36 35
f 4 3 35
f 36 4 35
f 4 5 36
f 5 37 36
f 5 4 36
f 37 5 36
f 5 6 37
f 6 38 37
f 6 5 37
f 38 6 37
f 6 7 38
f 7 39 38
f 7 6 38
f 39 7 38
f 7 8 39
f 8 40 39
f 8 7 39
f 40 8 39
f 8 9 40
f 9 41 40
f 9 8 40
f 41 9 40
f 9 10 41
f 10 42 41
f 10 9 41
f 42 10 41
f 10 11 42
f 11 43 42
f 11 10 42
f 43 11 42
f 11 12 43
f 12 44 43
f 12 11 43
f 44 12 43
f 12 13 44
f 13 45 44
f 13 12 44
f 45 13 44
f 13 14 45
f 14 46 45
f 14 13 45
f 46 14 45
f 14 15 46
f 15 47 46
f 15 14 46
f 47 15 46
f 15 16 47
f 16 48 47
f 16 15 47
f 48 16 47
f 16 17 48
f 17 49 48
f 17 16 48
f 49 17 48
f 17 18 49
f 18 50 49
f 18 17 49
f 50 18 49
f 18 19 50
f 19 51 50
f 19 18 50
f 51 19 50
f 19 20 51
f 20 52 51
f 20 19 51
f 52 20 51
f 20 21 52
f 21 53 52
f 21 20 52
f 53 21 52
f 21 22 53
f 22 54 53
f 22 21 53
f 54 22 53
f 22 23 54
f 23 55 54
f 23 22 54
f 55 23 54
f 23 24 55
f 24 56 55
f 24 23 55
f 56 24 55
f 24 25 56
f 25 57 56
f 25 24 56
f 57 25 56
f 25 26 57
f 26 58 57
f 26 25 57
f 58 26 57
f 26 27 58
f 27 59 58
f 27 26 58
f 59 27 58
f 27 28 59
f 28 60 59
f 28 27 59
f 60 28 59
f 28 29 60
f 29 61 60
f 29 28 60
f 61 29 60
f 29 30 61
f 30 62 61
f 30 29 61
f 62 30 61
f 30 31 62
f 31 63 62
f 31 30 62
f 63 31 62
f 31 32 63
f 32 64 63
f 32 31 63
f 64 32 63
f 32 1 64
f 1 33 64
f 1 32 64
f 33 1 64
f 66 65 69
f 66 69 67
f 67 69 70
f 67 70 68
f 69 65 71
f 69 71 70
f 70 71 72
f 70 72 68
f 71 65 73
f 71 73 72
f 72 73 74
f 72 74 68
f 73 65 75
f 73 75 74
f 74 75 76
f 74 76 68
f 75 65 77
f 75 77 76
f 76 77 78
f 76 78 68
f 77 65 79
f 77 79 78
f 78 79 80
f 78 80 68
f 79 65 81
f 79 81 80
f 80 81 82
f 80 82 68
f 81 65 83
f 81 83 82
f 82 83 84
f 82 84 68
f 83 65 85
f 83 85 84
f 84 85 86
f 84 86 68
f 85 65 87
f 85 87 86
f 86 87 88
f 86 88 68
f 87 65 89
f 87 89 88
f 88 89 90
f 88 90 68
f 89 65 91
f 89 91 90
f 90 91 92
f 90 92 68
f 91 65 93
f 91 93 92
f 92 93 94
f 92 94 68
f 93 65 95
f 93 95 94
f 94 95 96
f 94 96 68
f 95 65 97
f 95 97 96
f 96 97 98
f 96 98 68
f 97 65 99
f 97 99 98
f 98 99 100
f 98 100 68
f 99 65 101
f 99 101 100
f 100 101 102
f 100 102 68
f 101 65 103
f 101 103 102
f 102 103 104
f 102 104 68
f 103 65 105
f 103 105 104
f 104 105 106
f 104 106 68
f 105 65 107
f 105 107 106
f 106 107 108
f 106 108 68
f 107 65 109
f 107 109 108
f 108 109 110
f 108 110 68
f 109 65 111
f 109 111 110
f 110 111 112
f 110 112 68
f 111 65 113
f 111 113 112
f 112 113 114
f 112 114 68
f 113 65 66
f 113 66 114
f 114 66 67
f 114 67 68
f 115 252 168
f 252 152 254
f 168 254 131
f 252 254 168
f 152 253 269
f 253 126 266
f 269 266 155
f 253 266 269
f 131 267 169
f 267 155 265
f 169 265 120
f 267 265 169
f 152 269 254
f 269 155 267
f 254 267 131
f 269 267 254
f 115 168 157
f 168 131 170
f 157 170 127
f 168 170 157
f 131 169 174
f 169 120 172
f 174 172 132
f 169 172 174
f 127 173 158
f 173 132 171
f 158 171 116
f 173 171 158
f 131 174 170
f 174 132 173
f 170 173 127
f 174 173 170
f 115 157 184
f 157 127 186
f 184 186 136
f 157 186 184
f 127 158 189
f 158 116 187
f 189 187 137
f 158 187 189
f 136 190 185
f 190 137 188
f 185 188 122
f 190 188 185
f 127 189 186
f 189 137 190
f 186 190 136
f 189 190 186
f 115 184 235
f 184 136 237
f 235 237 148
f 184 237 235
f 136 185 248
f 185 122 246
f 248 246 151
f 185 246 248
f 148 250 236
f 250 151 247
f 236 247 125
f 250 247 236
f 136 248 237
f 248 151 250
f 237 250 148
f 248 250 237
f 115 235 252
f 235 148 255
f 252 255 152
f 235 255 252
f 148 236 273
f 236 125 271
f 273 271 156
f 236 271 273
f 152 275 253
f 275 156 272
f 253 272 126
f 275 272 253
f 148 273 255
f 273 156 275
f 255 275 152
f 273 275 255
f 116 171 210
f 171 132 212
f 210 212 143
f 171 212 210
f 132 172 225
f 172 120 223
f 225 223 146
f 172 223 225
f 143 227 211
f 227 146 224
f 211 224 124
f 227 224 211
f 132 225 212
f 225 146 227
f 212 227 143
f 225 227 212
f 120 265 176
f 265 155 268
f 176 268 133
f 265 268 176
f 155 266 270
f 266 126 261
f 270 261 154
f 266 261 270
f 133 263 175
f 263 154 260
f 175 260 119
f 263 260 175
f 155 270 268
f 270 154 263
f 268 263 133
f 270 263 268
f 126 272 257
f 272 156 276
f 257 276 153
f 272 276 257
f 156 271 274
f 271 125 239
f 274 239 149
f 271 239 274
f 153 259 256
f 259 149 238
f 256 238 117
f 259 238 256
f 156 274 276
f 274 149 259
f 276 259 153
f 274 259 276
f 125 247 242
f 247 151 251
f 242 251 150
f 247 251 242
f 151 246 249
f 246 122 192
f 249 192 138
f 246 192 249
f 150 244 241
f 244 138 191
f 241 191 121
f 244 191 241
f 151 249 251
f 249 138 244
f 251 244 150
f 249 244 251
f 122 188 204
f 188 137 206
f 204 206 142
f 188 206 204
f 137 187 195
f 187 116 193
f 195 193 139
f 187 193 195
f 142 208 205
f 208 139 194
f 205 194 123
f 208 194 205
f 137 195 206
f 195 139 208
f 206 208 142
f 195 208 206
f 118 214 164
f 214 144 216
f 164 216 130
f 214 216 164
f 144 215 222
f 215 124 219
f 222 219 145
f 215 219 222
f 130 220 165
f 220 145 218
f 165 218 119
f 220 218 165
f 144 222 216
f 222 145 220
f 216 220 130
f 222 220 216
f 118 164 160
f 164 130 166
f 160 166 128
f 164 166 160
f 130 165 167
f 165 119 162
f 167 162 129
f 165 162 167
f 128 163 159
f 163 129 161
f 159 161 117
f 163 161 159
f 130 167 166
f 167 129 163
f 166 163 128
f 167 163 166
f 118 160 180
f 160 128 182
f 180 182 135
f 160 182 180
f 128 159 179
f 159 117 177
f 179 177 134
f 159 177 179
f 135 183 181
f 183 134 178
f 181 178 121
f 183 178 181
f 128 179 182
f 179 134 183
f 182 183 135
f 179 183 182
f 118 180 196
f 180 135 198
f 196 198 140
f 180 198 196
f 135 181 201
f 181 121 199
f 201 199 141
f 181 199 201
f 140 203 197
f 203 141 200
f 197 200 123
f 203 200 197
f 135 201 198
f 201 141 203
f 198 203 140
f 201 203 198
f 118 196 214
f 196 140 217
f 214 217 144
f 196 217 214
f 140 197 232
f 197 123 229
f 232 229 147
f 197 229 232
f 144 234 215
f 234 147 230
f 215 230 124
f 234 230 215
f 140 232 217
f 232 147 234
f 217 234 144
f 232 234 217
f 119 218 175
f 218 145 221
f 175 221 133
f 218 221 175
f 145 219 228
f 219 124 224
f 228 224 146
f 219 224 228
f 133 226 176
f 226 146 223
f 176 223 120
f 226 223 176
f 145 228 221
f 228 146 226
f 221 226 133
f 228 226 221
f 117 161 256
f 161 129 258
f 256 258 153
f 161 258 256
f 129 162 262
f 162 119 260
f 262 260 154
f 162 260 262
f 153 264 257
f 264 154 261
f 257 261 126
f 264 261 257
f 129 262 258
f 262 154 264
f 258 264 153
f 262 264 258
f 121 178 241
f 178 134 243
f 241 243 150
f 178 243 241
f 134 177 240
f 177 117 238
f 240 238 149
f 177 238 240
f 150 245 242
f 245 149 239
f 242 239 125
f 245 239 242
f 134 240 243
f 240 149 245
f 243 245 150
f 240 245 243
f 123 200 205
f 200 141 209
f 205 209 142
f 200 209 205
f 141 199 202
f 199 121 191
f 202 191 138
f 199 191 202
f 142 207 204
f 207 138 192
f 204 192 122
f 207 192 204
f 141 202 209
f 202 138 207
f 209 207 142
f 202 207 209
f 124 230 211
f 230 147 233
f 211 233 143
f 230 233 211
f 147 229 231
f 229 123 194
f 231 194 139
f 229 194 231
f 143 213 210
f 213 139 193
f 210 193 116
f 213 193 210
f 147 231 233
f 231 139 213
f 233 213 143
f 231 213 233

